%
M48
M72
T01C0.0236
T02C0.0320
T03C0.0400
T04C0.1260
%
T01
X9930Y1180
X16930Y5680
X13180Y8930
X10930Y14180
T02
X3180Y7430
X4180Y7430
X5180Y7430
X6180Y7430
X7180Y7430
X8180Y7430
X9180Y7430
X10180Y7430
X11180Y7430
X12180Y7430
X13180Y7430
X14180Y7430
X15180Y7430
X16180Y7430
X16180Y10430
X15180Y10430
X14180Y10430
X13180Y10430
X12180Y10430
X11180Y10430
X10180Y10430
X9180Y10430
X8180Y10430
X7180Y10430
X6180Y10430
X5180Y10430
X4180Y10430
X3180Y10430
X4805Y4655
X4805Y5455
X6680Y4655
X6680Y5455
X11355Y3055
X13255Y3055
X3430Y5680
X3430Y4680
X13680Y14430
X13680Y15430
X15430Y14430
X15430Y15430
X17180Y14430
X17180Y15430
X6430Y2180
X5930Y1430
X5430Y2180
X8930Y2180
X8430Y1430
X7930Y2180
X16430Y1180
X15680Y1680
X16430Y2180
T03
X2180Y2930
X3180Y2930
X4180Y2930
X19180Y7555
X18180Y7555
X19180Y8555
X18180Y8555
X19180Y9555
X18180Y9555
X19180Y10555
X18180Y10555
X6070Y14585
X6070Y12025
X4290Y14585
X4290Y12025
X1680Y4680
X1680Y5680
X1430Y7180
X1430Y8180
X1430Y9180
X1430Y10180
X1430Y11180
X18680Y2680
X18680Y3680
X18680Y4680
X12930Y16680
X11930Y16680
X10930Y16680
X9930Y16680
X1930Y16680
X2930Y16680
X3930Y16680
X4930Y16680
X5930Y16680
X6930Y16680
X7930Y16680
X14930Y16680
X15930Y16680
X16930Y16680
X17930Y16680
X18930Y16680
X2930Y18680
X3930Y18680
X4930Y18680
X5930Y18680
X6930Y18680
X7930Y18680
T04
X1430Y1180
X18930Y1180
X1430Y18680
X18930Y18680
M30
