G75*
%MOIN*%
%OFA0B0*%
%FSLAX24Y24*%
%IPPOS*%
%LPD*%
%AMOC8*
5,1,8,0,0,1.08239X$1,22.5*
%
%ADD10C,0.0000*%
%ADD11C,0.1300*%
%ADD12C,0.0560*%
%ADD13C,0.0780*%
%ADD14OC8,0.0560*%
%ADD15C,0.0560*%
%ADD16OC8,0.0780*%
%ADD17R,0.0780X0.0780*%
%ADD18OC8,0.0700*%
D10*
X000430Y000887D02*
X000430Y018999D01*
X000432Y019055D01*
X000438Y019110D01*
X000448Y019165D01*
X000462Y019219D01*
X000479Y019272D01*
X000501Y019323D01*
X000526Y019373D01*
X000554Y019421D01*
X000586Y019467D01*
X000621Y019510D01*
X000659Y019551D01*
X000700Y019589D01*
X000743Y019624D01*
X000789Y019656D01*
X000837Y019684D01*
X000887Y019709D01*
X000938Y019731D01*
X000991Y019748D01*
X001045Y019762D01*
X001100Y019772D01*
X001155Y019778D01*
X001211Y019780D01*
X019181Y019780D01*
X019237Y019778D01*
X019292Y019773D01*
X019347Y019764D01*
X019401Y019751D01*
X019454Y019735D01*
X019506Y019715D01*
X019557Y019692D01*
X019606Y019666D01*
X019653Y019637D01*
X019698Y019605D01*
X019741Y019569D01*
X019781Y019531D01*
X019819Y019491D01*
X019855Y019448D01*
X019887Y019403D01*
X019916Y019356D01*
X019942Y019307D01*
X019965Y019256D01*
X019985Y019204D01*
X020001Y019151D01*
X020014Y019097D01*
X020023Y019042D01*
X020028Y018987D01*
X020030Y018931D01*
X020030Y000961D01*
X020028Y000905D01*
X020022Y000850D01*
X020012Y000795D01*
X019998Y000741D01*
X019981Y000688D01*
X019959Y000637D01*
X019934Y000587D01*
X019906Y000539D01*
X019874Y000493D01*
X019839Y000450D01*
X019801Y000409D01*
X019760Y000371D01*
X019717Y000336D01*
X019671Y000304D01*
X019623Y000276D01*
X019573Y000251D01*
X019522Y000229D01*
X019469Y000212D01*
X019415Y000198D01*
X019360Y000188D01*
X019305Y000182D01*
X019249Y000180D01*
X001137Y000180D01*
X001087Y000182D01*
X001036Y000187D01*
X000987Y000196D01*
X000938Y000209D01*
X000890Y000225D01*
X000843Y000244D01*
X000798Y000266D01*
X000755Y000292D01*
X000713Y000321D01*
X000674Y000353D01*
X000637Y000387D01*
X000603Y000424D01*
X000571Y000463D01*
X000542Y000505D01*
X000516Y000548D01*
X000494Y000593D01*
X000475Y000640D01*
X000459Y000688D01*
X000446Y000737D01*
X000437Y000786D01*
X000432Y000837D01*
X000430Y000887D01*
X000800Y001180D02*
X000802Y001230D01*
X000808Y001280D01*
X000818Y001329D01*
X000832Y001377D01*
X000849Y001424D01*
X000870Y001469D01*
X000895Y001513D01*
X000923Y001554D01*
X000955Y001593D01*
X000989Y001630D01*
X001026Y001664D01*
X001066Y001694D01*
X001108Y001721D01*
X001152Y001745D01*
X001198Y001766D01*
X001245Y001782D01*
X001293Y001795D01*
X001343Y001804D01*
X001392Y001809D01*
X001443Y001810D01*
X001493Y001807D01*
X001542Y001800D01*
X001591Y001789D01*
X001639Y001774D01*
X001685Y001756D01*
X001730Y001734D01*
X001773Y001708D01*
X001814Y001679D01*
X001853Y001647D01*
X001889Y001612D01*
X001921Y001574D01*
X001951Y001534D01*
X001978Y001491D01*
X002001Y001447D01*
X002020Y001401D01*
X002036Y001353D01*
X002048Y001304D01*
X002056Y001255D01*
X002060Y001205D01*
X002060Y001155D01*
X002056Y001105D01*
X002048Y001056D01*
X002036Y001007D01*
X002020Y000959D01*
X002001Y000913D01*
X001978Y000869D01*
X001951Y000826D01*
X001921Y000786D01*
X001889Y000748D01*
X001853Y000713D01*
X001814Y000681D01*
X001773Y000652D01*
X001730Y000626D01*
X001685Y000604D01*
X001639Y000586D01*
X001591Y000571D01*
X001542Y000560D01*
X001493Y000553D01*
X001443Y000550D01*
X001392Y000551D01*
X001343Y000556D01*
X001293Y000565D01*
X001245Y000578D01*
X001198Y000594D01*
X001152Y000615D01*
X001108Y000639D01*
X001066Y000666D01*
X001026Y000696D01*
X000989Y000730D01*
X000955Y000767D01*
X000923Y000806D01*
X000895Y000847D01*
X000870Y000891D01*
X000849Y000936D01*
X000832Y000983D01*
X000818Y001031D01*
X000808Y001080D01*
X000802Y001130D01*
X000800Y001180D01*
X000800Y018680D02*
X000802Y018730D01*
X000808Y018780D01*
X000818Y018829D01*
X000832Y018877D01*
X000849Y018924D01*
X000870Y018969D01*
X000895Y019013D01*
X000923Y019054D01*
X000955Y019093D01*
X000989Y019130D01*
X001026Y019164D01*
X001066Y019194D01*
X001108Y019221D01*
X001152Y019245D01*
X001198Y019266D01*
X001245Y019282D01*
X001293Y019295D01*
X001343Y019304D01*
X001392Y019309D01*
X001443Y019310D01*
X001493Y019307D01*
X001542Y019300D01*
X001591Y019289D01*
X001639Y019274D01*
X001685Y019256D01*
X001730Y019234D01*
X001773Y019208D01*
X001814Y019179D01*
X001853Y019147D01*
X001889Y019112D01*
X001921Y019074D01*
X001951Y019034D01*
X001978Y018991D01*
X002001Y018947D01*
X002020Y018901D01*
X002036Y018853D01*
X002048Y018804D01*
X002056Y018755D01*
X002060Y018705D01*
X002060Y018655D01*
X002056Y018605D01*
X002048Y018556D01*
X002036Y018507D01*
X002020Y018459D01*
X002001Y018413D01*
X001978Y018369D01*
X001951Y018326D01*
X001921Y018286D01*
X001889Y018248D01*
X001853Y018213D01*
X001814Y018181D01*
X001773Y018152D01*
X001730Y018126D01*
X001685Y018104D01*
X001639Y018086D01*
X001591Y018071D01*
X001542Y018060D01*
X001493Y018053D01*
X001443Y018050D01*
X001392Y018051D01*
X001343Y018056D01*
X001293Y018065D01*
X001245Y018078D01*
X001198Y018094D01*
X001152Y018115D01*
X001108Y018139D01*
X001066Y018166D01*
X001026Y018196D01*
X000989Y018230D01*
X000955Y018267D01*
X000923Y018306D01*
X000895Y018347D01*
X000870Y018391D01*
X000849Y018436D01*
X000832Y018483D01*
X000818Y018531D01*
X000808Y018580D01*
X000802Y018630D01*
X000800Y018680D01*
X018300Y018680D02*
X018302Y018730D01*
X018308Y018780D01*
X018318Y018829D01*
X018332Y018877D01*
X018349Y018924D01*
X018370Y018969D01*
X018395Y019013D01*
X018423Y019054D01*
X018455Y019093D01*
X018489Y019130D01*
X018526Y019164D01*
X018566Y019194D01*
X018608Y019221D01*
X018652Y019245D01*
X018698Y019266D01*
X018745Y019282D01*
X018793Y019295D01*
X018843Y019304D01*
X018892Y019309D01*
X018943Y019310D01*
X018993Y019307D01*
X019042Y019300D01*
X019091Y019289D01*
X019139Y019274D01*
X019185Y019256D01*
X019230Y019234D01*
X019273Y019208D01*
X019314Y019179D01*
X019353Y019147D01*
X019389Y019112D01*
X019421Y019074D01*
X019451Y019034D01*
X019478Y018991D01*
X019501Y018947D01*
X019520Y018901D01*
X019536Y018853D01*
X019548Y018804D01*
X019556Y018755D01*
X019560Y018705D01*
X019560Y018655D01*
X019556Y018605D01*
X019548Y018556D01*
X019536Y018507D01*
X019520Y018459D01*
X019501Y018413D01*
X019478Y018369D01*
X019451Y018326D01*
X019421Y018286D01*
X019389Y018248D01*
X019353Y018213D01*
X019314Y018181D01*
X019273Y018152D01*
X019230Y018126D01*
X019185Y018104D01*
X019139Y018086D01*
X019091Y018071D01*
X019042Y018060D01*
X018993Y018053D01*
X018943Y018050D01*
X018892Y018051D01*
X018843Y018056D01*
X018793Y018065D01*
X018745Y018078D01*
X018698Y018094D01*
X018652Y018115D01*
X018608Y018139D01*
X018566Y018166D01*
X018526Y018196D01*
X018489Y018230D01*
X018455Y018267D01*
X018423Y018306D01*
X018395Y018347D01*
X018370Y018391D01*
X018349Y018436D01*
X018332Y018483D01*
X018318Y018531D01*
X018308Y018580D01*
X018302Y018630D01*
X018300Y018680D01*
X018300Y001180D02*
X018302Y001230D01*
X018308Y001280D01*
X018318Y001329D01*
X018332Y001377D01*
X018349Y001424D01*
X018370Y001469D01*
X018395Y001513D01*
X018423Y001554D01*
X018455Y001593D01*
X018489Y001630D01*
X018526Y001664D01*
X018566Y001694D01*
X018608Y001721D01*
X018652Y001745D01*
X018698Y001766D01*
X018745Y001782D01*
X018793Y001795D01*
X018843Y001804D01*
X018892Y001809D01*
X018943Y001810D01*
X018993Y001807D01*
X019042Y001800D01*
X019091Y001789D01*
X019139Y001774D01*
X019185Y001756D01*
X019230Y001734D01*
X019273Y001708D01*
X019314Y001679D01*
X019353Y001647D01*
X019389Y001612D01*
X019421Y001574D01*
X019451Y001534D01*
X019478Y001491D01*
X019501Y001447D01*
X019520Y001401D01*
X019536Y001353D01*
X019548Y001304D01*
X019556Y001255D01*
X019560Y001205D01*
X019560Y001155D01*
X019556Y001105D01*
X019548Y001056D01*
X019536Y001007D01*
X019520Y000959D01*
X019501Y000913D01*
X019478Y000869D01*
X019451Y000826D01*
X019421Y000786D01*
X019389Y000748D01*
X019353Y000713D01*
X019314Y000681D01*
X019273Y000652D01*
X019230Y000626D01*
X019185Y000604D01*
X019139Y000586D01*
X019091Y000571D01*
X019042Y000560D01*
X018993Y000553D01*
X018943Y000550D01*
X018892Y000551D01*
X018843Y000556D01*
X018793Y000565D01*
X018745Y000578D01*
X018698Y000594D01*
X018652Y000615D01*
X018608Y000639D01*
X018566Y000666D01*
X018526Y000696D01*
X018489Y000730D01*
X018455Y000767D01*
X018423Y000806D01*
X018395Y000847D01*
X018370Y000891D01*
X018349Y000936D01*
X018332Y000983D01*
X018318Y001031D01*
X018308Y001080D01*
X018302Y001130D01*
X018300Y001180D01*
D11*
X018930Y001180D03*
X001430Y001180D03*
X001430Y018680D03*
X018930Y018680D03*
D12*
X016180Y010690D02*
X016180Y010170D01*
X015180Y010170D02*
X015180Y010690D01*
X014180Y010690D02*
X014180Y010170D01*
X013180Y010170D02*
X013180Y010690D01*
X012180Y010690D02*
X012180Y010170D01*
X011180Y010170D02*
X011180Y010690D01*
X010180Y010690D02*
X010180Y010170D01*
X009180Y010170D02*
X009180Y010690D01*
X008180Y010690D02*
X008180Y010170D01*
X007180Y010170D02*
X007180Y010690D01*
X006180Y010690D02*
X006180Y010170D01*
X005180Y010170D02*
X005180Y010690D01*
X004180Y010690D02*
X004180Y010170D01*
X003180Y010170D02*
X003180Y010690D01*
X003180Y007690D02*
X003180Y007170D01*
X004180Y007170D02*
X004180Y007690D01*
X005180Y007690D02*
X005180Y007170D01*
X006180Y007170D02*
X006180Y007690D01*
X007180Y007690D02*
X007180Y007170D01*
X008180Y007170D02*
X008180Y007690D01*
X009180Y007690D02*
X009180Y007170D01*
X010180Y007170D02*
X010180Y007690D01*
X011180Y007690D02*
X011180Y007170D01*
X012180Y007170D02*
X012180Y007690D01*
X013180Y007690D02*
X013180Y007170D01*
X014180Y007170D02*
X014180Y007690D01*
X015180Y007690D02*
X015180Y007170D01*
X016180Y007170D02*
X016180Y007690D01*
D13*
X018680Y004680D03*
X018680Y003680D03*
X018680Y002680D03*
X017180Y014430D03*
X017180Y015430D03*
X016930Y016680D03*
X015930Y016680D03*
X014930Y016680D03*
X015430Y015430D03*
X015430Y014430D03*
X013680Y014430D03*
X013680Y015430D03*
X011930Y016680D03*
X010930Y016680D03*
X009930Y016680D03*
X007930Y016680D03*
X006930Y016680D03*
X005930Y016680D03*
X004930Y016680D03*
X003930Y016680D03*
X002930Y016680D03*
X001930Y016680D03*
X002930Y018680D03*
X003930Y018680D03*
X004930Y018680D03*
X005930Y018680D03*
X006930Y018680D03*
X007930Y018680D03*
X006070Y014585D03*
X004290Y014585D03*
X004290Y012025D03*
X006070Y012025D03*
X001430Y011180D03*
X001430Y010180D03*
X001430Y009180D03*
X001430Y008180D03*
X001430Y007180D03*
X001680Y005680D03*
X002180Y002930D03*
X003180Y002930D03*
X004180Y002930D03*
X017930Y016680D03*
X018930Y016680D03*
D14*
X006680Y004655D03*
X004805Y004655D03*
X003430Y004680D03*
X003430Y005680D03*
X015680Y001680D03*
X016430Y001180D03*
X016430Y002180D03*
D15*
X013255Y003055D03*
X011355Y003055D03*
X006680Y005455D03*
X004805Y005455D03*
D16*
X018180Y007555D03*
X018180Y008555D03*
X018180Y009555D03*
X018180Y010555D03*
X019180Y010555D03*
X019180Y009555D03*
X019180Y008555D03*
X019180Y007555D03*
D17*
X012930Y016680D03*
X001680Y004680D03*
D18*
X005430Y002180D03*
X005930Y001430D03*
X006430Y002180D03*
X007930Y002180D03*
X008430Y001430D03*
X008930Y002180D03*
M02*
