G75*
%MOIN*%
%OFA0B0*%
%FSLAX24Y24*%
%IPPOS*%
%LPD*%
%AMOC8*
5,1,8,0,0,1.08239X$1,22.5*
%
%ADD10C,0.0000*%
%ADD11C,0.0030*%
%ADD12C,0.0040*%
%ADD13C,0.0100*%
%ADD14C,0.0120*%
%ADD15C,0.0080*%
%ADD16C,0.0060*%
%ADD17C,0.0160*%
%ADD18C,0.0050*%
%ADD19C,0.0010*%
%ADD20C,0.0006*%
D10*
X000430Y000887D02*
X000430Y018999D01*
X000432Y019055D01*
X000438Y019110D01*
X000448Y019165D01*
X000462Y019219D01*
X000479Y019272D01*
X000501Y019323D01*
X000526Y019373D01*
X000554Y019421D01*
X000586Y019467D01*
X000621Y019510D01*
X000659Y019551D01*
X000700Y019589D01*
X000743Y019624D01*
X000789Y019656D01*
X000837Y019684D01*
X000887Y019709D01*
X000938Y019731D01*
X000991Y019748D01*
X001045Y019762D01*
X001100Y019772D01*
X001155Y019778D01*
X001211Y019780D01*
X019181Y019780D01*
X019237Y019778D01*
X019292Y019773D01*
X019347Y019764D01*
X019401Y019751D01*
X019454Y019735D01*
X019506Y019715D01*
X019557Y019692D01*
X019606Y019666D01*
X019653Y019637D01*
X019698Y019605D01*
X019741Y019569D01*
X019781Y019531D01*
X019819Y019491D01*
X019855Y019448D01*
X019887Y019403D01*
X019916Y019356D01*
X019942Y019307D01*
X019965Y019256D01*
X019985Y019204D01*
X020001Y019151D01*
X020014Y019097D01*
X020023Y019042D01*
X020028Y018987D01*
X020030Y018931D01*
X020030Y000961D01*
X020028Y000905D01*
X020022Y000850D01*
X020012Y000795D01*
X019998Y000741D01*
X019981Y000688D01*
X019959Y000637D01*
X019934Y000587D01*
X019906Y000539D01*
X019874Y000493D01*
X019839Y000450D01*
X019801Y000409D01*
X019760Y000371D01*
X019717Y000336D01*
X019671Y000304D01*
X019623Y000276D01*
X019573Y000251D01*
X019522Y000229D01*
X019469Y000212D01*
X019415Y000198D01*
X019360Y000188D01*
X019305Y000182D01*
X019249Y000180D01*
X001137Y000180D01*
X001087Y000182D01*
X001036Y000187D01*
X000987Y000196D01*
X000938Y000209D01*
X000890Y000225D01*
X000843Y000244D01*
X000798Y000266D01*
X000755Y000292D01*
X000713Y000321D01*
X000674Y000353D01*
X000637Y000387D01*
X000603Y000424D01*
X000571Y000463D01*
X000542Y000505D01*
X000516Y000548D01*
X000494Y000593D01*
X000475Y000640D01*
X000459Y000688D01*
X000446Y000737D01*
X000437Y000786D01*
X000432Y000837D01*
X000430Y000887D01*
X000800Y001180D02*
X000802Y001230D01*
X000808Y001280D01*
X000818Y001329D01*
X000832Y001377D01*
X000849Y001424D01*
X000870Y001469D01*
X000895Y001513D01*
X000923Y001554D01*
X000955Y001593D01*
X000989Y001630D01*
X001026Y001664D01*
X001066Y001694D01*
X001108Y001721D01*
X001152Y001745D01*
X001198Y001766D01*
X001245Y001782D01*
X001293Y001795D01*
X001343Y001804D01*
X001392Y001809D01*
X001443Y001810D01*
X001493Y001807D01*
X001542Y001800D01*
X001591Y001789D01*
X001639Y001774D01*
X001685Y001756D01*
X001730Y001734D01*
X001773Y001708D01*
X001814Y001679D01*
X001853Y001647D01*
X001889Y001612D01*
X001921Y001574D01*
X001951Y001534D01*
X001978Y001491D01*
X002001Y001447D01*
X002020Y001401D01*
X002036Y001353D01*
X002048Y001304D01*
X002056Y001255D01*
X002060Y001205D01*
X002060Y001155D01*
X002056Y001105D01*
X002048Y001056D01*
X002036Y001007D01*
X002020Y000959D01*
X002001Y000913D01*
X001978Y000869D01*
X001951Y000826D01*
X001921Y000786D01*
X001889Y000748D01*
X001853Y000713D01*
X001814Y000681D01*
X001773Y000652D01*
X001730Y000626D01*
X001685Y000604D01*
X001639Y000586D01*
X001591Y000571D01*
X001542Y000560D01*
X001493Y000553D01*
X001443Y000550D01*
X001392Y000551D01*
X001343Y000556D01*
X001293Y000565D01*
X001245Y000578D01*
X001198Y000594D01*
X001152Y000615D01*
X001108Y000639D01*
X001066Y000666D01*
X001026Y000696D01*
X000989Y000730D01*
X000955Y000767D01*
X000923Y000806D01*
X000895Y000847D01*
X000870Y000891D01*
X000849Y000936D01*
X000832Y000983D01*
X000818Y001031D01*
X000808Y001080D01*
X000802Y001130D01*
X000800Y001180D01*
X000800Y018680D02*
X000802Y018730D01*
X000808Y018780D01*
X000818Y018829D01*
X000832Y018877D01*
X000849Y018924D01*
X000870Y018969D01*
X000895Y019013D01*
X000923Y019054D01*
X000955Y019093D01*
X000989Y019130D01*
X001026Y019164D01*
X001066Y019194D01*
X001108Y019221D01*
X001152Y019245D01*
X001198Y019266D01*
X001245Y019282D01*
X001293Y019295D01*
X001343Y019304D01*
X001392Y019309D01*
X001443Y019310D01*
X001493Y019307D01*
X001542Y019300D01*
X001591Y019289D01*
X001639Y019274D01*
X001685Y019256D01*
X001730Y019234D01*
X001773Y019208D01*
X001814Y019179D01*
X001853Y019147D01*
X001889Y019112D01*
X001921Y019074D01*
X001951Y019034D01*
X001978Y018991D01*
X002001Y018947D01*
X002020Y018901D01*
X002036Y018853D01*
X002048Y018804D01*
X002056Y018755D01*
X002060Y018705D01*
X002060Y018655D01*
X002056Y018605D01*
X002048Y018556D01*
X002036Y018507D01*
X002020Y018459D01*
X002001Y018413D01*
X001978Y018369D01*
X001951Y018326D01*
X001921Y018286D01*
X001889Y018248D01*
X001853Y018213D01*
X001814Y018181D01*
X001773Y018152D01*
X001730Y018126D01*
X001685Y018104D01*
X001639Y018086D01*
X001591Y018071D01*
X001542Y018060D01*
X001493Y018053D01*
X001443Y018050D01*
X001392Y018051D01*
X001343Y018056D01*
X001293Y018065D01*
X001245Y018078D01*
X001198Y018094D01*
X001152Y018115D01*
X001108Y018139D01*
X001066Y018166D01*
X001026Y018196D01*
X000989Y018230D01*
X000955Y018267D01*
X000923Y018306D01*
X000895Y018347D01*
X000870Y018391D01*
X000849Y018436D01*
X000832Y018483D01*
X000818Y018531D01*
X000808Y018580D01*
X000802Y018630D01*
X000800Y018680D01*
X018300Y018680D02*
X018302Y018730D01*
X018308Y018780D01*
X018318Y018829D01*
X018332Y018877D01*
X018349Y018924D01*
X018370Y018969D01*
X018395Y019013D01*
X018423Y019054D01*
X018455Y019093D01*
X018489Y019130D01*
X018526Y019164D01*
X018566Y019194D01*
X018608Y019221D01*
X018652Y019245D01*
X018698Y019266D01*
X018745Y019282D01*
X018793Y019295D01*
X018843Y019304D01*
X018892Y019309D01*
X018943Y019310D01*
X018993Y019307D01*
X019042Y019300D01*
X019091Y019289D01*
X019139Y019274D01*
X019185Y019256D01*
X019230Y019234D01*
X019273Y019208D01*
X019314Y019179D01*
X019353Y019147D01*
X019389Y019112D01*
X019421Y019074D01*
X019451Y019034D01*
X019478Y018991D01*
X019501Y018947D01*
X019520Y018901D01*
X019536Y018853D01*
X019548Y018804D01*
X019556Y018755D01*
X019560Y018705D01*
X019560Y018655D01*
X019556Y018605D01*
X019548Y018556D01*
X019536Y018507D01*
X019520Y018459D01*
X019501Y018413D01*
X019478Y018369D01*
X019451Y018326D01*
X019421Y018286D01*
X019389Y018248D01*
X019353Y018213D01*
X019314Y018181D01*
X019273Y018152D01*
X019230Y018126D01*
X019185Y018104D01*
X019139Y018086D01*
X019091Y018071D01*
X019042Y018060D01*
X018993Y018053D01*
X018943Y018050D01*
X018892Y018051D01*
X018843Y018056D01*
X018793Y018065D01*
X018745Y018078D01*
X018698Y018094D01*
X018652Y018115D01*
X018608Y018139D01*
X018566Y018166D01*
X018526Y018196D01*
X018489Y018230D01*
X018455Y018267D01*
X018423Y018306D01*
X018395Y018347D01*
X018370Y018391D01*
X018349Y018436D01*
X018332Y018483D01*
X018318Y018531D01*
X018308Y018580D01*
X018302Y018630D01*
X018300Y018680D01*
X018300Y001180D02*
X018302Y001230D01*
X018308Y001280D01*
X018318Y001329D01*
X018332Y001377D01*
X018349Y001424D01*
X018370Y001469D01*
X018395Y001513D01*
X018423Y001554D01*
X018455Y001593D01*
X018489Y001630D01*
X018526Y001664D01*
X018566Y001694D01*
X018608Y001721D01*
X018652Y001745D01*
X018698Y001766D01*
X018745Y001782D01*
X018793Y001795D01*
X018843Y001804D01*
X018892Y001809D01*
X018943Y001810D01*
X018993Y001807D01*
X019042Y001800D01*
X019091Y001789D01*
X019139Y001774D01*
X019185Y001756D01*
X019230Y001734D01*
X019273Y001708D01*
X019314Y001679D01*
X019353Y001647D01*
X019389Y001612D01*
X019421Y001574D01*
X019451Y001534D01*
X019478Y001491D01*
X019501Y001447D01*
X019520Y001401D01*
X019536Y001353D01*
X019548Y001304D01*
X019556Y001255D01*
X019560Y001205D01*
X019560Y001155D01*
X019556Y001105D01*
X019548Y001056D01*
X019536Y001007D01*
X019520Y000959D01*
X019501Y000913D01*
X019478Y000869D01*
X019451Y000826D01*
X019421Y000786D01*
X019389Y000748D01*
X019353Y000713D01*
X019314Y000681D01*
X019273Y000652D01*
X019230Y000626D01*
X019185Y000604D01*
X019139Y000586D01*
X019091Y000571D01*
X019042Y000560D01*
X018993Y000553D01*
X018943Y000550D01*
X018892Y000551D01*
X018843Y000556D01*
X018793Y000565D01*
X018745Y000578D01*
X018698Y000594D01*
X018652Y000615D01*
X018608Y000639D01*
X018566Y000666D01*
X018526Y000696D01*
X018489Y000730D01*
X018455Y000767D01*
X018423Y000806D01*
X018395Y000847D01*
X018370Y000891D01*
X018349Y000936D01*
X018332Y000983D01*
X018318Y001031D01*
X018308Y001080D01*
X018302Y001130D01*
X018300Y001180D01*
D11*
X017992Y002195D02*
X017798Y002195D01*
X017750Y002243D01*
X017750Y002340D01*
X017798Y002388D01*
X017895Y002388D02*
X017895Y002292D01*
X017895Y002388D02*
X017992Y002388D01*
X018040Y002340D01*
X018040Y002243D01*
X017992Y002195D01*
X018040Y002490D02*
X017750Y002490D01*
X018040Y002683D01*
X017750Y002683D01*
X017750Y002784D02*
X017750Y002929D01*
X017798Y002978D01*
X017992Y002978D01*
X018040Y002929D01*
X018040Y002784D01*
X017750Y002784D01*
X017094Y003173D02*
X017094Y003367D01*
X016900Y003173D01*
X016949Y003125D01*
X017045Y003125D01*
X017094Y003173D01*
X016900Y003173D02*
X016900Y003367D01*
X016949Y003415D01*
X017045Y003415D01*
X017094Y003367D01*
X016799Y003367D02*
X016751Y003415D01*
X016654Y003415D01*
X016606Y003367D01*
X016505Y003367D02*
X016505Y003318D01*
X016456Y003270D01*
X016311Y003270D01*
X016210Y003222D02*
X016210Y003173D01*
X016162Y003125D01*
X016065Y003125D01*
X016016Y003173D01*
X016016Y003222D01*
X016065Y003270D01*
X016162Y003270D01*
X016210Y003222D01*
X016162Y003270D02*
X016210Y003318D01*
X016210Y003367D01*
X016162Y003415D01*
X016065Y003415D01*
X016016Y003367D01*
X016016Y003318D01*
X016065Y003270D01*
X015915Y003125D02*
X015722Y003125D01*
X015818Y003125D02*
X015818Y003415D01*
X015722Y003318D01*
X015621Y003367D02*
X015572Y003415D01*
X015475Y003415D01*
X015427Y003367D01*
X015427Y003318D01*
X015475Y003270D01*
X015572Y003270D01*
X015621Y003222D01*
X015621Y003173D01*
X015572Y003125D01*
X015475Y003125D01*
X015427Y003173D01*
X015326Y003173D02*
X015326Y003367D01*
X015278Y003415D01*
X015132Y003415D01*
X015132Y003125D01*
X015278Y003125D01*
X015326Y003173D01*
X016311Y003125D02*
X016456Y003125D01*
X016505Y003173D01*
X016505Y003222D01*
X016456Y003270D01*
X016505Y003367D02*
X016456Y003415D01*
X016311Y003415D01*
X016311Y003125D01*
X016606Y003125D02*
X016799Y003318D01*
X016799Y003367D01*
X016799Y003125D02*
X016606Y003125D01*
X017750Y003542D02*
X018040Y003542D01*
X018040Y003638D02*
X018040Y003445D01*
X017847Y003445D02*
X017750Y003542D01*
X017750Y003740D02*
X018040Y003740D01*
X017943Y003836D01*
X018040Y003933D01*
X017750Y003933D01*
X017750Y004445D02*
X017943Y004445D01*
X018040Y004542D01*
X017943Y004638D01*
X017750Y004638D01*
X017798Y004740D02*
X017992Y004740D01*
X018040Y004788D01*
X018040Y004885D01*
X017992Y004933D01*
X017992Y005034D02*
X018040Y005083D01*
X018040Y005179D01*
X017992Y005228D01*
X017992Y005034D02*
X017798Y005034D01*
X017750Y005083D01*
X017750Y005179D01*
X017798Y005228D01*
X017798Y004933D02*
X017750Y004885D01*
X017750Y004788D01*
X017798Y004740D01*
X016310Y005754D02*
X016063Y005507D01*
X016063Y005445D01*
X015942Y005445D02*
X015818Y005568D01*
X015880Y005568D02*
X015695Y005568D01*
X015695Y005445D02*
X015695Y005815D01*
X015880Y005815D01*
X015942Y005754D01*
X015942Y005630D01*
X015880Y005568D01*
X016063Y005815D02*
X016310Y005815D01*
X016310Y005754D01*
X016882Y006320D02*
X017005Y006320D01*
X017067Y006382D01*
X017188Y006382D02*
X017188Y006443D01*
X017250Y006505D01*
X017373Y006505D01*
X017435Y006443D01*
X017435Y006382D01*
X017373Y006320D01*
X017250Y006320D01*
X017188Y006382D01*
X017250Y006505D02*
X017188Y006567D01*
X017188Y006629D01*
X017250Y006690D01*
X017373Y006690D01*
X017435Y006629D01*
X017435Y006567D01*
X017373Y006505D01*
X017067Y006629D02*
X017005Y006690D01*
X016882Y006690D01*
X016820Y006629D01*
X016820Y006382D01*
X016882Y006320D01*
X019453Y003198D02*
X019502Y003198D01*
X019550Y003149D01*
X019598Y003198D01*
X019647Y003198D01*
X019695Y003149D01*
X019695Y003053D01*
X019647Y003004D01*
X019550Y003101D02*
X019550Y003149D01*
X019453Y003198D02*
X019405Y003149D01*
X019405Y003053D01*
X019453Y003004D01*
X019453Y002903D02*
X019550Y002903D01*
X019598Y002855D01*
X019598Y002710D01*
X019695Y002710D02*
X019405Y002710D01*
X019405Y002855D01*
X019453Y002903D01*
X019405Y002608D02*
X019405Y002512D01*
X019405Y002560D02*
X019647Y002560D01*
X019695Y002512D01*
X019695Y002463D01*
X019647Y002415D01*
X013449Y004732D02*
X013387Y004670D01*
X013263Y004670D01*
X013202Y004732D01*
X013080Y004732D02*
X013019Y004670D01*
X012895Y004670D01*
X012833Y004732D01*
X012833Y004979D01*
X012895Y005040D01*
X013019Y005040D01*
X013080Y004979D01*
X013202Y005040D02*
X013202Y004855D01*
X013325Y004917D01*
X013387Y004917D01*
X013449Y004855D01*
X013449Y004732D01*
X013449Y005040D02*
X013202Y005040D01*
X012887Y005670D02*
X012763Y005670D01*
X012702Y005732D01*
X012702Y005855D01*
X012887Y005855D01*
X012949Y005793D01*
X012949Y005732D01*
X012887Y005670D01*
X012702Y005855D02*
X012825Y005979D01*
X012949Y006040D01*
X012580Y005979D02*
X012519Y006040D01*
X012395Y006040D01*
X012333Y005979D01*
X012333Y005732D01*
X012395Y005670D01*
X012519Y005670D01*
X012580Y005732D01*
X009815Y005137D02*
X009815Y005013D01*
X009753Y004952D01*
X009753Y004830D02*
X009815Y004769D01*
X009815Y004645D01*
X009753Y004583D01*
X009506Y004583D01*
X009445Y004645D01*
X009445Y004769D01*
X009506Y004830D01*
X009506Y004952D02*
X009445Y005013D01*
X009445Y005137D01*
X009506Y005199D01*
X009568Y005199D01*
X009630Y005137D01*
X009692Y005199D01*
X009753Y005199D01*
X009815Y005137D01*
X009630Y005137D02*
X009630Y005075D01*
X008060Y003565D02*
X008060Y003504D01*
X007813Y003257D01*
X007813Y003195D01*
X007692Y003257D02*
X007630Y003195D01*
X007507Y003195D01*
X007445Y003257D01*
X007445Y003504D01*
X007507Y003565D01*
X007630Y003565D01*
X007692Y003504D01*
X007813Y003565D02*
X008060Y003565D01*
X004565Y002323D02*
X004565Y002199D01*
X004565Y002261D02*
X004318Y002261D01*
X004318Y002199D01*
X004195Y002261D02*
X004133Y002261D01*
X004195Y002078D02*
X004442Y002078D01*
X004565Y001955D01*
X004442Y001831D01*
X004195Y001831D01*
X003565Y001708D02*
X003195Y001708D01*
X003565Y001955D01*
X003195Y001955D01*
X003195Y002077D02*
X003195Y002262D01*
X003256Y002324D01*
X003503Y002324D01*
X003565Y002262D01*
X003565Y002077D01*
X003195Y002077D01*
X003256Y001587D02*
X003195Y001525D01*
X003195Y001402D01*
X003256Y001340D01*
X003503Y001340D01*
X003565Y001402D01*
X003565Y001525D01*
X003503Y001587D01*
X003380Y001587D01*
X003380Y001463D01*
X002565Y001832D02*
X002442Y001955D01*
X002195Y001955D01*
X002318Y002138D02*
X002380Y002077D01*
X002503Y002077D01*
X002565Y002138D01*
X002565Y002262D01*
X002503Y002324D01*
X002380Y002324D01*
X002318Y002262D01*
X002318Y002138D01*
X002565Y001832D02*
X002442Y001708D01*
X002195Y001708D01*
X001699Y003670D02*
X001575Y003793D01*
X001637Y003793D02*
X001452Y003793D01*
X001452Y003670D02*
X001452Y004040D01*
X001637Y004040D01*
X001699Y003979D01*
X001699Y003855D01*
X001637Y003793D01*
X001330Y003670D02*
X001330Y004040D01*
X001083Y004040D02*
X001083Y003670D01*
X001207Y003793D01*
X001330Y003670D01*
X000962Y003855D02*
X000900Y003793D01*
X000715Y003793D01*
X000715Y003670D02*
X000715Y004040D01*
X000900Y004040D01*
X000962Y003979D01*
X000962Y003855D01*
X001068Y006257D02*
X001068Y006504D01*
X000945Y006380D02*
X001192Y006380D01*
X002125Y006868D02*
X002173Y006820D01*
X002367Y006820D01*
X002415Y006868D01*
X002415Y006965D01*
X002367Y007013D01*
X002270Y007013D01*
X002270Y006917D01*
X002173Y007013D02*
X002125Y006965D01*
X002125Y006868D01*
X002125Y007115D02*
X002415Y007308D01*
X002125Y007308D01*
X002125Y007409D02*
X002125Y007554D01*
X002173Y007603D01*
X002367Y007603D01*
X002415Y007554D01*
X002415Y007409D01*
X002125Y007409D01*
X002125Y007115D02*
X002415Y007115D01*
X002415Y007820D02*
X002125Y007820D01*
X002125Y007965D01*
X002173Y008013D01*
X002270Y008013D01*
X002318Y007965D01*
X002318Y007820D01*
X002318Y007917D02*
X002415Y008013D01*
X002367Y008115D02*
X002415Y008163D01*
X002415Y008260D01*
X002367Y008308D01*
X002318Y008308D01*
X002270Y008260D01*
X002270Y008163D01*
X002222Y008115D01*
X002173Y008115D01*
X002125Y008163D01*
X002125Y008260D01*
X002173Y008308D01*
X002125Y008409D02*
X002125Y008603D01*
X002125Y008506D02*
X002415Y008506D01*
X002415Y008945D02*
X002125Y008945D01*
X002125Y009090D01*
X002173Y009138D01*
X002270Y009138D01*
X002318Y009090D01*
X002318Y008945D01*
X002318Y009042D02*
X002415Y009138D01*
X002415Y009240D02*
X002125Y009433D01*
X002125Y009240D02*
X002415Y009433D01*
X002125Y009945D02*
X002125Y010138D01*
X002125Y010042D02*
X002415Y010042D01*
X002415Y010240D02*
X002125Y010433D01*
X002125Y010240D02*
X002415Y010433D01*
X002318Y010820D02*
X002125Y010820D01*
X002318Y010820D02*
X002415Y010917D01*
X002318Y011013D01*
X002125Y011013D01*
X002173Y011115D02*
X002367Y011115D01*
X002415Y011163D01*
X002415Y011260D01*
X002367Y011308D01*
X002367Y011409D02*
X002415Y011458D01*
X002415Y011554D01*
X002367Y011603D01*
X002367Y011409D02*
X002173Y011409D01*
X002125Y011458D01*
X002125Y011554D01*
X002173Y011603D01*
X002173Y011308D02*
X002125Y011260D01*
X002125Y011163D01*
X002173Y011115D01*
X001685Y013695D02*
X001438Y013695D01*
X001317Y013695D02*
X001193Y013818D01*
X001255Y013818D02*
X001070Y013818D01*
X001070Y013695D02*
X001070Y014065D01*
X001255Y014065D01*
X001317Y014004D01*
X001317Y013880D01*
X001255Y013818D01*
X001438Y013942D02*
X001562Y014065D01*
X001562Y013695D01*
X001581Y017375D02*
X001484Y017375D01*
X001436Y017423D01*
X001484Y017520D02*
X001436Y017568D01*
X001436Y017617D01*
X001484Y017665D01*
X001581Y017665D01*
X001630Y017617D01*
X001581Y017520D02*
X001630Y017472D01*
X001630Y017423D01*
X001581Y017375D01*
X001581Y017520D02*
X001484Y017520D01*
X001731Y017665D02*
X001731Y017375D01*
X001876Y017375D01*
X001924Y017423D01*
X001924Y017617D01*
X001876Y017665D01*
X001731Y017665D01*
X002025Y017568D02*
X002025Y017375D01*
X002025Y017520D02*
X002219Y017520D01*
X002219Y017568D02*
X002219Y017375D01*
X002219Y017568D02*
X002122Y017665D01*
X002025Y017568D01*
X002561Y017568D02*
X002609Y017520D01*
X002706Y017520D01*
X002755Y017472D01*
X002755Y017423D01*
X002706Y017375D01*
X002609Y017375D01*
X002561Y017423D01*
X002561Y017568D02*
X002561Y017617D01*
X002609Y017665D01*
X002706Y017665D01*
X002755Y017617D01*
X002856Y017617D02*
X002856Y017423D01*
X002904Y017375D01*
X003001Y017375D01*
X003049Y017423D01*
X003150Y017375D02*
X003150Y017665D01*
X003049Y017617D02*
X003001Y017665D01*
X002904Y017665D01*
X002856Y017617D01*
X003150Y017375D02*
X003344Y017375D01*
X003731Y017375D02*
X003731Y017568D01*
X003827Y017665D01*
X003924Y017568D01*
X003924Y017375D01*
X004025Y017423D02*
X004074Y017375D01*
X004170Y017375D01*
X004219Y017423D01*
X004219Y017472D01*
X004170Y017520D01*
X004122Y017520D01*
X004170Y017520D02*
X004219Y017568D01*
X004219Y017617D01*
X004170Y017665D01*
X004074Y017665D01*
X004025Y017617D01*
X003924Y017520D02*
X003731Y017520D01*
X004731Y017520D02*
X004924Y017520D01*
X004924Y017568D02*
X004924Y017375D01*
X005025Y017375D02*
X005219Y017568D01*
X005219Y017617D01*
X005170Y017665D01*
X005074Y017665D01*
X005025Y017617D01*
X004924Y017568D02*
X004827Y017665D01*
X004731Y017568D01*
X004731Y017375D01*
X005025Y017375D02*
X005219Y017375D01*
X005731Y017375D02*
X005731Y017568D01*
X005827Y017665D01*
X005924Y017568D01*
X005924Y017375D01*
X006025Y017375D02*
X006219Y017375D01*
X006122Y017375D02*
X006122Y017665D01*
X006025Y017568D01*
X005924Y017520D02*
X005731Y017520D01*
X006731Y017375D02*
X006876Y017375D01*
X006924Y017423D01*
X006924Y017617D01*
X006876Y017665D01*
X006731Y017665D01*
X006731Y017375D01*
X007025Y017375D02*
X007219Y017568D01*
X007219Y017617D01*
X007170Y017665D01*
X007074Y017665D01*
X007025Y017617D01*
X007025Y017375D02*
X007219Y017375D01*
X007731Y017375D02*
X007876Y017375D01*
X007924Y017423D01*
X007924Y017617D01*
X007876Y017665D01*
X007731Y017665D01*
X007731Y017375D01*
X008025Y017423D02*
X008074Y017375D01*
X008170Y017375D01*
X008219Y017423D01*
X008219Y017472D01*
X008170Y017520D01*
X008122Y017520D01*
X008170Y017520D02*
X008219Y017568D01*
X008219Y017617D01*
X008170Y017665D01*
X008074Y017665D01*
X008025Y017617D01*
X008074Y019250D02*
X008170Y019250D01*
X008219Y019298D01*
X008074Y019250D02*
X008025Y019298D01*
X008025Y019492D01*
X008074Y019540D01*
X008170Y019540D01*
X008219Y019492D01*
X007924Y019492D02*
X007876Y019540D01*
X007779Y019540D01*
X007731Y019492D01*
X007731Y019298D01*
X007779Y019250D01*
X007876Y019250D01*
X007924Y019298D01*
X007630Y019347D02*
X007533Y019250D01*
X007436Y019347D01*
X007436Y019540D01*
X007630Y019540D02*
X007630Y019347D01*
X007219Y019298D02*
X007170Y019250D01*
X007074Y019250D01*
X007025Y019298D01*
X007025Y019492D01*
X007074Y019540D01*
X007170Y019540D01*
X007219Y019492D01*
X006924Y019492D02*
X006876Y019540D01*
X006779Y019540D01*
X006731Y019492D01*
X006731Y019298D01*
X006779Y019250D01*
X006876Y019250D01*
X006924Y019298D01*
X006630Y019347D02*
X006533Y019250D01*
X006436Y019347D01*
X006436Y019540D01*
X006630Y019540D02*
X006630Y019347D01*
X006219Y019298D02*
X006170Y019250D01*
X006074Y019250D01*
X006025Y019298D01*
X006025Y019492D01*
X006074Y019540D01*
X006170Y019540D01*
X006219Y019492D01*
X005924Y019492D02*
X005876Y019540D01*
X005779Y019540D01*
X005731Y019492D01*
X005731Y019298D01*
X005779Y019250D01*
X005876Y019250D01*
X005924Y019298D01*
X005630Y019347D02*
X005630Y019540D01*
X005630Y019347D02*
X005533Y019250D01*
X005436Y019347D01*
X005436Y019540D01*
X005219Y019492D02*
X005219Y019298D01*
X005170Y019250D01*
X005025Y019250D01*
X005025Y019540D01*
X005170Y019540D01*
X005219Y019492D01*
X004924Y019540D02*
X004924Y019250D01*
X004731Y019540D01*
X004731Y019250D01*
X004630Y019298D02*
X004630Y019395D01*
X004533Y019395D01*
X004630Y019298D02*
X004581Y019250D01*
X004484Y019250D01*
X004436Y019298D01*
X004436Y019492D01*
X004484Y019540D01*
X004581Y019540D01*
X004630Y019492D01*
X004219Y019492D02*
X004219Y019298D01*
X004170Y019250D01*
X004025Y019250D01*
X004025Y019540D01*
X004170Y019540D01*
X004219Y019492D01*
X003924Y019540D02*
X003924Y019250D01*
X003731Y019540D01*
X003731Y019250D01*
X003630Y019298D02*
X003630Y019395D01*
X003533Y019395D01*
X003630Y019298D02*
X003581Y019250D01*
X003484Y019250D01*
X003436Y019298D01*
X003436Y019492D01*
X003484Y019540D01*
X003581Y019540D01*
X003630Y019492D01*
X003219Y019492D02*
X003219Y019298D01*
X003170Y019250D01*
X003025Y019250D01*
X003025Y019540D01*
X003170Y019540D01*
X003219Y019492D01*
X002924Y019540D02*
X002924Y019250D01*
X002731Y019540D01*
X002731Y019250D01*
X002630Y019298D02*
X002630Y019395D01*
X002533Y019395D01*
X002630Y019298D02*
X002581Y019250D01*
X002484Y019250D01*
X002436Y019298D01*
X002436Y019492D01*
X002484Y019540D01*
X002581Y019540D01*
X002630Y019492D01*
X006945Y014315D02*
X007130Y014315D01*
X007192Y014254D01*
X007192Y014130D01*
X007130Y014068D01*
X006945Y014068D01*
X006945Y013945D02*
X006945Y014315D01*
X007068Y014068D02*
X007192Y013945D01*
X007313Y014007D02*
X007375Y013945D01*
X007498Y013945D01*
X007560Y014007D01*
X007560Y014130D01*
X007498Y014192D01*
X007437Y014192D01*
X007313Y014130D01*
X007313Y014315D01*
X007560Y014315D01*
X007574Y013415D02*
X007450Y013354D01*
X007327Y013230D01*
X007512Y013230D01*
X007574Y013168D01*
X007574Y013107D01*
X007512Y013045D01*
X007388Y013045D01*
X007327Y013107D01*
X007327Y013230D01*
X007205Y013230D02*
X007205Y013354D01*
X007144Y013415D01*
X006958Y013415D01*
X006958Y013045D01*
X006958Y013168D02*
X007144Y013168D01*
X007205Y013230D01*
X007082Y013168D02*
X007205Y013045D01*
X007187Y012315D02*
X007187Y011945D01*
X007310Y011945D02*
X007063Y011945D01*
X006942Y012007D02*
X006880Y011945D01*
X006757Y011945D01*
X006695Y012007D01*
X006695Y012254D01*
X006757Y012315D01*
X006880Y012315D01*
X006942Y012254D01*
X007063Y012192D02*
X007187Y012315D01*
X007432Y012254D02*
X007493Y012315D01*
X007617Y012315D01*
X007679Y012254D01*
X007432Y012007D01*
X007493Y011945D01*
X007617Y011945D01*
X007679Y012007D01*
X007679Y012254D01*
X007432Y012254D02*
X007432Y012007D01*
X009493Y015695D02*
X009590Y015695D01*
X009638Y015743D01*
X009638Y015840D01*
X009542Y015840D01*
X009638Y015937D02*
X009590Y015985D01*
X009493Y015985D01*
X009445Y015937D01*
X009445Y015743D01*
X009493Y015695D01*
X009740Y015695D02*
X009740Y015985D01*
X009933Y015695D01*
X009933Y015985D01*
X010034Y015985D02*
X010179Y015985D01*
X010228Y015937D01*
X010228Y015743D01*
X010179Y015695D01*
X010034Y015695D01*
X010034Y015985D01*
X011445Y015985D02*
X011445Y015695D01*
X011590Y015695D01*
X011638Y015743D01*
X011638Y015937D01*
X011590Y015985D01*
X011445Y015985D01*
X012195Y015985D02*
X012195Y015792D01*
X012292Y015695D01*
X012388Y015792D01*
X012388Y015985D01*
X012490Y015937D02*
X012490Y015743D01*
X012538Y015695D01*
X012635Y015695D01*
X012683Y015743D01*
X012784Y015743D02*
X012833Y015695D01*
X012929Y015695D01*
X012978Y015743D01*
X012784Y015743D02*
X012784Y015937D01*
X012833Y015985D01*
X012929Y015985D01*
X012978Y015937D01*
X012683Y015937D02*
X012635Y015985D01*
X012538Y015985D01*
X012490Y015937D01*
X011012Y017795D02*
X010888Y017795D01*
X010827Y017857D01*
X010827Y017918D01*
X010888Y017980D01*
X011012Y017980D01*
X011074Y017918D01*
X011074Y017857D01*
X011012Y017795D01*
X011012Y017980D02*
X011074Y018042D01*
X011074Y018104D01*
X011012Y018165D01*
X010888Y018165D01*
X010827Y018104D01*
X010827Y018042D01*
X010888Y017980D01*
X010705Y017980D02*
X010644Y017918D01*
X010458Y017918D01*
X010458Y017795D02*
X010458Y018165D01*
X010644Y018165D01*
X010705Y018104D01*
X010705Y017980D01*
X010582Y017918D02*
X010705Y017795D01*
X010805Y018945D02*
X010805Y019315D01*
X010682Y019315D02*
X010929Y019315D01*
X011050Y019254D02*
X011112Y019315D01*
X011235Y019315D01*
X011297Y019254D01*
X011297Y019192D01*
X011050Y018945D01*
X011297Y018945D01*
X011418Y018945D02*
X011665Y019192D01*
X011665Y019254D01*
X011603Y019315D01*
X011480Y019315D01*
X011418Y019254D01*
X011418Y018945D02*
X011665Y018945D01*
X010560Y018945D02*
X010560Y019315D01*
X010560Y019130D02*
X010313Y019130D01*
X010192Y019007D02*
X010192Y019254D01*
X010130Y019315D01*
X009945Y019315D01*
X009945Y018945D01*
X010130Y018945D01*
X010192Y019007D01*
X010313Y018945D02*
X010313Y019315D01*
X014625Y018179D02*
X014625Y018034D01*
X014915Y018034D01*
X014915Y018179D01*
X014867Y018228D01*
X014673Y018228D01*
X014625Y018179D01*
X014625Y017933D02*
X014915Y017933D01*
X014625Y017740D01*
X014915Y017740D01*
X014867Y017638D02*
X014770Y017638D01*
X014770Y017542D01*
X014867Y017638D02*
X014915Y017590D01*
X014915Y017493D01*
X014867Y017445D01*
X014673Y017445D01*
X014625Y017493D01*
X014625Y017590D01*
X014673Y017638D01*
X015625Y017590D02*
X015625Y017493D01*
X015673Y017445D01*
X015722Y017445D01*
X015770Y017493D01*
X015770Y017590D01*
X015818Y017638D01*
X015867Y017638D01*
X015915Y017590D01*
X015915Y017493D01*
X015867Y017445D01*
X015673Y017638D02*
X015625Y017590D01*
X015673Y017740D02*
X015867Y017740D01*
X015915Y017788D01*
X015915Y017885D01*
X015867Y017933D01*
X015915Y018034D02*
X015625Y018034D01*
X015673Y017933D02*
X015625Y017885D01*
X015625Y017788D01*
X015673Y017740D01*
X015818Y018034D02*
X015625Y018228D01*
X015770Y018083D02*
X015915Y018228D01*
X016625Y018279D02*
X016673Y018231D01*
X016867Y018231D01*
X016915Y018279D01*
X016915Y018376D01*
X016867Y018424D01*
X016673Y018424D01*
X016625Y018376D01*
X016625Y018279D01*
X016673Y018130D02*
X016625Y018081D01*
X016625Y017984D01*
X016673Y017936D01*
X016722Y017936D01*
X016770Y017984D01*
X016770Y018081D01*
X016818Y018130D01*
X016867Y018130D01*
X016915Y018081D01*
X016915Y017984D01*
X016867Y017936D01*
X016915Y017836D02*
X016915Y017740D01*
X016915Y017788D02*
X016625Y017788D01*
X016625Y017740D02*
X016625Y017836D01*
X016625Y017638D02*
X016915Y017638D01*
X016915Y017445D02*
X016625Y017445D01*
X016722Y017542D01*
X016625Y017638D01*
X017625Y017638D02*
X017915Y017638D01*
X017867Y017740D02*
X017673Y017740D01*
X017625Y017788D01*
X017625Y017885D01*
X017673Y017933D01*
X017867Y017933D01*
X017915Y017885D01*
X017915Y017788D01*
X017867Y017740D01*
X017722Y017542D02*
X017625Y017638D01*
X017722Y017542D02*
X017625Y017445D01*
X017915Y017445D01*
X017867Y018034D02*
X017915Y018083D01*
X017915Y018179D01*
X017867Y018228D01*
X017818Y018228D01*
X017770Y018179D01*
X017770Y018083D01*
X017722Y018034D01*
X017673Y018034D01*
X017625Y018083D01*
X017625Y018179D01*
X017673Y018228D01*
X017625Y018329D02*
X017625Y018426D01*
X017625Y018377D02*
X017915Y018377D01*
X017915Y018329D02*
X017915Y018426D01*
X018811Y017665D02*
X018811Y017472D01*
X018908Y017375D01*
X019005Y017472D01*
X019005Y017665D01*
X019106Y017617D02*
X019106Y017423D01*
X019154Y017375D01*
X019251Y017375D01*
X019299Y017423D01*
X019400Y017423D02*
X019449Y017375D01*
X019545Y017375D01*
X019594Y017423D01*
X019400Y017423D02*
X019400Y017617D01*
X019449Y017665D01*
X019545Y017665D01*
X019594Y017617D01*
X019299Y017617D02*
X019251Y017665D01*
X019154Y017665D01*
X019106Y017617D01*
X017505Y012824D02*
X017505Y012577D01*
X017320Y012762D01*
X017690Y012762D01*
X017690Y012455D02*
X017567Y012332D01*
X017567Y012394D02*
X017567Y012208D01*
X017690Y012208D02*
X017320Y012208D01*
X017320Y012394D01*
X017381Y012455D01*
X017505Y012455D01*
X017567Y012394D01*
X016315Y012455D02*
X016192Y012332D01*
X016192Y012394D02*
X016192Y012208D01*
X016315Y012208D02*
X015945Y012208D01*
X015945Y012394D01*
X016006Y012455D01*
X016130Y012455D01*
X016192Y012394D01*
X016253Y012577D02*
X016315Y012638D01*
X016315Y012762D01*
X016253Y012824D01*
X016192Y012824D01*
X016130Y012762D01*
X016130Y012700D01*
X016130Y012762D02*
X016068Y012824D01*
X016006Y012824D01*
X015945Y012762D01*
X015945Y012638D01*
X016006Y012577D01*
X014565Y012577D02*
X014318Y012824D01*
X014256Y012824D01*
X014195Y012762D01*
X014195Y012638D01*
X014256Y012577D01*
X014256Y012455D02*
X014380Y012455D01*
X014442Y012394D01*
X014442Y012208D01*
X014565Y012208D02*
X014195Y012208D01*
X014195Y012394D01*
X014256Y012455D01*
X014442Y012332D02*
X014565Y012455D01*
X014565Y012577D02*
X014565Y012824D01*
X012815Y012762D02*
X012445Y012762D01*
X012630Y012577D01*
X012630Y012824D01*
X012753Y012455D02*
X012815Y012394D01*
X012815Y012270D01*
X012753Y012208D01*
X012506Y012208D01*
X012445Y012270D01*
X012445Y012394D01*
X012506Y012455D01*
D12*
X012832Y013650D02*
X012832Y014010D01*
X013012Y014010D01*
X013072Y013950D01*
X013072Y013830D01*
X013012Y013770D01*
X012832Y013770D01*
X012952Y013770D02*
X013072Y013650D01*
X014582Y013950D02*
X014702Y013830D01*
X014702Y013650D01*
X014702Y013830D02*
X014822Y013950D01*
X014822Y014010D01*
X014582Y014010D02*
X014582Y013950D01*
X016332Y013950D02*
X016332Y013710D01*
X016392Y013650D01*
X016512Y013650D01*
X016572Y013710D01*
X016572Y013830D01*
X016452Y013830D01*
X016572Y013950D02*
X016512Y014010D01*
X016392Y014010D01*
X016332Y013950D01*
X014130Y016170D02*
X014190Y016230D01*
X014190Y016290D01*
X014130Y016350D01*
X013830Y016350D01*
X013830Y016290D02*
X013830Y016410D01*
X013830Y016538D02*
X013830Y016718D01*
X013890Y016779D01*
X014010Y016779D01*
X014070Y016718D01*
X014070Y016538D01*
X014190Y016538D02*
X013830Y016538D01*
X014010Y016907D02*
X014010Y017087D01*
X014070Y017147D01*
X014130Y017147D01*
X014190Y017087D01*
X014190Y016967D01*
X014130Y016907D01*
X014010Y016907D01*
X013890Y017027D01*
X013830Y017147D01*
X015950Y019037D02*
X016037Y018950D01*
X016210Y018950D01*
X016297Y019037D01*
X016297Y019123D01*
X016210Y019210D01*
X016037Y019210D01*
X015950Y019297D01*
X015950Y019384D01*
X016037Y019470D01*
X016210Y019470D01*
X016297Y019384D01*
X016466Y019470D02*
X016726Y019470D01*
X016813Y019384D01*
X016813Y019210D01*
X016726Y019123D01*
X016466Y019123D01*
X016466Y018950D02*
X016466Y019470D01*
X016981Y019470D02*
X017155Y019470D01*
X017068Y019470D02*
X017068Y018950D01*
X016981Y018950D02*
X017155Y018950D01*
X009280Y017042D02*
X008920Y017042D01*
X009100Y016862D01*
X009100Y017102D01*
X009100Y016734D02*
X009160Y016674D01*
X009160Y016493D01*
X009280Y016493D02*
X008920Y016493D01*
X008920Y016674D01*
X008980Y016734D01*
X009100Y016734D01*
X008920Y016365D02*
X008920Y016245D01*
X008920Y016305D02*
X009220Y016305D01*
X009280Y016245D01*
X009280Y016185D01*
X009220Y016125D01*
X003563Y013310D02*
X003563Y012950D01*
X003443Y012950D02*
X003684Y012950D01*
X003443Y013190D02*
X003563Y013310D01*
X003315Y013250D02*
X003255Y013310D01*
X003135Y013310D01*
X003075Y013250D01*
X003075Y013190D01*
X003135Y013130D01*
X003255Y013130D01*
X003315Y013070D01*
X003315Y013010D01*
X003255Y012950D01*
X003135Y012950D01*
X003075Y013010D01*
X001897Y012220D02*
X001837Y012280D01*
X001717Y012280D01*
X001657Y012220D01*
X001529Y012220D02*
X001529Y012100D01*
X001468Y012040D01*
X001288Y012040D01*
X001288Y011920D02*
X001288Y012280D01*
X001468Y012280D01*
X001529Y012220D01*
X001657Y011920D02*
X001897Y012160D01*
X001897Y012220D01*
X001897Y011920D02*
X001657Y011920D01*
X001100Y011980D02*
X001100Y012280D01*
X001040Y012280D02*
X001160Y012280D01*
X001100Y011980D02*
X001040Y011920D01*
X000980Y011920D01*
X000920Y011980D01*
X004700Y009190D02*
X004700Y008950D01*
X004700Y009130D02*
X004940Y009130D01*
X004940Y009190D02*
X004940Y008950D01*
X004940Y009190D02*
X004820Y009310D01*
X004700Y009190D01*
X005068Y009310D02*
X005309Y009310D01*
X005188Y009310D02*
X005188Y008950D01*
X005437Y008950D02*
X005437Y009310D01*
X005557Y009190D01*
X005677Y009310D01*
X005677Y008950D01*
X005805Y008950D02*
X006045Y008950D01*
X006173Y009010D02*
X006233Y008950D01*
X006353Y008950D01*
X006413Y009010D01*
X006413Y009130D01*
X006293Y009130D01*
X006173Y009250D02*
X006173Y009010D01*
X006173Y009250D02*
X006233Y009310D01*
X006353Y009310D01*
X006413Y009250D01*
X006542Y009190D02*
X006542Y008950D01*
X006542Y009130D02*
X006782Y009130D01*
X006782Y009190D02*
X006782Y008950D01*
X006910Y009010D02*
X006970Y008950D01*
X007090Y008950D01*
X007150Y009010D01*
X007150Y009070D01*
X007090Y009130D01*
X007030Y009130D01*
X007090Y009130D02*
X007150Y009190D01*
X007150Y009250D01*
X007090Y009310D01*
X006970Y009310D01*
X006910Y009250D01*
X006782Y009190D02*
X006662Y009310D01*
X006542Y009190D01*
X006045Y009310D02*
X005805Y009310D01*
X005805Y008950D01*
X005805Y009130D02*
X005925Y009130D01*
X007278Y009250D02*
X007338Y009310D01*
X007458Y009310D01*
X007518Y009250D01*
X007518Y009190D01*
X007278Y008950D01*
X007518Y008950D01*
X007647Y009010D02*
X007647Y009070D01*
X007707Y009130D01*
X007827Y009130D01*
X007887Y009070D01*
X007887Y009010D01*
X007827Y008950D01*
X007707Y008950D01*
X007647Y009010D01*
X007707Y009130D02*
X007647Y009190D01*
X007647Y009250D01*
X007707Y009310D01*
X007827Y009310D01*
X007887Y009250D01*
X007887Y009190D01*
X007827Y009130D01*
X008015Y009070D02*
X008195Y009070D01*
X008255Y009130D01*
X008255Y009250D01*
X008195Y009310D01*
X008015Y009310D01*
X008015Y008950D01*
X006848Y006535D02*
X006728Y006535D01*
X006668Y006475D01*
X006540Y006475D02*
X006480Y006535D01*
X006360Y006535D01*
X006300Y006475D01*
X006300Y006235D01*
X006360Y006175D01*
X006480Y006175D01*
X006540Y006235D01*
X006668Y006175D02*
X006909Y006415D01*
X006909Y006475D01*
X006848Y006535D01*
X006909Y006175D02*
X006668Y006175D01*
X005034Y006175D02*
X004793Y006175D01*
X004913Y006175D02*
X004913Y006535D01*
X004793Y006415D01*
X004665Y006475D02*
X004605Y006535D01*
X004485Y006535D01*
X004425Y006475D01*
X004425Y006235D01*
X004485Y006175D01*
X004605Y006175D01*
X004665Y006235D01*
X010200Y001035D02*
X010430Y001035D01*
X010507Y000959D01*
X010507Y000805D01*
X010430Y000728D01*
X010200Y000728D01*
X010200Y000575D02*
X010200Y001035D01*
X010353Y000728D02*
X010507Y000575D01*
X010660Y000575D02*
X010660Y001035D01*
X010967Y001035D01*
X010814Y000805D02*
X010660Y000805D01*
X011121Y000498D02*
X011428Y000498D01*
X011581Y000575D02*
X011581Y001035D01*
X011888Y000575D01*
X011888Y001035D01*
X012042Y000959D02*
X012042Y000652D01*
X012118Y000575D01*
X012272Y000575D01*
X012348Y000652D01*
X012348Y000959D01*
X012272Y001035D01*
X012118Y001035D01*
X012042Y000959D01*
X012502Y001035D02*
X012502Y000575D01*
X012732Y000575D01*
X012809Y000652D01*
X012809Y000959D01*
X012732Y001035D01*
X012502Y001035D01*
X012962Y001035D02*
X012962Y000575D01*
X013269Y000575D01*
X013116Y000805D02*
X012962Y000805D01*
X012962Y001035D02*
X013269Y001035D01*
X013883Y000882D02*
X014037Y000575D01*
X014190Y000882D01*
X014344Y000882D02*
X014497Y001035D01*
X014497Y000575D01*
X014344Y000575D02*
X014650Y000575D01*
X014804Y000575D02*
X014804Y000652D01*
X014881Y000652D01*
X014881Y000575D01*
X014804Y000575D01*
X015034Y000575D02*
X015341Y000882D01*
X015341Y000959D01*
X015264Y001035D01*
X015111Y001035D01*
X015034Y000959D01*
X015034Y000575D02*
X015341Y000575D01*
X017050Y008325D02*
X017050Y008505D01*
X017110Y008565D01*
X017230Y008565D01*
X017290Y008505D01*
X017290Y008325D01*
X017410Y008325D02*
X017050Y008325D01*
X017290Y008445D02*
X017410Y008565D01*
X017410Y008693D02*
X017170Y008693D01*
X017050Y008813D01*
X017170Y008934D01*
X017410Y008934D01*
X017410Y009062D02*
X017410Y009242D01*
X017350Y009302D01*
X017110Y009302D01*
X017050Y009242D01*
X017050Y009062D01*
X017410Y009062D01*
X017230Y008934D02*
X017230Y008693D01*
X017410Y009430D02*
X017410Y009550D01*
X017410Y009490D02*
X017050Y009490D01*
X017050Y009430D02*
X017050Y009550D01*
X017110Y009675D02*
X017350Y009675D01*
X017410Y009736D01*
X017410Y009856D01*
X017350Y009916D01*
X017110Y009916D01*
X017050Y009856D01*
X017050Y009736D01*
X017110Y009675D01*
X001190Y016230D02*
X001190Y016290D01*
X001130Y016350D01*
X000830Y016350D01*
X000830Y016290D02*
X000830Y016410D01*
X000830Y016538D02*
X000830Y016718D01*
X000890Y016779D01*
X001010Y016779D01*
X001070Y016718D01*
X001070Y016538D01*
X001190Y016538D02*
X000830Y016538D01*
X000830Y016907D02*
X001010Y016907D01*
X000950Y017027D01*
X000950Y017087D01*
X001010Y017147D01*
X001130Y017147D01*
X001190Y017087D01*
X001190Y016967D01*
X001130Y016907D01*
X000830Y016907D02*
X000830Y017147D01*
X001190Y016230D02*
X001130Y016170D01*
D13*
X002430Y016430D02*
X002430Y016930D01*
X009430Y017180D02*
X009430Y019680D01*
X013430Y019680D01*
X013430Y018680D01*
X012430Y016930D02*
X012430Y016430D01*
X013170Y015550D02*
X013370Y015550D01*
X014010Y015550D02*
X014190Y015550D01*
X014920Y015550D02*
X015120Y015550D01*
X015760Y015550D02*
X015940Y015550D01*
X016670Y015550D02*
X016870Y015550D01*
X017510Y015550D02*
X017690Y015550D01*
X015430Y016430D02*
X015430Y016930D01*
X018680Y008055D02*
X019430Y008055D01*
X018680Y008055D02*
X018680Y007055D01*
X018930Y003180D02*
X018430Y003180D01*
X009680Y003430D02*
X009180Y003430D01*
X009680Y001430D02*
X009680Y000930D01*
X002180Y000930D02*
X001680Y000930D01*
X001680Y003430D02*
X002180Y003430D01*
D14*
X001680Y003430D01*
X001680Y002930D01*
X001680Y001430D02*
X001680Y000930D01*
X002180Y000930D01*
X001680Y007680D02*
X001180Y007680D01*
X009180Y003430D02*
X009680Y003430D01*
X009680Y002930D01*
X009680Y001430D02*
X009680Y000930D01*
X009180Y000930D01*
D15*
X002780Y007730D02*
X002680Y007730D01*
X002680Y008430D01*
X002724Y008432D01*
X002767Y008438D01*
X002809Y008447D01*
X002851Y008460D01*
X002891Y008477D01*
X002930Y008497D01*
X002967Y008520D01*
X003001Y008547D01*
X003034Y008576D01*
X003063Y008609D01*
X003090Y008643D01*
X003113Y008680D01*
X003133Y008719D01*
X003150Y008759D01*
X003163Y008801D01*
X003172Y008843D01*
X003178Y008886D01*
X003180Y008930D01*
X003178Y008974D01*
X003172Y009017D01*
X003163Y009059D01*
X003150Y009101D01*
X003133Y009141D01*
X003113Y009180D01*
X003090Y009217D01*
X003063Y009251D01*
X003034Y009284D01*
X003001Y009313D01*
X002967Y009340D01*
X002930Y009363D01*
X002891Y009383D01*
X002851Y009400D01*
X002809Y009413D01*
X002767Y009422D01*
X002724Y009428D01*
X002680Y009430D01*
X002680Y010130D01*
X002780Y010130D01*
X001930Y009930D02*
X001930Y010430D01*
X001680Y010680D01*
X001930Y010930D01*
X001930Y011430D01*
X001680Y011680D01*
X001180Y011680D01*
X000930Y011430D01*
X000930Y010930D01*
X001180Y010680D01*
X000930Y010430D01*
X000930Y009930D01*
X001180Y009680D01*
X000930Y009430D01*
X000930Y008930D01*
X001180Y008680D01*
X000930Y008430D01*
X000930Y007930D01*
X001180Y007680D01*
X000930Y007430D01*
X000930Y006930D01*
X001180Y006680D01*
X001680Y006680D01*
X001930Y006930D01*
X001930Y007430D01*
X001680Y007680D01*
X001930Y007930D01*
X001930Y008430D01*
X001680Y008680D01*
X001930Y008930D01*
X001930Y009430D01*
X001680Y009680D01*
X001930Y009930D01*
X003980Y012455D02*
X003980Y014155D01*
X004780Y014505D02*
X005585Y014505D01*
X006380Y014155D02*
X006380Y012455D01*
X005573Y012105D02*
X004780Y012105D01*
X004480Y013305D02*
X004482Y013357D01*
X004488Y013409D01*
X004498Y013461D01*
X004511Y013511D01*
X004528Y013561D01*
X004549Y013609D01*
X004574Y013655D01*
X004602Y013699D01*
X004633Y013741D01*
X004667Y013781D01*
X004704Y013818D01*
X004744Y013852D01*
X004786Y013883D01*
X004830Y013911D01*
X004876Y013936D01*
X004924Y013957D01*
X004974Y013974D01*
X005024Y013987D01*
X005076Y013997D01*
X005128Y014003D01*
X005180Y014005D01*
X005232Y014003D01*
X005284Y013997D01*
X005336Y013987D01*
X005386Y013974D01*
X005436Y013957D01*
X005484Y013936D01*
X005530Y013911D01*
X005574Y013883D01*
X005616Y013852D01*
X005656Y013818D01*
X005693Y013781D01*
X005727Y013741D01*
X005758Y013699D01*
X005786Y013655D01*
X005811Y013609D01*
X005832Y013561D01*
X005849Y013511D01*
X005862Y013461D01*
X005872Y013409D01*
X005878Y013357D01*
X005880Y013305D01*
X005878Y013253D01*
X005872Y013201D01*
X005862Y013149D01*
X005849Y013099D01*
X005832Y013049D01*
X005811Y013001D01*
X005786Y012955D01*
X005758Y012911D01*
X005727Y012869D01*
X005693Y012829D01*
X005656Y012792D01*
X005616Y012758D01*
X005574Y012727D01*
X005530Y012699D01*
X005484Y012674D01*
X005436Y012653D01*
X005386Y012636D01*
X005336Y012623D01*
X005284Y012613D01*
X005232Y012607D01*
X005180Y012605D01*
X005128Y012607D01*
X005076Y012613D01*
X005024Y012623D01*
X004974Y012636D01*
X004924Y012653D01*
X004876Y012674D01*
X004830Y012699D01*
X004786Y012727D01*
X004744Y012758D01*
X004704Y012792D01*
X004667Y012829D01*
X004633Y012869D01*
X004602Y012911D01*
X004574Y012955D01*
X004549Y013001D01*
X004528Y013049D01*
X004511Y013099D01*
X004498Y013149D01*
X004488Y013201D01*
X004482Y013253D01*
X004480Y013305D01*
X004680Y016180D02*
X005180Y016180D01*
X005430Y016430D01*
X005680Y016180D01*
X006180Y016180D01*
X006430Y016430D01*
X006680Y016180D01*
X007180Y016180D01*
X007430Y016430D01*
X007680Y016180D01*
X008180Y016180D01*
X008430Y016430D01*
X008430Y016930D01*
X008180Y017180D01*
X007680Y017180D01*
X007430Y016930D01*
X007180Y017180D01*
X006680Y017180D01*
X006430Y016930D01*
X006180Y017180D01*
X005680Y017180D01*
X005430Y016930D01*
X005180Y017180D01*
X004680Y017180D01*
X004430Y016930D01*
X004180Y017180D01*
X003680Y017180D01*
X003430Y016930D01*
X003180Y017180D01*
X002680Y017180D01*
X002430Y016930D01*
X002180Y017180D01*
X001680Y017180D01*
X001430Y016930D01*
X001430Y016430D01*
X001680Y016180D01*
X002180Y016180D01*
X002430Y016430D01*
X002680Y016180D01*
X003180Y016180D01*
X003430Y016430D01*
X003680Y016180D01*
X004180Y016180D01*
X004430Y016430D01*
X004680Y016180D01*
X004680Y018180D02*
X004430Y018430D01*
X004180Y018180D01*
X003680Y018180D01*
X003430Y018430D01*
X003180Y018180D01*
X002680Y018180D01*
X002430Y018430D01*
X002430Y018930D01*
X002680Y019180D01*
X003180Y019180D01*
X003430Y018930D01*
X003680Y019180D01*
X004180Y019180D01*
X004430Y018930D01*
X004680Y019180D01*
X005180Y019180D01*
X005430Y018930D01*
X005680Y019180D01*
X006180Y019180D01*
X006430Y018930D01*
X006680Y019180D01*
X007180Y019180D01*
X007430Y018930D01*
X007680Y019180D01*
X008180Y019180D01*
X008430Y018930D01*
X008430Y018430D01*
X008180Y018180D01*
X007680Y018180D01*
X007430Y018430D01*
X007180Y018180D01*
X006680Y018180D01*
X006430Y018430D01*
X006180Y018180D01*
X005680Y018180D01*
X005430Y018430D01*
X005180Y018180D01*
X004680Y018180D01*
X009430Y016930D02*
X009430Y016430D01*
X009680Y016180D01*
X010180Y016180D01*
X010430Y016430D01*
X010680Y016180D01*
X011180Y016180D01*
X011430Y016430D01*
X011680Y016180D01*
X012180Y016180D01*
X012430Y016430D01*
X012680Y016180D01*
X013180Y016180D01*
X013430Y016430D01*
X013430Y016930D01*
X013180Y017180D01*
X012680Y017180D01*
X012430Y016930D01*
X012180Y017180D01*
X011680Y017180D01*
X011430Y016930D01*
X011180Y017180D01*
X010680Y017180D01*
X010430Y016930D01*
X010180Y017180D01*
X009680Y017180D01*
X009430Y016930D01*
X014430Y016930D02*
X014430Y016430D01*
X014680Y016180D01*
X015180Y016180D01*
X015430Y016430D01*
X015680Y016180D01*
X016180Y016180D01*
X016430Y016430D01*
X016680Y016180D01*
X017180Y016180D01*
X017430Y016430D01*
X017680Y016180D01*
X018180Y016180D01*
X018430Y016430D01*
X018680Y016180D01*
X019180Y016180D01*
X019430Y016430D01*
X019430Y016930D01*
X019180Y017180D01*
X018680Y017180D01*
X018430Y016930D01*
X018180Y017180D01*
X017680Y017180D01*
X017430Y016930D01*
X017180Y017180D01*
X016680Y017180D01*
X016430Y016930D01*
X016180Y017180D01*
X015680Y017180D01*
X015430Y016930D01*
X015180Y017180D01*
X014680Y017180D01*
X014430Y016930D01*
X016580Y010130D02*
X016680Y010130D01*
X016680Y007730D01*
X016580Y007730D01*
X018430Y005180D02*
X018930Y005180D01*
X019180Y004930D01*
X019180Y004430D01*
X018930Y004180D01*
X019180Y003930D01*
X019180Y003430D01*
X018930Y003180D01*
X019180Y002930D01*
X019180Y002430D01*
X018930Y002180D01*
X018430Y002180D01*
X018180Y002430D01*
X018180Y002930D01*
X018430Y003180D01*
X018180Y003430D01*
X018180Y003930D01*
X018430Y004180D01*
X018180Y004430D01*
X018180Y004930D01*
X018430Y005180D01*
D16*
X017930Y007055D02*
X017680Y007305D01*
X017680Y007805D01*
X017930Y008055D01*
X017680Y008305D01*
X017680Y008805D01*
X017930Y009055D01*
X017680Y009305D01*
X017680Y009805D01*
X017930Y010055D01*
X017680Y010305D01*
X017680Y010805D01*
X017930Y011055D01*
X019430Y011055D01*
X019680Y010805D01*
X019680Y010305D01*
X019430Y010055D01*
X019680Y009805D01*
X019680Y009305D01*
X019430Y009055D01*
X019680Y008805D01*
X019680Y008305D01*
X019430Y008055D01*
X019680Y007805D01*
X019680Y007305D01*
X019430Y007055D01*
X017930Y007055D01*
X013505Y003705D02*
X011105Y003705D01*
X011055Y003703D01*
X011006Y003697D01*
X010957Y003688D01*
X010909Y003675D01*
X010862Y003658D01*
X010817Y003638D01*
X010773Y003614D01*
X010731Y003587D01*
X010691Y003556D01*
X010654Y003523D01*
X010620Y003487D01*
X010588Y003449D01*
X010559Y003408D01*
X010534Y003366D01*
X010512Y003321D01*
X010493Y003275D01*
X010478Y003227D01*
X010467Y003179D01*
X010459Y003130D01*
X010455Y003080D01*
X010455Y003030D01*
X010459Y002980D01*
X010467Y002931D01*
X010478Y002883D01*
X010493Y002835D01*
X010512Y002789D01*
X010534Y002744D01*
X010559Y002702D01*
X010588Y002661D01*
X010620Y002623D01*
X010654Y002587D01*
X010691Y002554D01*
X010731Y002523D01*
X010773Y002496D01*
X010817Y002472D01*
X010862Y002452D01*
X010909Y002435D01*
X010957Y002422D01*
X011006Y002413D01*
X011055Y002407D01*
X011105Y002405D01*
X013505Y002405D01*
X013555Y002407D01*
X013604Y002413D01*
X013653Y002422D01*
X013701Y002435D01*
X013748Y002452D01*
X013793Y002472D01*
X013837Y002496D01*
X013879Y002523D01*
X013919Y002554D01*
X013956Y002587D01*
X013990Y002623D01*
X014022Y002661D01*
X014051Y002702D01*
X014076Y002744D01*
X014098Y002789D01*
X014117Y002835D01*
X014132Y002883D01*
X014143Y002931D01*
X014151Y002980D01*
X014155Y003030D01*
X014155Y003080D01*
X014151Y003130D01*
X014143Y003179D01*
X014132Y003227D01*
X014117Y003275D01*
X014098Y003321D01*
X014076Y003366D01*
X014051Y003408D01*
X014022Y003449D01*
X013990Y003487D01*
X013956Y003523D01*
X013919Y003556D01*
X013879Y003587D01*
X013837Y003614D01*
X013793Y003638D01*
X013748Y003658D01*
X013701Y003675D01*
X013653Y003688D01*
X013604Y003697D01*
X013555Y003703D01*
X013505Y003705D01*
X012805Y003055D02*
X012555Y003055D01*
X012555Y002755D01*
X012405Y002755D02*
X012205Y002755D01*
X012205Y003355D01*
X012405Y003355D01*
X012405Y002755D01*
X012055Y002755D02*
X012055Y003055D01*
X011805Y003055D01*
X012055Y003055D02*
X012055Y003355D01*
X012555Y003355D02*
X012555Y003055D01*
X009475Y002280D02*
X009317Y002280D01*
X009255Y002830D02*
X007605Y002830D01*
X007543Y002280D02*
X007385Y002280D01*
X006975Y002280D02*
X006817Y002280D01*
X006755Y002830D02*
X005105Y002830D01*
X005043Y002280D02*
X004885Y002280D01*
X005817Y002280D02*
X006043Y002280D01*
X008317Y002280D02*
X008543Y002280D01*
X007280Y004705D02*
X007280Y004905D01*
X007280Y005155D02*
X007280Y005355D01*
X007180Y005255D02*
X007380Y005255D01*
X005830Y005055D02*
X005832Y005113D01*
X005838Y005171D01*
X005848Y005228D01*
X005862Y005284D01*
X005879Y005340D01*
X005900Y005394D01*
X005925Y005446D01*
X005954Y005497D01*
X005986Y005545D01*
X006021Y005591D01*
X006059Y005635D01*
X006100Y005676D01*
X006144Y005714D01*
X006190Y005749D01*
X006238Y005781D01*
X006289Y005810D01*
X006341Y005835D01*
X006395Y005856D01*
X006451Y005873D01*
X006507Y005887D01*
X006564Y005897D01*
X006622Y005903D01*
X006680Y005905D01*
X006738Y005903D01*
X006796Y005897D01*
X006853Y005887D01*
X006909Y005873D01*
X006965Y005856D01*
X007019Y005835D01*
X007071Y005810D01*
X007122Y005781D01*
X007170Y005749D01*
X007216Y005714D01*
X007260Y005676D01*
X007301Y005635D01*
X007339Y005591D01*
X007374Y005545D01*
X007406Y005497D01*
X007435Y005446D01*
X007460Y005394D01*
X007481Y005340D01*
X007498Y005284D01*
X007512Y005228D01*
X007522Y005171D01*
X007528Y005113D01*
X007530Y005055D01*
X007528Y004997D01*
X007522Y004939D01*
X007512Y004882D01*
X007498Y004826D01*
X007481Y004770D01*
X007460Y004716D01*
X007435Y004664D01*
X007406Y004613D01*
X007374Y004565D01*
X007339Y004519D01*
X007301Y004475D01*
X007260Y004434D01*
X007216Y004396D01*
X007170Y004361D01*
X007122Y004329D01*
X007071Y004300D01*
X007019Y004275D01*
X006965Y004254D01*
X006909Y004237D01*
X006853Y004223D01*
X006796Y004213D01*
X006738Y004207D01*
X006680Y004205D01*
X006622Y004207D01*
X006564Y004213D01*
X006507Y004223D01*
X006451Y004237D01*
X006395Y004254D01*
X006341Y004275D01*
X006289Y004300D01*
X006238Y004329D01*
X006190Y004361D01*
X006144Y004396D01*
X006100Y004434D01*
X006059Y004475D01*
X006021Y004519D01*
X005986Y004565D01*
X005954Y004613D01*
X005925Y004664D01*
X005900Y004716D01*
X005879Y004770D01*
X005862Y004826D01*
X005848Y004882D01*
X005838Y004939D01*
X005832Y004997D01*
X005830Y005055D01*
X005505Y005255D02*
X005305Y005255D01*
X005405Y005355D02*
X005405Y005155D01*
X005405Y004905D02*
X005405Y004705D01*
X003955Y005055D02*
X003957Y005113D01*
X003963Y005171D01*
X003973Y005228D01*
X003987Y005284D01*
X004004Y005340D01*
X004025Y005394D01*
X004050Y005446D01*
X004079Y005497D01*
X004111Y005545D01*
X004146Y005591D01*
X004184Y005635D01*
X004225Y005676D01*
X004269Y005714D01*
X004315Y005749D01*
X004363Y005781D01*
X004414Y005810D01*
X004466Y005835D01*
X004520Y005856D01*
X004576Y005873D01*
X004632Y005887D01*
X004689Y005897D01*
X004747Y005903D01*
X004805Y005905D01*
X004863Y005903D01*
X004921Y005897D01*
X004978Y005887D01*
X005034Y005873D01*
X005090Y005856D01*
X005144Y005835D01*
X005196Y005810D01*
X005247Y005781D01*
X005295Y005749D01*
X005341Y005714D01*
X005385Y005676D01*
X005426Y005635D01*
X005464Y005591D01*
X005499Y005545D01*
X005531Y005497D01*
X005560Y005446D01*
X005585Y005394D01*
X005606Y005340D01*
X005623Y005284D01*
X005637Y005228D01*
X005647Y005171D01*
X005653Y005113D01*
X005655Y005055D01*
X005653Y004997D01*
X005647Y004939D01*
X005637Y004882D01*
X005623Y004826D01*
X005606Y004770D01*
X005585Y004716D01*
X005560Y004664D01*
X005531Y004613D01*
X005499Y004565D01*
X005464Y004519D01*
X005426Y004475D01*
X005385Y004434D01*
X005341Y004396D01*
X005295Y004361D01*
X005247Y004329D01*
X005196Y004300D01*
X005144Y004275D01*
X005090Y004254D01*
X005034Y004237D01*
X004978Y004223D01*
X004921Y004213D01*
X004863Y004207D01*
X004805Y004205D01*
X004747Y004207D01*
X004689Y004213D01*
X004632Y004223D01*
X004576Y004237D01*
X004520Y004254D01*
X004466Y004275D01*
X004414Y004300D01*
X004363Y004329D01*
X004315Y004361D01*
X004269Y004396D01*
X004225Y004434D01*
X004184Y004475D01*
X004146Y004519D01*
X004111Y004565D01*
X004079Y004613D01*
X004050Y004664D01*
X004025Y004716D01*
X004004Y004770D01*
X003987Y004826D01*
X003973Y004882D01*
X003963Y004939D01*
X003957Y004997D01*
X003955Y005055D01*
X003730Y004980D02*
X003430Y004980D01*
X003130Y004980D01*
X003430Y004980D02*
X003730Y005380D01*
X003130Y005380D01*
X003430Y004980D01*
X016530Y002725D02*
X016530Y002567D01*
X017080Y002505D02*
X017080Y000855D01*
X016530Y000793D02*
X016530Y000635D01*
X016530Y001567D02*
X016530Y001793D01*
X017080Y002505D02*
X017029Y002542D01*
X016976Y002577D01*
X016920Y002609D01*
X016863Y002637D01*
X016804Y002661D01*
X016744Y002682D01*
X016683Y002699D01*
X016621Y002713D01*
X016558Y002722D01*
X016495Y002728D01*
X016431Y002730D01*
X016367Y002728D01*
X016304Y002722D01*
X016241Y002713D01*
X016179Y002700D01*
X016118Y002682D01*
X016058Y002662D01*
X015999Y002637D01*
X015942Y002610D01*
X015886Y002578D01*
X015833Y002544D01*
X015782Y002506D01*
X015733Y002465D01*
X015687Y002421D01*
X015643Y002375D01*
X015602Y002326D01*
X015565Y002275D01*
X015530Y002221D01*
X015499Y002166D01*
X015471Y002109D01*
X015447Y002050D01*
X015427Y001990D01*
X015427Y001370D02*
X015447Y001310D01*
X015471Y001251D01*
X015499Y001194D01*
X015530Y001139D01*
X015565Y001085D01*
X015602Y001034D01*
X015643Y000985D01*
X015687Y000939D01*
X015733Y000895D01*
X015782Y000854D01*
X015833Y000816D01*
X015886Y000782D01*
X015942Y000750D01*
X015999Y000723D01*
X016058Y000698D01*
X016118Y000678D01*
X016179Y000660D01*
X016241Y000647D01*
X016304Y000638D01*
X016367Y000632D01*
X016431Y000630D01*
X016495Y000632D01*
X016558Y000638D01*
X016621Y000647D01*
X016683Y000661D01*
X016744Y000678D01*
X016804Y000699D01*
X016863Y000723D01*
X016920Y000751D01*
X016976Y000783D01*
X017029Y000818D01*
X017080Y000855D01*
D17*
X013505Y002205D02*
X011105Y002205D01*
X011048Y002207D01*
X010992Y002213D01*
X010936Y002222D01*
X010880Y002235D01*
X010826Y002252D01*
X010773Y002272D01*
X010722Y002296D01*
X010672Y002324D01*
X010624Y002354D01*
X010578Y002388D01*
X010535Y002425D01*
X010494Y002464D01*
X010456Y002506D01*
X010421Y002551D01*
X010389Y002598D01*
X010360Y002647D01*
X010334Y002697D01*
X010312Y002750D01*
X010293Y002803D01*
X010278Y002858D01*
X010267Y002914D01*
X010259Y002970D01*
X010255Y003027D01*
X010255Y003083D01*
X010259Y003140D01*
X010267Y003196D01*
X010278Y003252D01*
X010293Y003307D01*
X010312Y003360D01*
X010334Y003413D01*
X010360Y003463D01*
X010389Y003512D01*
X010421Y003559D01*
X010456Y003604D01*
X010494Y003646D01*
X010535Y003685D01*
X010578Y003722D01*
X010624Y003756D01*
X010672Y003786D01*
X010722Y003814D01*
X010773Y003838D01*
X010826Y003858D01*
X010880Y003875D01*
X010936Y003888D01*
X010992Y003897D01*
X011048Y003903D01*
X011105Y003905D01*
X013505Y003905D01*
X013562Y003903D01*
X013618Y003897D01*
X013674Y003888D01*
X013730Y003875D01*
X013784Y003858D01*
X013837Y003838D01*
X013888Y003814D01*
X013938Y003786D01*
X013986Y003756D01*
X014032Y003722D01*
X014075Y003685D01*
X014116Y003646D01*
X014154Y003604D01*
X014189Y003559D01*
X014221Y003512D01*
X014250Y003463D01*
X014276Y003413D01*
X014298Y003360D01*
X014317Y003307D01*
X014332Y003252D01*
X014343Y003196D01*
X014351Y003140D01*
X014355Y003083D01*
X014355Y003027D01*
X014351Y002970D01*
X014343Y002914D01*
X014332Y002858D01*
X014317Y002803D01*
X014298Y002750D01*
X014276Y002697D01*
X014250Y002647D01*
X014221Y002598D01*
X014189Y002551D01*
X014154Y002506D01*
X014116Y002464D01*
X014075Y002425D01*
X014032Y002388D01*
X013986Y002354D01*
X013938Y002324D01*
X013888Y002296D01*
X013837Y002272D01*
X013784Y002252D01*
X013730Y002235D01*
X013674Y002222D01*
X013618Y002213D01*
X013562Y002207D01*
X013505Y002205D01*
D18*
X002680Y004180D02*
X002680Y004680D01*
X002180Y004680D01*
X002180Y005680D01*
X002680Y005680D01*
X002680Y004680D01*
X002680Y004180D02*
X000480Y004180D01*
X000480Y006180D01*
X002680Y006180D01*
X002680Y005680D01*
X008985Y018050D02*
X009060Y018125D01*
X009060Y018200D01*
X008985Y018275D01*
X008610Y018275D01*
X008610Y018200D02*
X008610Y018350D01*
X008610Y018510D02*
X008610Y018736D01*
X008685Y018811D01*
X008835Y018811D01*
X008910Y018736D01*
X008910Y018510D01*
X009060Y018510D02*
X008610Y018510D01*
X008610Y018971D02*
X008610Y019271D01*
X008685Y019271D01*
X008985Y018971D01*
X009060Y018971D01*
D19*
X012836Y014925D02*
X012926Y014925D01*
X012925Y014925D02*
X012927Y014871D01*
X012933Y014818D01*
X012943Y014765D01*
X012957Y014713D01*
X012974Y014662D01*
X012995Y014613D01*
X013019Y014565D01*
X013047Y014519D01*
X013078Y014475D01*
X013112Y014433D01*
X013148Y014394D01*
X013188Y014357D01*
X013230Y014324D01*
X013274Y014293D01*
X013320Y014266D01*
X013278Y014187D01*
X013229Y014215D01*
X013183Y014247D01*
X013138Y014282D01*
X013096Y014319D01*
X013056Y014360D01*
X013020Y014403D01*
X012986Y014448D01*
X012955Y014495D01*
X012928Y014545D01*
X012904Y014596D01*
X012883Y014648D01*
X012866Y014702D01*
X012853Y014757D01*
X012843Y014812D01*
X012837Y014869D01*
X012835Y014925D01*
X012844Y014925D01*
X012846Y014869D01*
X012852Y014814D01*
X012862Y014759D01*
X012875Y014704D01*
X012892Y014651D01*
X012912Y014599D01*
X012936Y014549D01*
X012963Y014500D01*
X012993Y014453D01*
X013027Y014408D01*
X013063Y014366D01*
X013102Y014326D01*
X013144Y014289D01*
X013188Y014254D01*
X013234Y014223D01*
X013282Y014195D01*
X013286Y014203D01*
X013239Y014231D01*
X013193Y014262D01*
X013150Y014296D01*
X013108Y014332D01*
X013070Y014372D01*
X013034Y014414D01*
X013001Y014458D01*
X012971Y014504D01*
X012944Y014553D01*
X012921Y014603D01*
X012900Y014654D01*
X012884Y014707D01*
X012871Y014760D01*
X012861Y014815D01*
X012855Y014870D01*
X012853Y014925D01*
X012862Y014925D01*
X012864Y014870D01*
X012870Y014816D01*
X012879Y014762D01*
X012892Y014709D01*
X012909Y014657D01*
X012929Y014606D01*
X012952Y014557D01*
X012979Y014509D01*
X013008Y014463D01*
X013041Y014419D01*
X013076Y014378D01*
X013115Y014339D01*
X013155Y014302D01*
X013198Y014269D01*
X013244Y014238D01*
X013291Y014211D01*
X013295Y014219D01*
X013248Y014246D01*
X013204Y014276D01*
X013161Y014309D01*
X013121Y014345D01*
X013083Y014384D01*
X013048Y014425D01*
X013016Y014468D01*
X012986Y014514D01*
X012960Y014561D01*
X012937Y014610D01*
X012917Y014660D01*
X012901Y014712D01*
X012888Y014764D01*
X012879Y014817D01*
X012873Y014871D01*
X012871Y014925D01*
X012880Y014925D01*
X012882Y014872D01*
X012888Y014819D01*
X012897Y014766D01*
X012910Y014714D01*
X012926Y014663D01*
X012945Y014613D01*
X012968Y014565D01*
X012994Y014518D01*
X013023Y014474D01*
X013055Y014431D01*
X013090Y014390D01*
X013127Y014352D01*
X013167Y014316D01*
X013209Y014283D01*
X013253Y014253D01*
X013299Y014226D01*
X013303Y014234D01*
X013258Y014261D01*
X013214Y014291D01*
X013173Y014323D01*
X013133Y014358D01*
X013096Y014396D01*
X013062Y014436D01*
X013030Y014479D01*
X013002Y014523D01*
X012976Y014569D01*
X012954Y014617D01*
X012934Y014666D01*
X012918Y014716D01*
X012906Y014768D01*
X012897Y014820D01*
X012891Y014872D01*
X012889Y014925D01*
X012898Y014925D01*
X012900Y014869D01*
X012907Y014814D01*
X012917Y014759D01*
X012931Y014705D01*
X012949Y014653D01*
X012970Y014601D01*
X012996Y014552D01*
X013024Y014504D01*
X013056Y014458D01*
X013091Y014415D01*
X013129Y014375D01*
X013170Y014337D01*
X013214Y014302D01*
X013260Y014271D01*
X013308Y014242D01*
X013312Y014250D01*
X013264Y014278D01*
X013219Y014309D01*
X013176Y014344D01*
X013136Y014381D01*
X013098Y014421D01*
X013063Y014464D01*
X013032Y014509D01*
X013003Y014556D01*
X012979Y014605D01*
X012957Y014656D01*
X012940Y014708D01*
X012926Y014761D01*
X012916Y014815D01*
X012909Y014870D01*
X012907Y014925D01*
X012916Y014925D01*
X012918Y014871D01*
X012924Y014817D01*
X012934Y014763D01*
X012948Y014711D01*
X012966Y014659D01*
X012987Y014609D01*
X013011Y014560D01*
X013039Y014514D01*
X013071Y014469D01*
X013105Y014427D01*
X013142Y014388D01*
X013182Y014351D01*
X013224Y014317D01*
X013269Y014286D01*
X013316Y014258D01*
X014103Y014199D02*
X014058Y014277D01*
X014059Y014277D02*
X014103Y014305D01*
X014145Y014336D01*
X014185Y014369D01*
X014223Y014405D01*
X014258Y014444D01*
X014290Y014485D01*
X014320Y014529D01*
X014346Y014574D01*
X014369Y014621D01*
X014389Y014669D01*
X014405Y014719D01*
X014418Y014769D01*
X014427Y014821D01*
X014433Y014873D01*
X014435Y014925D01*
X014524Y014926D01*
X014525Y014925D01*
X014523Y014870D01*
X014517Y014816D01*
X014508Y014761D01*
X014495Y014708D01*
X014479Y014656D01*
X014460Y014604D01*
X014437Y014554D01*
X014411Y014506D01*
X014382Y014459D01*
X014350Y014415D01*
X014315Y014372D01*
X014277Y014332D01*
X014237Y014295D01*
X014195Y014260D01*
X014150Y014228D01*
X014104Y014199D01*
X014099Y014207D01*
X014145Y014235D01*
X014189Y014267D01*
X014231Y014302D01*
X014271Y014339D01*
X014308Y014378D01*
X014343Y014420D01*
X014374Y014464D01*
X014403Y014510D01*
X014429Y014558D01*
X014451Y014608D01*
X014471Y014658D01*
X014487Y014710D01*
X014499Y014763D01*
X014508Y014817D01*
X014514Y014871D01*
X014516Y014925D01*
X014507Y014925D01*
X014505Y014871D01*
X014499Y014818D01*
X014490Y014765D01*
X014478Y014713D01*
X014462Y014661D01*
X014443Y014611D01*
X014421Y014562D01*
X014395Y014515D01*
X014367Y014469D01*
X014335Y014426D01*
X014301Y014384D01*
X014265Y014345D01*
X014225Y014308D01*
X014184Y014274D01*
X014140Y014243D01*
X014095Y014214D01*
X014090Y014222D01*
X014138Y014252D01*
X014184Y014286D01*
X014227Y014322D01*
X014268Y014362D01*
X014306Y014404D01*
X014341Y014448D01*
X014373Y014495D01*
X014401Y014544D01*
X014426Y014595D01*
X014448Y014648D01*
X014465Y014701D01*
X014479Y014756D01*
X014489Y014812D01*
X014496Y014868D01*
X014498Y014925D01*
X014489Y014925D01*
X014487Y014869D01*
X014481Y014813D01*
X014471Y014758D01*
X014457Y014704D01*
X014439Y014651D01*
X014418Y014599D01*
X014393Y014548D01*
X014365Y014500D01*
X014334Y014454D01*
X014299Y014409D01*
X014262Y014368D01*
X014221Y014329D01*
X014179Y014293D01*
X014133Y014260D01*
X014086Y014230D01*
X014081Y014238D01*
X014128Y014267D01*
X014173Y014300D01*
X014215Y014336D01*
X014255Y014374D01*
X014292Y014415D01*
X014327Y014459D01*
X014358Y014505D01*
X014385Y014553D01*
X014410Y014602D01*
X014431Y014654D01*
X014448Y014706D01*
X014462Y014760D01*
X014472Y014815D01*
X014478Y014870D01*
X014480Y014925D01*
X014471Y014925D01*
X014469Y014870D01*
X014463Y014816D01*
X014453Y014762D01*
X014439Y014709D01*
X014422Y014657D01*
X014402Y014606D01*
X014377Y014557D01*
X014350Y014510D01*
X014319Y014464D01*
X014286Y014421D01*
X014249Y014380D01*
X014209Y014342D01*
X014167Y014307D01*
X014123Y014275D01*
X014077Y014246D01*
X014072Y014254D01*
X014118Y014282D01*
X014162Y014314D01*
X014203Y014349D01*
X014242Y014387D01*
X014279Y014427D01*
X014312Y014469D01*
X014342Y014514D01*
X014370Y014561D01*
X014393Y014610D01*
X014414Y014660D01*
X014431Y014711D01*
X014444Y014764D01*
X014454Y014817D01*
X014460Y014871D01*
X014462Y014925D01*
X014453Y014925D01*
X014451Y014872D01*
X014445Y014818D01*
X014435Y014766D01*
X014422Y014714D01*
X014405Y014663D01*
X014385Y014613D01*
X014362Y014565D01*
X014335Y014519D01*
X014305Y014475D01*
X014272Y014433D01*
X014236Y014393D01*
X014197Y014356D01*
X014156Y014321D01*
X014113Y014290D01*
X014068Y014261D01*
X014063Y014269D01*
X014108Y014297D01*
X014151Y014328D01*
X014191Y014362D01*
X014229Y014399D01*
X014265Y014438D01*
X014297Y014480D01*
X014327Y014524D01*
X014354Y014570D01*
X014377Y014617D01*
X014397Y014666D01*
X014414Y014716D01*
X014427Y014768D01*
X014436Y014820D01*
X014442Y014872D01*
X014444Y014925D01*
X014524Y014934D02*
X014434Y014934D01*
X014435Y014935D02*
X014433Y014989D01*
X014427Y015042D01*
X014417Y015095D01*
X014403Y015147D01*
X014386Y015198D01*
X014365Y015248D01*
X014341Y015296D01*
X014313Y015342D01*
X014282Y015386D01*
X014248Y015427D01*
X014211Y015467D01*
X014172Y015503D01*
X014229Y015571D01*
X014230Y015572D01*
X014271Y015534D01*
X014309Y015494D01*
X014345Y015451D01*
X014378Y015406D01*
X014408Y015359D01*
X014434Y015311D01*
X014458Y015260D01*
X014478Y015208D01*
X014494Y015155D01*
X014508Y015101D01*
X014517Y015046D01*
X014523Y014991D01*
X014525Y014935D01*
X014516Y014935D01*
X014514Y014990D01*
X014508Y015045D01*
X014499Y015099D01*
X014486Y015153D01*
X014469Y015205D01*
X014450Y015257D01*
X014426Y015307D01*
X014400Y015355D01*
X014370Y015401D01*
X014338Y015446D01*
X014303Y015488D01*
X014264Y015528D01*
X014224Y015565D01*
X014218Y015558D01*
X014258Y015521D01*
X014296Y015482D01*
X014331Y015440D01*
X014363Y015396D01*
X014392Y015350D01*
X014418Y015302D01*
X014441Y015253D01*
X014461Y015202D01*
X014477Y015150D01*
X014490Y015097D01*
X014499Y015044D01*
X014505Y014989D01*
X014507Y014935D01*
X014498Y014935D01*
X014496Y014989D01*
X014490Y015042D01*
X014481Y015095D01*
X014468Y015148D01*
X014452Y015199D01*
X014433Y015250D01*
X014410Y015298D01*
X014385Y015346D01*
X014356Y015391D01*
X014324Y015435D01*
X014289Y015476D01*
X014252Y015515D01*
X014212Y015551D01*
X014206Y015544D01*
X014246Y015508D01*
X014283Y015470D01*
X014317Y015429D01*
X014348Y015386D01*
X014377Y015341D01*
X014402Y015294D01*
X014425Y015246D01*
X014444Y015196D01*
X014460Y015145D01*
X014472Y015094D01*
X014481Y015041D01*
X014487Y014988D01*
X014489Y014935D01*
X014480Y014935D01*
X014478Y014988D01*
X014472Y015040D01*
X014463Y015092D01*
X014451Y015143D01*
X014435Y015193D01*
X014416Y015243D01*
X014394Y015290D01*
X014369Y015337D01*
X014341Y015381D01*
X014310Y015423D01*
X014276Y015464D01*
X014239Y015502D01*
X014201Y015537D01*
X014195Y015531D01*
X014233Y015495D01*
X014269Y015458D01*
X014303Y015418D01*
X014333Y015376D01*
X014361Y015332D01*
X014386Y015286D01*
X014408Y015239D01*
X014427Y015190D01*
X014442Y015141D01*
X014455Y015090D01*
X014463Y015039D01*
X014469Y014987D01*
X014471Y014935D01*
X014462Y014935D01*
X014460Y014991D01*
X014453Y015046D01*
X014443Y015101D01*
X014429Y015155D01*
X014411Y015208D01*
X014389Y015259D01*
X014364Y015309D01*
X014335Y015357D01*
X014303Y015402D01*
X014268Y015445D01*
X014230Y015486D01*
X014189Y015524D01*
X014183Y015517D01*
X014224Y015480D01*
X014261Y015439D01*
X014296Y015397D01*
X014328Y015352D01*
X014356Y015304D01*
X014381Y015255D01*
X014403Y015204D01*
X014420Y015152D01*
X014434Y015099D01*
X014444Y015045D01*
X014451Y014990D01*
X014453Y014935D01*
X014444Y014935D01*
X014442Y014989D01*
X014436Y015043D01*
X014426Y015097D01*
X014412Y015150D01*
X014394Y015201D01*
X014373Y015251D01*
X014348Y015300D01*
X014320Y015347D01*
X014289Y015391D01*
X014255Y015433D01*
X014217Y015473D01*
X014177Y015510D01*
X013136Y015575D02*
X013193Y015506D01*
X013193Y015507D02*
X013153Y015470D01*
X013115Y015431D01*
X013081Y015389D01*
X013049Y015345D01*
X013021Y015299D01*
X012996Y015250D01*
X012975Y015200D01*
X012957Y015149D01*
X012944Y015096D01*
X012934Y015043D01*
X012927Y014989D01*
X012925Y014935D01*
X012836Y014934D01*
X012835Y014935D01*
X012837Y014991D01*
X012843Y015047D01*
X012853Y015102D01*
X012866Y015157D01*
X012883Y015210D01*
X012903Y015263D01*
X012927Y015314D01*
X012954Y015363D01*
X012985Y015410D01*
X013018Y015455D01*
X013054Y015498D01*
X013093Y015538D01*
X013135Y015576D01*
X013141Y015569D01*
X013100Y015532D01*
X013061Y015492D01*
X013025Y015450D01*
X012992Y015405D01*
X012962Y015358D01*
X012935Y015310D01*
X012912Y015259D01*
X012891Y015207D01*
X012875Y015154D01*
X012862Y015100D01*
X012852Y015046D01*
X012846Y014991D01*
X012844Y014935D01*
X012853Y014935D01*
X012855Y014990D01*
X012861Y015045D01*
X012870Y015099D01*
X012883Y015152D01*
X012900Y015204D01*
X012920Y015256D01*
X012943Y015305D01*
X012970Y015354D01*
X012999Y015400D01*
X013032Y015444D01*
X013068Y015486D01*
X013106Y015525D01*
X013147Y015562D01*
X013152Y015555D01*
X013112Y015519D01*
X013074Y015480D01*
X013039Y015438D01*
X013007Y015395D01*
X012977Y015349D01*
X012951Y015301D01*
X012928Y015252D01*
X012908Y015202D01*
X012892Y015150D01*
X012879Y015097D01*
X012870Y015043D01*
X012864Y014989D01*
X012862Y014935D01*
X012871Y014935D01*
X012873Y014989D01*
X012879Y015042D01*
X012888Y015095D01*
X012901Y015147D01*
X012917Y015199D01*
X012936Y015249D01*
X012959Y015297D01*
X012985Y015344D01*
X013014Y015390D01*
X013046Y015433D01*
X013081Y015474D01*
X013118Y015512D01*
X013158Y015548D01*
X013164Y015541D01*
X013125Y015506D01*
X013088Y015468D01*
X013053Y015427D01*
X013022Y015384D01*
X012993Y015340D01*
X012967Y015293D01*
X012945Y015245D01*
X012925Y015196D01*
X012909Y015145D01*
X012897Y015093D01*
X012888Y015041D01*
X012882Y014988D01*
X012880Y014935D01*
X012889Y014935D01*
X012891Y014987D01*
X012897Y015040D01*
X012906Y015091D01*
X012918Y015142D01*
X012934Y015193D01*
X012953Y015242D01*
X012975Y015289D01*
X013001Y015335D01*
X013029Y015379D01*
X013060Y015421D01*
X013094Y015462D01*
X013131Y015499D01*
X013170Y015534D01*
X013176Y015528D01*
X013137Y015493D01*
X013101Y015455D01*
X013067Y015416D01*
X013036Y015374D01*
X013008Y015330D01*
X012983Y015285D01*
X012961Y015238D01*
X012942Y015190D01*
X012927Y015140D01*
X012914Y015090D01*
X012906Y015038D01*
X012900Y014987D01*
X012898Y014935D01*
X012907Y014935D01*
X012909Y014986D01*
X012914Y015037D01*
X012923Y015088D01*
X012935Y015138D01*
X012951Y015187D01*
X012969Y015234D01*
X012991Y015281D01*
X013016Y015326D01*
X013044Y015369D01*
X013074Y015410D01*
X013107Y015449D01*
X013143Y015486D01*
X013181Y015521D01*
X013187Y015514D01*
X013146Y015477D01*
X013108Y015437D01*
X013074Y015395D01*
X013042Y015350D01*
X013013Y015303D01*
X012988Y015254D01*
X012967Y015203D01*
X012949Y015152D01*
X012935Y015098D01*
X012925Y015044D01*
X012918Y014990D01*
X012916Y014935D01*
X015853Y014199D02*
X015808Y014277D01*
X015809Y014277D02*
X015853Y014305D01*
X015895Y014336D01*
X015935Y014369D01*
X015973Y014405D01*
X016008Y014444D01*
X016040Y014485D01*
X016070Y014529D01*
X016096Y014574D01*
X016119Y014621D01*
X016139Y014669D01*
X016155Y014719D01*
X016168Y014769D01*
X016177Y014821D01*
X016183Y014873D01*
X016185Y014925D01*
X016274Y014926D01*
X016275Y014925D01*
X016273Y014870D01*
X016267Y014816D01*
X016258Y014761D01*
X016245Y014708D01*
X016229Y014656D01*
X016210Y014604D01*
X016187Y014554D01*
X016161Y014506D01*
X016132Y014459D01*
X016100Y014415D01*
X016065Y014372D01*
X016027Y014332D01*
X015987Y014295D01*
X015945Y014260D01*
X015900Y014228D01*
X015854Y014199D01*
X015849Y014207D01*
X015895Y014235D01*
X015939Y014267D01*
X015981Y014302D01*
X016021Y014339D01*
X016058Y014378D01*
X016093Y014420D01*
X016124Y014464D01*
X016153Y014510D01*
X016179Y014558D01*
X016201Y014608D01*
X016221Y014658D01*
X016237Y014710D01*
X016249Y014763D01*
X016258Y014817D01*
X016264Y014871D01*
X016266Y014925D01*
X016257Y014925D01*
X016255Y014871D01*
X016249Y014818D01*
X016240Y014765D01*
X016228Y014713D01*
X016212Y014661D01*
X016193Y014611D01*
X016171Y014562D01*
X016145Y014515D01*
X016117Y014469D01*
X016085Y014426D01*
X016051Y014384D01*
X016015Y014345D01*
X015975Y014308D01*
X015934Y014274D01*
X015890Y014243D01*
X015845Y014214D01*
X015840Y014222D01*
X015888Y014252D01*
X015934Y014286D01*
X015977Y014322D01*
X016018Y014362D01*
X016056Y014404D01*
X016091Y014448D01*
X016123Y014495D01*
X016151Y014544D01*
X016176Y014595D01*
X016198Y014648D01*
X016215Y014701D01*
X016229Y014756D01*
X016239Y014812D01*
X016246Y014868D01*
X016248Y014925D01*
X016239Y014925D01*
X016237Y014869D01*
X016231Y014813D01*
X016221Y014758D01*
X016207Y014704D01*
X016189Y014651D01*
X016168Y014599D01*
X016143Y014548D01*
X016115Y014500D01*
X016084Y014454D01*
X016049Y014409D01*
X016012Y014368D01*
X015971Y014329D01*
X015929Y014293D01*
X015883Y014260D01*
X015836Y014230D01*
X015831Y014238D01*
X015878Y014267D01*
X015923Y014300D01*
X015965Y014336D01*
X016005Y014374D01*
X016042Y014415D01*
X016077Y014459D01*
X016108Y014505D01*
X016135Y014553D01*
X016160Y014602D01*
X016181Y014654D01*
X016198Y014706D01*
X016212Y014760D01*
X016222Y014815D01*
X016228Y014870D01*
X016230Y014925D01*
X016221Y014925D01*
X016219Y014870D01*
X016213Y014816D01*
X016203Y014762D01*
X016189Y014709D01*
X016172Y014657D01*
X016152Y014606D01*
X016127Y014557D01*
X016100Y014510D01*
X016069Y014464D01*
X016036Y014421D01*
X015999Y014380D01*
X015959Y014342D01*
X015917Y014307D01*
X015873Y014275D01*
X015827Y014246D01*
X015822Y014254D01*
X015868Y014282D01*
X015912Y014314D01*
X015953Y014349D01*
X015992Y014387D01*
X016029Y014427D01*
X016062Y014469D01*
X016092Y014514D01*
X016120Y014561D01*
X016143Y014610D01*
X016164Y014660D01*
X016181Y014711D01*
X016194Y014764D01*
X016204Y014817D01*
X016210Y014871D01*
X016212Y014925D01*
X016203Y014925D01*
X016201Y014872D01*
X016195Y014818D01*
X016185Y014766D01*
X016172Y014714D01*
X016155Y014663D01*
X016135Y014613D01*
X016112Y014565D01*
X016085Y014519D01*
X016055Y014475D01*
X016022Y014433D01*
X015986Y014393D01*
X015947Y014356D01*
X015906Y014321D01*
X015863Y014290D01*
X015818Y014261D01*
X015813Y014269D01*
X015858Y014297D01*
X015901Y014328D01*
X015941Y014362D01*
X015979Y014399D01*
X016015Y014438D01*
X016047Y014480D01*
X016077Y014524D01*
X016104Y014570D01*
X016127Y014617D01*
X016147Y014666D01*
X016164Y014716D01*
X016177Y014768D01*
X016186Y014820D01*
X016192Y014872D01*
X016194Y014925D01*
X014586Y014925D02*
X014676Y014925D01*
X014675Y014925D02*
X014677Y014871D01*
X014683Y014818D01*
X014693Y014765D01*
X014707Y014713D01*
X014724Y014662D01*
X014745Y014613D01*
X014769Y014565D01*
X014797Y014519D01*
X014828Y014475D01*
X014862Y014433D01*
X014898Y014394D01*
X014938Y014357D01*
X014980Y014324D01*
X015024Y014293D01*
X015070Y014266D01*
X015028Y014187D01*
X014979Y014215D01*
X014933Y014247D01*
X014888Y014282D01*
X014846Y014319D01*
X014806Y014360D01*
X014770Y014403D01*
X014736Y014448D01*
X014705Y014495D01*
X014678Y014545D01*
X014654Y014596D01*
X014633Y014648D01*
X014616Y014702D01*
X014603Y014757D01*
X014593Y014812D01*
X014587Y014869D01*
X014585Y014925D01*
X014594Y014925D01*
X014596Y014869D01*
X014602Y014814D01*
X014612Y014759D01*
X014625Y014704D01*
X014642Y014651D01*
X014662Y014599D01*
X014686Y014549D01*
X014713Y014500D01*
X014743Y014453D01*
X014777Y014408D01*
X014813Y014366D01*
X014852Y014326D01*
X014894Y014289D01*
X014938Y014254D01*
X014984Y014223D01*
X015032Y014195D01*
X015036Y014203D01*
X014989Y014231D01*
X014943Y014262D01*
X014900Y014296D01*
X014858Y014332D01*
X014820Y014372D01*
X014784Y014414D01*
X014751Y014458D01*
X014721Y014504D01*
X014694Y014553D01*
X014671Y014603D01*
X014650Y014654D01*
X014634Y014707D01*
X014621Y014760D01*
X014611Y014815D01*
X014605Y014870D01*
X014603Y014925D01*
X014612Y014925D01*
X014614Y014870D01*
X014620Y014816D01*
X014629Y014762D01*
X014642Y014709D01*
X014659Y014657D01*
X014679Y014606D01*
X014702Y014557D01*
X014729Y014509D01*
X014758Y014463D01*
X014791Y014419D01*
X014826Y014378D01*
X014865Y014339D01*
X014905Y014302D01*
X014948Y014269D01*
X014994Y014238D01*
X015041Y014211D01*
X015045Y014219D01*
X014998Y014246D01*
X014954Y014276D01*
X014911Y014309D01*
X014871Y014345D01*
X014833Y014384D01*
X014798Y014425D01*
X014766Y014468D01*
X014736Y014514D01*
X014710Y014561D01*
X014687Y014610D01*
X014667Y014660D01*
X014651Y014712D01*
X014638Y014764D01*
X014629Y014817D01*
X014623Y014871D01*
X014621Y014925D01*
X014630Y014925D01*
X014632Y014872D01*
X014638Y014819D01*
X014647Y014766D01*
X014660Y014714D01*
X014676Y014663D01*
X014695Y014613D01*
X014718Y014565D01*
X014744Y014518D01*
X014773Y014474D01*
X014805Y014431D01*
X014840Y014390D01*
X014877Y014352D01*
X014917Y014316D01*
X014959Y014283D01*
X015003Y014253D01*
X015049Y014226D01*
X015053Y014234D01*
X015008Y014261D01*
X014964Y014291D01*
X014923Y014323D01*
X014883Y014358D01*
X014846Y014396D01*
X014812Y014436D01*
X014780Y014479D01*
X014752Y014523D01*
X014726Y014569D01*
X014704Y014617D01*
X014684Y014666D01*
X014668Y014716D01*
X014656Y014768D01*
X014647Y014820D01*
X014641Y014872D01*
X014639Y014925D01*
X014648Y014925D01*
X014650Y014869D01*
X014657Y014814D01*
X014667Y014759D01*
X014681Y014705D01*
X014699Y014653D01*
X014720Y014601D01*
X014746Y014552D01*
X014774Y014504D01*
X014806Y014458D01*
X014841Y014415D01*
X014879Y014375D01*
X014920Y014337D01*
X014964Y014302D01*
X015010Y014271D01*
X015058Y014242D01*
X015062Y014250D01*
X015014Y014278D01*
X014969Y014309D01*
X014926Y014344D01*
X014886Y014381D01*
X014848Y014421D01*
X014813Y014464D01*
X014782Y014509D01*
X014753Y014556D01*
X014729Y014605D01*
X014707Y014656D01*
X014690Y014708D01*
X014676Y014761D01*
X014666Y014815D01*
X014659Y014870D01*
X014657Y014925D01*
X014666Y014925D01*
X014668Y014871D01*
X014674Y014817D01*
X014684Y014763D01*
X014698Y014711D01*
X014716Y014659D01*
X014737Y014609D01*
X014761Y014560D01*
X014789Y014514D01*
X014821Y014469D01*
X014855Y014427D01*
X014892Y014388D01*
X014932Y014351D01*
X014974Y014317D01*
X015019Y014286D01*
X015066Y014258D01*
X014886Y015575D02*
X014943Y015506D01*
X014943Y015507D02*
X014903Y015470D01*
X014865Y015431D01*
X014831Y015389D01*
X014799Y015345D01*
X014771Y015299D01*
X014746Y015250D01*
X014725Y015200D01*
X014707Y015149D01*
X014694Y015096D01*
X014684Y015043D01*
X014677Y014989D01*
X014675Y014935D01*
X014586Y014934D01*
X014585Y014935D01*
X014587Y014991D01*
X014593Y015047D01*
X014603Y015102D01*
X014616Y015157D01*
X014633Y015210D01*
X014653Y015263D01*
X014677Y015314D01*
X014704Y015363D01*
X014735Y015410D01*
X014768Y015455D01*
X014804Y015498D01*
X014843Y015538D01*
X014885Y015576D01*
X014891Y015569D01*
X014850Y015532D01*
X014811Y015492D01*
X014775Y015450D01*
X014742Y015405D01*
X014712Y015358D01*
X014685Y015310D01*
X014662Y015259D01*
X014641Y015207D01*
X014625Y015154D01*
X014612Y015100D01*
X014602Y015046D01*
X014596Y014991D01*
X014594Y014935D01*
X014603Y014935D01*
X014605Y014990D01*
X014611Y015045D01*
X014620Y015099D01*
X014633Y015152D01*
X014650Y015204D01*
X014670Y015256D01*
X014693Y015305D01*
X014720Y015354D01*
X014749Y015400D01*
X014782Y015444D01*
X014818Y015486D01*
X014856Y015525D01*
X014897Y015562D01*
X014902Y015555D01*
X014862Y015519D01*
X014824Y015480D01*
X014789Y015438D01*
X014757Y015395D01*
X014727Y015349D01*
X014701Y015301D01*
X014678Y015252D01*
X014658Y015202D01*
X014642Y015150D01*
X014629Y015097D01*
X014620Y015043D01*
X014614Y014989D01*
X014612Y014935D01*
X014621Y014935D01*
X014623Y014989D01*
X014629Y015042D01*
X014638Y015095D01*
X014651Y015147D01*
X014667Y015199D01*
X014686Y015249D01*
X014709Y015297D01*
X014735Y015344D01*
X014764Y015390D01*
X014796Y015433D01*
X014831Y015474D01*
X014868Y015512D01*
X014908Y015548D01*
X014914Y015541D01*
X014875Y015506D01*
X014838Y015468D01*
X014803Y015427D01*
X014772Y015384D01*
X014743Y015340D01*
X014717Y015293D01*
X014695Y015245D01*
X014675Y015196D01*
X014659Y015145D01*
X014647Y015093D01*
X014638Y015041D01*
X014632Y014988D01*
X014630Y014935D01*
X014639Y014935D01*
X014641Y014987D01*
X014647Y015040D01*
X014656Y015091D01*
X014668Y015142D01*
X014684Y015193D01*
X014703Y015242D01*
X014725Y015289D01*
X014751Y015335D01*
X014779Y015379D01*
X014810Y015421D01*
X014844Y015462D01*
X014881Y015499D01*
X014920Y015534D01*
X014926Y015528D01*
X014887Y015493D01*
X014851Y015455D01*
X014817Y015416D01*
X014786Y015374D01*
X014758Y015330D01*
X014733Y015285D01*
X014711Y015238D01*
X014692Y015190D01*
X014677Y015140D01*
X014664Y015090D01*
X014656Y015038D01*
X014650Y014987D01*
X014648Y014935D01*
X014657Y014935D01*
X014659Y014986D01*
X014664Y015037D01*
X014673Y015088D01*
X014685Y015138D01*
X014701Y015187D01*
X014719Y015234D01*
X014741Y015281D01*
X014766Y015326D01*
X014794Y015369D01*
X014824Y015410D01*
X014857Y015449D01*
X014893Y015486D01*
X014931Y015521D01*
X014937Y015514D01*
X014896Y015477D01*
X014858Y015437D01*
X014824Y015395D01*
X014792Y015350D01*
X014763Y015303D01*
X014738Y015254D01*
X014717Y015203D01*
X014699Y015152D01*
X014685Y015098D01*
X014675Y015044D01*
X014668Y014990D01*
X014666Y014935D01*
X016274Y014934D02*
X016184Y014934D01*
X016185Y014935D02*
X016183Y014989D01*
X016177Y015042D01*
X016167Y015095D01*
X016153Y015147D01*
X016136Y015198D01*
X016115Y015248D01*
X016091Y015296D01*
X016063Y015342D01*
X016032Y015386D01*
X015998Y015427D01*
X015961Y015467D01*
X015922Y015503D01*
X015979Y015571D01*
X015980Y015572D01*
X016021Y015534D01*
X016059Y015494D01*
X016095Y015451D01*
X016128Y015406D01*
X016158Y015359D01*
X016184Y015311D01*
X016208Y015260D01*
X016228Y015208D01*
X016244Y015155D01*
X016258Y015101D01*
X016267Y015046D01*
X016273Y014991D01*
X016275Y014935D01*
X016266Y014935D01*
X016264Y014990D01*
X016258Y015045D01*
X016249Y015099D01*
X016236Y015153D01*
X016219Y015205D01*
X016200Y015257D01*
X016176Y015307D01*
X016150Y015355D01*
X016120Y015401D01*
X016088Y015446D01*
X016053Y015488D01*
X016014Y015528D01*
X015974Y015565D01*
X015968Y015558D01*
X016008Y015521D01*
X016046Y015482D01*
X016081Y015440D01*
X016113Y015396D01*
X016142Y015350D01*
X016168Y015302D01*
X016191Y015253D01*
X016211Y015202D01*
X016227Y015150D01*
X016240Y015097D01*
X016249Y015044D01*
X016255Y014989D01*
X016257Y014935D01*
X016248Y014935D01*
X016246Y014989D01*
X016240Y015042D01*
X016231Y015095D01*
X016218Y015148D01*
X016202Y015199D01*
X016183Y015250D01*
X016160Y015298D01*
X016135Y015346D01*
X016106Y015391D01*
X016074Y015435D01*
X016039Y015476D01*
X016002Y015515D01*
X015962Y015551D01*
X015956Y015544D01*
X015996Y015508D01*
X016033Y015470D01*
X016067Y015429D01*
X016098Y015386D01*
X016127Y015341D01*
X016152Y015294D01*
X016175Y015246D01*
X016194Y015196D01*
X016210Y015145D01*
X016222Y015094D01*
X016231Y015041D01*
X016237Y014988D01*
X016239Y014935D01*
X016230Y014935D01*
X016228Y014988D01*
X016222Y015040D01*
X016213Y015092D01*
X016201Y015143D01*
X016185Y015193D01*
X016166Y015243D01*
X016144Y015290D01*
X016119Y015337D01*
X016091Y015381D01*
X016060Y015423D01*
X016026Y015464D01*
X015989Y015502D01*
X015951Y015537D01*
X015945Y015531D01*
X015983Y015495D01*
X016019Y015458D01*
X016053Y015418D01*
X016083Y015376D01*
X016111Y015332D01*
X016136Y015286D01*
X016158Y015239D01*
X016177Y015190D01*
X016192Y015141D01*
X016205Y015090D01*
X016213Y015039D01*
X016219Y014987D01*
X016221Y014935D01*
X016212Y014935D01*
X016210Y014991D01*
X016203Y015046D01*
X016193Y015101D01*
X016179Y015155D01*
X016161Y015208D01*
X016139Y015259D01*
X016114Y015309D01*
X016085Y015357D01*
X016053Y015402D01*
X016018Y015445D01*
X015980Y015486D01*
X015939Y015524D01*
X015933Y015517D01*
X015974Y015480D01*
X016011Y015439D01*
X016046Y015397D01*
X016078Y015352D01*
X016106Y015304D01*
X016131Y015255D01*
X016153Y015204D01*
X016170Y015152D01*
X016184Y015099D01*
X016194Y015045D01*
X016201Y014990D01*
X016203Y014935D01*
X016194Y014935D01*
X016192Y014989D01*
X016186Y015043D01*
X016176Y015097D01*
X016162Y015150D01*
X016144Y015201D01*
X016123Y015251D01*
X016098Y015300D01*
X016070Y015347D01*
X016039Y015391D01*
X016005Y015433D01*
X015967Y015473D01*
X015927Y015510D01*
X016336Y014925D02*
X016426Y014925D01*
X016425Y014925D02*
X016427Y014871D01*
X016433Y014818D01*
X016443Y014765D01*
X016457Y014713D01*
X016474Y014662D01*
X016495Y014613D01*
X016519Y014565D01*
X016547Y014519D01*
X016578Y014475D01*
X016612Y014433D01*
X016648Y014394D01*
X016688Y014357D01*
X016730Y014324D01*
X016774Y014293D01*
X016820Y014266D01*
X016778Y014187D01*
X016729Y014215D01*
X016683Y014247D01*
X016638Y014282D01*
X016596Y014319D01*
X016556Y014360D01*
X016520Y014403D01*
X016486Y014448D01*
X016455Y014495D01*
X016428Y014545D01*
X016404Y014596D01*
X016383Y014648D01*
X016366Y014702D01*
X016353Y014757D01*
X016343Y014812D01*
X016337Y014869D01*
X016335Y014925D01*
X016344Y014925D01*
X016346Y014869D01*
X016352Y014814D01*
X016362Y014759D01*
X016375Y014704D01*
X016392Y014651D01*
X016412Y014599D01*
X016436Y014549D01*
X016463Y014500D01*
X016493Y014453D01*
X016527Y014408D01*
X016563Y014366D01*
X016602Y014326D01*
X016644Y014289D01*
X016688Y014254D01*
X016734Y014223D01*
X016782Y014195D01*
X016786Y014203D01*
X016739Y014231D01*
X016693Y014262D01*
X016650Y014296D01*
X016608Y014332D01*
X016570Y014372D01*
X016534Y014414D01*
X016501Y014458D01*
X016471Y014504D01*
X016444Y014553D01*
X016421Y014603D01*
X016400Y014654D01*
X016384Y014707D01*
X016371Y014760D01*
X016361Y014815D01*
X016355Y014870D01*
X016353Y014925D01*
X016362Y014925D01*
X016364Y014870D01*
X016370Y014816D01*
X016379Y014762D01*
X016392Y014709D01*
X016409Y014657D01*
X016429Y014606D01*
X016452Y014557D01*
X016479Y014509D01*
X016508Y014463D01*
X016541Y014419D01*
X016576Y014378D01*
X016615Y014339D01*
X016655Y014302D01*
X016698Y014269D01*
X016744Y014238D01*
X016791Y014211D01*
X016795Y014219D01*
X016748Y014246D01*
X016704Y014276D01*
X016661Y014309D01*
X016621Y014345D01*
X016583Y014384D01*
X016548Y014425D01*
X016516Y014468D01*
X016486Y014514D01*
X016460Y014561D01*
X016437Y014610D01*
X016417Y014660D01*
X016401Y014712D01*
X016388Y014764D01*
X016379Y014817D01*
X016373Y014871D01*
X016371Y014925D01*
X016380Y014925D01*
X016382Y014872D01*
X016388Y014819D01*
X016397Y014766D01*
X016410Y014714D01*
X016426Y014663D01*
X016445Y014613D01*
X016468Y014565D01*
X016494Y014518D01*
X016523Y014474D01*
X016555Y014431D01*
X016590Y014390D01*
X016627Y014352D01*
X016667Y014316D01*
X016709Y014283D01*
X016753Y014253D01*
X016799Y014226D01*
X016803Y014234D01*
X016758Y014261D01*
X016714Y014291D01*
X016673Y014323D01*
X016633Y014358D01*
X016596Y014396D01*
X016562Y014436D01*
X016530Y014479D01*
X016502Y014523D01*
X016476Y014569D01*
X016454Y014617D01*
X016434Y014666D01*
X016418Y014716D01*
X016406Y014768D01*
X016397Y014820D01*
X016391Y014872D01*
X016389Y014925D01*
X016398Y014925D01*
X016400Y014869D01*
X016407Y014814D01*
X016417Y014759D01*
X016431Y014705D01*
X016449Y014653D01*
X016470Y014601D01*
X016496Y014552D01*
X016524Y014504D01*
X016556Y014458D01*
X016591Y014415D01*
X016629Y014375D01*
X016670Y014337D01*
X016714Y014302D01*
X016760Y014271D01*
X016808Y014242D01*
X016812Y014250D01*
X016764Y014278D01*
X016719Y014309D01*
X016676Y014344D01*
X016636Y014381D01*
X016598Y014421D01*
X016563Y014464D01*
X016532Y014509D01*
X016503Y014556D01*
X016479Y014605D01*
X016457Y014656D01*
X016440Y014708D01*
X016426Y014761D01*
X016416Y014815D01*
X016409Y014870D01*
X016407Y014925D01*
X016416Y014925D01*
X016418Y014871D01*
X016424Y014817D01*
X016434Y014763D01*
X016448Y014711D01*
X016466Y014659D01*
X016487Y014609D01*
X016511Y014560D01*
X016539Y014514D01*
X016571Y014469D01*
X016605Y014427D01*
X016642Y014388D01*
X016682Y014351D01*
X016724Y014317D01*
X016769Y014286D01*
X016816Y014258D01*
X017603Y014199D02*
X017558Y014277D01*
X017559Y014277D02*
X017603Y014305D01*
X017645Y014336D01*
X017685Y014369D01*
X017723Y014405D01*
X017758Y014444D01*
X017790Y014485D01*
X017820Y014529D01*
X017846Y014574D01*
X017869Y014621D01*
X017889Y014669D01*
X017905Y014719D01*
X017918Y014769D01*
X017927Y014821D01*
X017933Y014873D01*
X017935Y014925D01*
X018024Y014926D01*
X018025Y014925D01*
X018023Y014870D01*
X018017Y014816D01*
X018008Y014761D01*
X017995Y014708D01*
X017979Y014656D01*
X017960Y014604D01*
X017937Y014554D01*
X017911Y014506D01*
X017882Y014459D01*
X017850Y014415D01*
X017815Y014372D01*
X017777Y014332D01*
X017737Y014295D01*
X017695Y014260D01*
X017650Y014228D01*
X017604Y014199D01*
X017599Y014207D01*
X017645Y014235D01*
X017689Y014267D01*
X017731Y014302D01*
X017771Y014339D01*
X017808Y014378D01*
X017843Y014420D01*
X017874Y014464D01*
X017903Y014510D01*
X017929Y014558D01*
X017951Y014608D01*
X017971Y014658D01*
X017987Y014710D01*
X017999Y014763D01*
X018008Y014817D01*
X018014Y014871D01*
X018016Y014925D01*
X018007Y014925D01*
X018005Y014871D01*
X017999Y014818D01*
X017990Y014765D01*
X017978Y014713D01*
X017962Y014661D01*
X017943Y014611D01*
X017921Y014562D01*
X017895Y014515D01*
X017867Y014469D01*
X017835Y014426D01*
X017801Y014384D01*
X017765Y014345D01*
X017725Y014308D01*
X017684Y014274D01*
X017640Y014243D01*
X017595Y014214D01*
X017590Y014222D01*
X017638Y014252D01*
X017684Y014286D01*
X017727Y014322D01*
X017768Y014362D01*
X017806Y014404D01*
X017841Y014448D01*
X017873Y014495D01*
X017901Y014544D01*
X017926Y014595D01*
X017948Y014648D01*
X017965Y014701D01*
X017979Y014756D01*
X017989Y014812D01*
X017996Y014868D01*
X017998Y014925D01*
X017989Y014925D01*
X017987Y014869D01*
X017981Y014813D01*
X017971Y014758D01*
X017957Y014704D01*
X017939Y014651D01*
X017918Y014599D01*
X017893Y014548D01*
X017865Y014500D01*
X017834Y014454D01*
X017799Y014409D01*
X017762Y014368D01*
X017721Y014329D01*
X017679Y014293D01*
X017633Y014260D01*
X017586Y014230D01*
X017581Y014238D01*
X017628Y014267D01*
X017673Y014300D01*
X017715Y014336D01*
X017755Y014374D01*
X017792Y014415D01*
X017827Y014459D01*
X017858Y014505D01*
X017885Y014553D01*
X017910Y014602D01*
X017931Y014654D01*
X017948Y014706D01*
X017962Y014760D01*
X017972Y014815D01*
X017978Y014870D01*
X017980Y014925D01*
X017971Y014925D01*
X017969Y014870D01*
X017963Y014816D01*
X017953Y014762D01*
X017939Y014709D01*
X017922Y014657D01*
X017902Y014606D01*
X017877Y014557D01*
X017850Y014510D01*
X017819Y014464D01*
X017786Y014421D01*
X017749Y014380D01*
X017709Y014342D01*
X017667Y014307D01*
X017623Y014275D01*
X017577Y014246D01*
X017572Y014254D01*
X017618Y014282D01*
X017662Y014314D01*
X017703Y014349D01*
X017742Y014387D01*
X017779Y014427D01*
X017812Y014469D01*
X017842Y014514D01*
X017870Y014561D01*
X017893Y014610D01*
X017914Y014660D01*
X017931Y014711D01*
X017944Y014764D01*
X017954Y014817D01*
X017960Y014871D01*
X017962Y014925D01*
X017953Y014925D01*
X017951Y014872D01*
X017945Y014818D01*
X017935Y014766D01*
X017922Y014714D01*
X017905Y014663D01*
X017885Y014613D01*
X017862Y014565D01*
X017835Y014519D01*
X017805Y014475D01*
X017772Y014433D01*
X017736Y014393D01*
X017697Y014356D01*
X017656Y014321D01*
X017613Y014290D01*
X017568Y014261D01*
X017563Y014269D01*
X017608Y014297D01*
X017651Y014328D01*
X017691Y014362D01*
X017729Y014399D01*
X017765Y014438D01*
X017797Y014480D01*
X017827Y014524D01*
X017854Y014570D01*
X017877Y014617D01*
X017897Y014666D01*
X017914Y014716D01*
X017927Y014768D01*
X017936Y014820D01*
X017942Y014872D01*
X017944Y014925D01*
X018024Y014934D02*
X017934Y014934D01*
X017935Y014935D02*
X017933Y014989D01*
X017927Y015042D01*
X017917Y015095D01*
X017903Y015147D01*
X017886Y015198D01*
X017865Y015248D01*
X017841Y015296D01*
X017813Y015342D01*
X017782Y015386D01*
X017748Y015427D01*
X017711Y015467D01*
X017672Y015503D01*
X017729Y015571D01*
X017730Y015572D01*
X017771Y015534D01*
X017809Y015494D01*
X017845Y015451D01*
X017878Y015406D01*
X017908Y015359D01*
X017934Y015311D01*
X017958Y015260D01*
X017978Y015208D01*
X017994Y015155D01*
X018008Y015101D01*
X018017Y015046D01*
X018023Y014991D01*
X018025Y014935D01*
X018016Y014935D01*
X018014Y014990D01*
X018008Y015045D01*
X017999Y015099D01*
X017986Y015153D01*
X017969Y015205D01*
X017950Y015257D01*
X017926Y015307D01*
X017900Y015355D01*
X017870Y015401D01*
X017838Y015446D01*
X017803Y015488D01*
X017764Y015528D01*
X017724Y015565D01*
X017718Y015558D01*
X017758Y015521D01*
X017796Y015482D01*
X017831Y015440D01*
X017863Y015396D01*
X017892Y015350D01*
X017918Y015302D01*
X017941Y015253D01*
X017961Y015202D01*
X017977Y015150D01*
X017990Y015097D01*
X017999Y015044D01*
X018005Y014989D01*
X018007Y014935D01*
X017998Y014935D01*
X017996Y014989D01*
X017990Y015042D01*
X017981Y015095D01*
X017968Y015148D01*
X017952Y015199D01*
X017933Y015250D01*
X017910Y015298D01*
X017885Y015346D01*
X017856Y015391D01*
X017824Y015435D01*
X017789Y015476D01*
X017752Y015515D01*
X017712Y015551D01*
X017706Y015544D01*
X017746Y015508D01*
X017783Y015470D01*
X017817Y015429D01*
X017848Y015386D01*
X017877Y015341D01*
X017902Y015294D01*
X017925Y015246D01*
X017944Y015196D01*
X017960Y015145D01*
X017972Y015094D01*
X017981Y015041D01*
X017987Y014988D01*
X017989Y014935D01*
X017980Y014935D01*
X017978Y014988D01*
X017972Y015040D01*
X017963Y015092D01*
X017951Y015143D01*
X017935Y015193D01*
X017916Y015243D01*
X017894Y015290D01*
X017869Y015337D01*
X017841Y015381D01*
X017810Y015423D01*
X017776Y015464D01*
X017739Y015502D01*
X017701Y015537D01*
X017695Y015531D01*
X017733Y015495D01*
X017769Y015458D01*
X017803Y015418D01*
X017833Y015376D01*
X017861Y015332D01*
X017886Y015286D01*
X017908Y015239D01*
X017927Y015190D01*
X017942Y015141D01*
X017955Y015090D01*
X017963Y015039D01*
X017969Y014987D01*
X017971Y014935D01*
X017962Y014935D01*
X017960Y014991D01*
X017953Y015046D01*
X017943Y015101D01*
X017929Y015155D01*
X017911Y015208D01*
X017889Y015259D01*
X017864Y015309D01*
X017835Y015357D01*
X017803Y015402D01*
X017768Y015445D01*
X017730Y015486D01*
X017689Y015524D01*
X017683Y015517D01*
X017724Y015480D01*
X017761Y015439D01*
X017796Y015397D01*
X017828Y015352D01*
X017856Y015304D01*
X017881Y015255D01*
X017903Y015204D01*
X017920Y015152D01*
X017934Y015099D01*
X017944Y015045D01*
X017951Y014990D01*
X017953Y014935D01*
X017944Y014935D01*
X017942Y014989D01*
X017936Y015043D01*
X017926Y015097D01*
X017912Y015150D01*
X017894Y015201D01*
X017873Y015251D01*
X017848Y015300D01*
X017820Y015347D01*
X017789Y015391D01*
X017755Y015433D01*
X017717Y015473D01*
X017677Y015510D01*
X016636Y015575D02*
X016693Y015506D01*
X016693Y015507D02*
X016653Y015470D01*
X016615Y015431D01*
X016581Y015389D01*
X016549Y015345D01*
X016521Y015299D01*
X016496Y015250D01*
X016475Y015200D01*
X016457Y015149D01*
X016444Y015096D01*
X016434Y015043D01*
X016427Y014989D01*
X016425Y014935D01*
X016336Y014934D01*
X016335Y014935D01*
X016337Y014991D01*
X016343Y015047D01*
X016353Y015102D01*
X016366Y015157D01*
X016383Y015210D01*
X016403Y015263D01*
X016427Y015314D01*
X016454Y015363D01*
X016485Y015410D01*
X016518Y015455D01*
X016554Y015498D01*
X016593Y015538D01*
X016635Y015576D01*
X016641Y015569D01*
X016600Y015532D01*
X016561Y015492D01*
X016525Y015450D01*
X016492Y015405D01*
X016462Y015358D01*
X016435Y015310D01*
X016412Y015259D01*
X016391Y015207D01*
X016375Y015154D01*
X016362Y015100D01*
X016352Y015046D01*
X016346Y014991D01*
X016344Y014935D01*
X016353Y014935D01*
X016355Y014990D01*
X016361Y015045D01*
X016370Y015099D01*
X016383Y015152D01*
X016400Y015204D01*
X016420Y015256D01*
X016443Y015305D01*
X016470Y015354D01*
X016499Y015400D01*
X016532Y015444D01*
X016568Y015486D01*
X016606Y015525D01*
X016647Y015562D01*
X016652Y015555D01*
X016612Y015519D01*
X016574Y015480D01*
X016539Y015438D01*
X016507Y015395D01*
X016477Y015349D01*
X016451Y015301D01*
X016428Y015252D01*
X016408Y015202D01*
X016392Y015150D01*
X016379Y015097D01*
X016370Y015043D01*
X016364Y014989D01*
X016362Y014935D01*
X016371Y014935D01*
X016373Y014989D01*
X016379Y015042D01*
X016388Y015095D01*
X016401Y015147D01*
X016417Y015199D01*
X016436Y015249D01*
X016459Y015297D01*
X016485Y015344D01*
X016514Y015390D01*
X016546Y015433D01*
X016581Y015474D01*
X016618Y015512D01*
X016658Y015548D01*
X016664Y015541D01*
X016625Y015506D01*
X016588Y015468D01*
X016553Y015427D01*
X016522Y015384D01*
X016493Y015340D01*
X016467Y015293D01*
X016445Y015245D01*
X016425Y015196D01*
X016409Y015145D01*
X016397Y015093D01*
X016388Y015041D01*
X016382Y014988D01*
X016380Y014935D01*
X016389Y014935D01*
X016391Y014987D01*
X016397Y015040D01*
X016406Y015091D01*
X016418Y015142D01*
X016434Y015193D01*
X016453Y015242D01*
X016475Y015289D01*
X016501Y015335D01*
X016529Y015379D01*
X016560Y015421D01*
X016594Y015462D01*
X016631Y015499D01*
X016670Y015534D01*
X016676Y015528D01*
X016637Y015493D01*
X016601Y015455D01*
X016567Y015416D01*
X016536Y015374D01*
X016508Y015330D01*
X016483Y015285D01*
X016461Y015238D01*
X016442Y015190D01*
X016427Y015140D01*
X016414Y015090D01*
X016406Y015038D01*
X016400Y014987D01*
X016398Y014935D01*
X016407Y014935D01*
X016409Y014986D01*
X016414Y015037D01*
X016423Y015088D01*
X016435Y015138D01*
X016451Y015187D01*
X016469Y015234D01*
X016491Y015281D01*
X016516Y015326D01*
X016544Y015369D01*
X016574Y015410D01*
X016607Y015449D01*
X016643Y015486D01*
X016681Y015521D01*
X016687Y015514D01*
X016646Y015477D01*
X016608Y015437D01*
X016574Y015395D01*
X016542Y015350D01*
X016513Y015303D01*
X016488Y015254D01*
X016467Y015203D01*
X016449Y015152D01*
X016435Y015098D01*
X016425Y015044D01*
X016418Y014990D01*
X016416Y014935D01*
D20*
X008750Y001152D02*
X008734Y001204D01*
X008735Y001203D02*
X008793Y001224D01*
X008850Y001247D01*
X008906Y001274D01*
X008959Y001305D01*
X009011Y001338D01*
X009061Y001375D01*
X009108Y001414D01*
X009153Y001457D01*
X009196Y001502D01*
X009235Y001549D01*
X009272Y001599D01*
X009306Y001651D01*
X009336Y001705D01*
X009363Y001760D01*
X009387Y001817D01*
X009407Y001876D01*
X009423Y001935D01*
X009436Y001996D01*
X009446Y002057D01*
X009451Y002118D01*
X009453Y002180D01*
X009451Y002242D01*
X009446Y002303D01*
X009436Y002364D01*
X009423Y002425D01*
X009407Y002484D01*
X009386Y002543D01*
X009363Y002600D01*
X009336Y002655D01*
X009305Y002709D01*
X009272Y002761D01*
X009235Y002811D01*
X009277Y002844D01*
X009278Y002844D01*
X009315Y002794D01*
X009350Y002741D01*
X009381Y002686D01*
X009409Y002629D01*
X009433Y002571D01*
X009455Y002512D01*
X009472Y002451D01*
X009486Y002390D01*
X009497Y002328D01*
X009504Y002265D01*
X009507Y002202D01*
X009506Y002139D01*
X009502Y002076D01*
X009494Y002013D01*
X009482Y001951D01*
X009467Y001890D01*
X009448Y001830D01*
X009426Y001771D01*
X009401Y001713D01*
X009372Y001657D01*
X009339Y001603D01*
X009304Y001551D01*
X009266Y001500D01*
X009224Y001453D01*
X009180Y001407D01*
X009134Y001365D01*
X009085Y001325D01*
X009034Y001288D01*
X008980Y001254D01*
X008925Y001224D01*
X008868Y001196D01*
X008810Y001172D01*
X008750Y001152D01*
X008749Y001157D01*
X008810Y001178D01*
X008870Y001202D01*
X008928Y001231D01*
X008985Y001263D01*
X009039Y001298D01*
X009091Y001336D01*
X009141Y001378D01*
X009188Y001422D01*
X009232Y001469D01*
X009274Y001519D01*
X009312Y001571D01*
X009347Y001625D01*
X009379Y001682D01*
X009408Y001740D01*
X009432Y001800D01*
X009453Y001861D01*
X009471Y001924D01*
X009484Y001987D01*
X009494Y002051D01*
X009500Y002115D01*
X009502Y002180D01*
X009500Y002245D01*
X009494Y002309D01*
X009484Y002373D01*
X009471Y002437D01*
X009453Y002499D01*
X009432Y002560D01*
X009407Y002620D01*
X009379Y002678D01*
X009347Y002735D01*
X009312Y002789D01*
X009274Y002841D01*
X009270Y002838D01*
X009308Y002786D01*
X009343Y002732D01*
X009375Y002676D01*
X009403Y002618D01*
X009428Y002559D01*
X009449Y002498D01*
X009466Y002435D01*
X009479Y002372D01*
X009489Y002309D01*
X009495Y002245D01*
X009497Y002180D01*
X009495Y002116D01*
X009489Y002052D01*
X009480Y001988D01*
X009466Y001925D01*
X009449Y001863D01*
X009428Y001802D01*
X009403Y001742D01*
X009375Y001684D01*
X009343Y001628D01*
X009308Y001574D01*
X009270Y001522D01*
X009229Y001473D01*
X009185Y001426D01*
X009138Y001381D01*
X009088Y001340D01*
X009036Y001302D01*
X008982Y001267D01*
X008926Y001235D01*
X008868Y001207D01*
X008808Y001182D01*
X008747Y001161D01*
X008746Y001166D01*
X008807Y001187D01*
X008866Y001212D01*
X008924Y001240D01*
X008979Y001271D01*
X009033Y001306D01*
X009085Y001344D01*
X009134Y001385D01*
X009181Y001429D01*
X009225Y001476D01*
X009266Y001525D01*
X009304Y001577D01*
X009339Y001631D01*
X009370Y001687D01*
X009398Y001744D01*
X009423Y001804D01*
X009444Y001864D01*
X009461Y001926D01*
X009475Y001989D01*
X009484Y002052D01*
X009490Y002116D01*
X009492Y002180D01*
X009490Y002244D01*
X009484Y002308D01*
X009475Y002372D01*
X009461Y002434D01*
X009444Y002496D01*
X009423Y002557D01*
X009398Y002616D01*
X009370Y002674D01*
X009339Y002730D01*
X009304Y002783D01*
X009266Y002835D01*
X009262Y002832D01*
X009300Y002781D01*
X009334Y002727D01*
X009366Y002671D01*
X009394Y002614D01*
X009418Y002555D01*
X009439Y002495D01*
X009456Y002433D01*
X009470Y002371D01*
X009479Y002308D01*
X009485Y002244D01*
X009487Y002180D01*
X009485Y002116D01*
X009479Y002053D01*
X009470Y001990D01*
X009456Y001927D01*
X009439Y001866D01*
X009418Y001805D01*
X009394Y001746D01*
X009366Y001689D01*
X009335Y001633D01*
X009300Y001580D01*
X009262Y001528D01*
X009221Y001479D01*
X009177Y001433D01*
X009131Y001389D01*
X009082Y001348D01*
X009031Y001310D01*
X008977Y001275D01*
X008921Y001244D01*
X008864Y001216D01*
X008805Y001192D01*
X008745Y001171D01*
X008743Y001176D01*
X008803Y001196D01*
X008862Y001221D01*
X008919Y001249D01*
X008974Y001280D01*
X009028Y001314D01*
X009079Y001352D01*
X009128Y001393D01*
X009174Y001436D01*
X009218Y001482D01*
X009258Y001531D01*
X009296Y001582D01*
X009330Y001636D01*
X009362Y001691D01*
X009389Y001748D01*
X009414Y001807D01*
X009434Y001867D01*
X009451Y001928D01*
X009465Y001990D01*
X009474Y002053D01*
X009480Y002117D01*
X009482Y002180D01*
X009480Y002244D01*
X009474Y002307D01*
X009465Y002370D01*
X009451Y002432D01*
X009434Y002493D01*
X009414Y002553D01*
X009389Y002612D01*
X009361Y002669D01*
X009330Y002724D01*
X009296Y002778D01*
X009258Y002829D01*
X009254Y002826D01*
X009292Y002775D01*
X009326Y002722D01*
X009357Y002667D01*
X009385Y002610D01*
X009409Y002551D01*
X009430Y002492D01*
X009447Y002431D01*
X009460Y002369D01*
X009469Y002306D01*
X009475Y002243D01*
X009477Y002180D01*
X009475Y002117D01*
X009469Y002054D01*
X009460Y001991D01*
X009447Y001930D01*
X009430Y001869D01*
X009409Y001809D01*
X009385Y001750D01*
X009357Y001694D01*
X009326Y001638D01*
X009292Y001585D01*
X009254Y001534D01*
X009214Y001486D01*
X009170Y001440D01*
X009124Y001396D01*
X009076Y001356D01*
X009025Y001318D01*
X008972Y001284D01*
X008917Y001253D01*
X008860Y001225D01*
X008801Y001201D01*
X008742Y001180D01*
X008740Y001185D01*
X008800Y001206D01*
X008858Y001230D01*
X008914Y001257D01*
X008969Y001288D01*
X009022Y001323D01*
X009073Y001360D01*
X009121Y001400D01*
X009167Y001443D01*
X009210Y001489D01*
X009250Y001537D01*
X009288Y001588D01*
X009322Y001641D01*
X009353Y001696D01*
X009380Y001752D01*
X009404Y001811D01*
X009425Y001870D01*
X009442Y001931D01*
X009455Y001992D01*
X009464Y002055D01*
X009470Y002117D01*
X009472Y002180D01*
X009470Y002243D01*
X009464Y002306D01*
X009455Y002368D01*
X009442Y002429D01*
X009425Y002490D01*
X009404Y002550D01*
X009380Y002608D01*
X009353Y002664D01*
X009322Y002719D01*
X009287Y002772D01*
X009250Y002823D01*
X009246Y002820D01*
X009283Y002769D01*
X009317Y002717D01*
X009348Y002662D01*
X009376Y002606D01*
X009400Y002548D01*
X009420Y002489D01*
X009437Y002428D01*
X009450Y002367D01*
X009459Y002305D01*
X009465Y002243D01*
X009467Y002180D01*
X009465Y002117D01*
X009459Y002055D01*
X009450Y001993D01*
X009437Y001932D01*
X009420Y001872D01*
X009400Y001812D01*
X009376Y001755D01*
X009348Y001698D01*
X009318Y001644D01*
X009284Y001591D01*
X009246Y001541D01*
X009206Y001492D01*
X009163Y001447D01*
X009118Y001404D01*
X009070Y001364D01*
X009019Y001327D01*
X008967Y001293D01*
X008912Y001262D01*
X008856Y001234D01*
X008798Y001210D01*
X008739Y001190D01*
X008737Y001195D01*
X008796Y001215D01*
X008854Y001239D01*
X008910Y001266D01*
X008964Y001297D01*
X009016Y001331D01*
X009067Y001368D01*
X009114Y001408D01*
X009160Y001450D01*
X009203Y001496D01*
X009242Y001544D01*
X009279Y001594D01*
X009313Y001646D01*
X009344Y001701D01*
X009371Y001757D01*
X009395Y001814D01*
X009415Y001873D01*
X009432Y001933D01*
X009445Y001994D01*
X009454Y002056D01*
X009460Y002118D01*
X009462Y002180D01*
X009460Y002242D01*
X009454Y002304D01*
X009445Y002366D01*
X009432Y002427D01*
X009415Y002487D01*
X009395Y002546D01*
X009371Y002604D01*
X009344Y002660D01*
X009313Y002714D01*
X009279Y002766D01*
X009242Y002817D01*
X009238Y002813D01*
X009275Y002763D01*
X009309Y002711D01*
X009339Y002657D01*
X009366Y002602D01*
X009390Y002544D01*
X009410Y002486D01*
X009427Y002426D01*
X009440Y002365D01*
X009450Y002304D01*
X009455Y002242D01*
X009457Y002180D01*
X009455Y002118D01*
X009450Y002056D01*
X009440Y001995D01*
X009427Y001934D01*
X009411Y001875D01*
X009390Y001816D01*
X009367Y001759D01*
X009339Y001703D01*
X009309Y001649D01*
X009275Y001597D01*
X009239Y001547D01*
X009199Y001499D01*
X009156Y001454D01*
X009111Y001411D01*
X009063Y001372D01*
X009014Y001335D01*
X008961Y001301D01*
X008907Y001271D01*
X008852Y001244D01*
X008794Y001220D01*
X008736Y001200D01*
X007583Y002844D02*
X007625Y002810D01*
X007625Y002811D02*
X007588Y002761D01*
X007555Y002709D01*
X007524Y002655D01*
X007497Y002600D01*
X007474Y002543D01*
X007453Y002484D01*
X007437Y002425D01*
X007424Y002364D01*
X007414Y002303D01*
X007409Y002242D01*
X007407Y002180D01*
X007409Y002118D01*
X007414Y002057D01*
X007424Y001996D01*
X007437Y001935D01*
X007453Y001876D01*
X007473Y001817D01*
X007497Y001760D01*
X007524Y001705D01*
X007554Y001651D01*
X007588Y001599D01*
X007625Y001549D01*
X007664Y001502D01*
X007707Y001457D01*
X007752Y001414D01*
X007799Y001375D01*
X007849Y001338D01*
X007901Y001305D01*
X007954Y001274D01*
X008010Y001247D01*
X008067Y001224D01*
X008125Y001203D01*
X008110Y001152D01*
X008050Y001172D01*
X007992Y001196D01*
X007935Y001224D01*
X007880Y001254D01*
X007826Y001288D01*
X007775Y001325D01*
X007726Y001365D01*
X007680Y001407D01*
X007636Y001453D01*
X007594Y001500D01*
X007556Y001551D01*
X007521Y001603D01*
X007488Y001657D01*
X007459Y001713D01*
X007434Y001771D01*
X007412Y001830D01*
X007393Y001890D01*
X007378Y001951D01*
X007366Y002013D01*
X007358Y002076D01*
X007354Y002139D01*
X007353Y002202D01*
X007356Y002265D01*
X007363Y002328D01*
X007374Y002390D01*
X007388Y002451D01*
X007405Y002512D01*
X007427Y002571D01*
X007451Y002629D01*
X007479Y002686D01*
X007510Y002741D01*
X007545Y002794D01*
X007582Y002844D01*
X007586Y002841D01*
X007548Y002789D01*
X007513Y002735D01*
X007481Y002678D01*
X007453Y002620D01*
X007428Y002560D01*
X007407Y002499D01*
X007389Y002437D01*
X007376Y002373D01*
X007366Y002309D01*
X007360Y002245D01*
X007358Y002180D01*
X007360Y002115D01*
X007366Y002051D01*
X007376Y001987D01*
X007389Y001924D01*
X007407Y001861D01*
X007428Y001800D01*
X007452Y001740D01*
X007481Y001682D01*
X007513Y001625D01*
X007548Y001571D01*
X007586Y001519D01*
X007628Y001469D01*
X007672Y001422D01*
X007719Y001378D01*
X007769Y001336D01*
X007821Y001298D01*
X007875Y001263D01*
X007932Y001231D01*
X007990Y001202D01*
X008050Y001178D01*
X008111Y001157D01*
X008113Y001161D01*
X008052Y001182D01*
X007992Y001207D01*
X007934Y001235D01*
X007878Y001267D01*
X007824Y001302D01*
X007772Y001340D01*
X007722Y001381D01*
X007675Y001426D01*
X007631Y001473D01*
X007590Y001522D01*
X007552Y001574D01*
X007517Y001628D01*
X007485Y001684D01*
X007457Y001742D01*
X007432Y001802D01*
X007411Y001863D01*
X007394Y001925D01*
X007380Y001988D01*
X007371Y002052D01*
X007365Y002116D01*
X007363Y002180D01*
X007365Y002245D01*
X007371Y002309D01*
X007381Y002372D01*
X007394Y002435D01*
X007411Y002498D01*
X007432Y002559D01*
X007457Y002618D01*
X007485Y002676D01*
X007517Y002732D01*
X007552Y002786D01*
X007590Y002838D01*
X007594Y002835D01*
X007556Y002783D01*
X007521Y002730D01*
X007490Y002674D01*
X007462Y002616D01*
X007437Y002557D01*
X007416Y002496D01*
X007399Y002434D01*
X007385Y002372D01*
X007376Y002308D01*
X007370Y002244D01*
X007368Y002180D01*
X007370Y002116D01*
X007376Y002052D01*
X007385Y001989D01*
X007399Y001926D01*
X007416Y001864D01*
X007437Y001804D01*
X007462Y001744D01*
X007490Y001687D01*
X007521Y001631D01*
X007556Y001577D01*
X007594Y001525D01*
X007635Y001476D01*
X007679Y001429D01*
X007726Y001385D01*
X007775Y001344D01*
X007827Y001306D01*
X007881Y001271D01*
X007936Y001240D01*
X007994Y001212D01*
X008053Y001187D01*
X008114Y001166D01*
X008115Y001171D01*
X008055Y001192D01*
X007996Y001216D01*
X007939Y001244D01*
X007883Y001275D01*
X007829Y001310D01*
X007778Y001348D01*
X007729Y001389D01*
X007683Y001433D01*
X007639Y001479D01*
X007598Y001528D01*
X007560Y001580D01*
X007525Y001633D01*
X007494Y001689D01*
X007466Y001746D01*
X007442Y001805D01*
X007421Y001866D01*
X007404Y001927D01*
X007390Y001990D01*
X007381Y002053D01*
X007375Y002116D01*
X007373Y002180D01*
X007375Y002244D01*
X007381Y002308D01*
X007390Y002371D01*
X007404Y002433D01*
X007421Y002495D01*
X007442Y002555D01*
X007466Y002614D01*
X007494Y002671D01*
X007526Y002727D01*
X007560Y002781D01*
X007598Y002832D01*
X007602Y002829D01*
X007564Y002778D01*
X007530Y002724D01*
X007499Y002669D01*
X007471Y002612D01*
X007446Y002553D01*
X007426Y002493D01*
X007409Y002432D01*
X007395Y002370D01*
X007386Y002307D01*
X007380Y002244D01*
X007378Y002180D01*
X007380Y002117D01*
X007386Y002053D01*
X007395Y001990D01*
X007409Y001928D01*
X007426Y001867D01*
X007446Y001807D01*
X007471Y001748D01*
X007498Y001691D01*
X007530Y001636D01*
X007564Y001582D01*
X007602Y001531D01*
X007642Y001482D01*
X007686Y001436D01*
X007732Y001393D01*
X007781Y001352D01*
X007832Y001314D01*
X007886Y001280D01*
X007941Y001249D01*
X007998Y001221D01*
X008057Y001196D01*
X008117Y001176D01*
X008118Y001180D01*
X008059Y001201D01*
X008000Y001225D01*
X007943Y001253D01*
X007888Y001284D01*
X007835Y001318D01*
X007784Y001356D01*
X007736Y001396D01*
X007690Y001440D01*
X007646Y001486D01*
X007606Y001534D01*
X007568Y001585D01*
X007534Y001638D01*
X007503Y001694D01*
X007475Y001750D01*
X007451Y001809D01*
X007430Y001869D01*
X007413Y001930D01*
X007400Y001991D01*
X007391Y002054D01*
X007385Y002117D01*
X007383Y002180D01*
X007385Y002243D01*
X007391Y002306D01*
X007400Y002369D01*
X007413Y002431D01*
X007430Y002492D01*
X007451Y002551D01*
X007475Y002610D01*
X007503Y002667D01*
X007534Y002722D01*
X007568Y002775D01*
X007606Y002826D01*
X007610Y002823D01*
X007573Y002772D01*
X007538Y002719D01*
X007507Y002664D01*
X007480Y002608D01*
X007456Y002550D01*
X007435Y002490D01*
X007418Y002429D01*
X007405Y002368D01*
X007396Y002306D01*
X007390Y002243D01*
X007388Y002180D01*
X007390Y002117D01*
X007396Y002055D01*
X007405Y001992D01*
X007418Y001931D01*
X007435Y001870D01*
X007456Y001811D01*
X007480Y001752D01*
X007507Y001696D01*
X007538Y001641D01*
X007572Y001588D01*
X007610Y001537D01*
X007650Y001489D01*
X007693Y001443D01*
X007739Y001400D01*
X007787Y001360D01*
X007838Y001323D01*
X007891Y001288D01*
X007946Y001257D01*
X008002Y001230D01*
X008060Y001206D01*
X008120Y001185D01*
X008121Y001190D01*
X008062Y001210D01*
X008004Y001234D01*
X007948Y001262D01*
X007893Y001293D01*
X007841Y001327D01*
X007790Y001364D01*
X007742Y001404D01*
X007697Y001447D01*
X007654Y001492D01*
X007614Y001541D01*
X007576Y001591D01*
X007542Y001644D01*
X007512Y001698D01*
X007484Y001755D01*
X007460Y001812D01*
X007440Y001872D01*
X007423Y001932D01*
X007410Y001993D01*
X007401Y002055D01*
X007395Y002117D01*
X007393Y002180D01*
X007395Y002243D01*
X007401Y002305D01*
X007410Y002367D01*
X007423Y002428D01*
X007440Y002489D01*
X007460Y002548D01*
X007484Y002606D01*
X007512Y002662D01*
X007543Y002717D01*
X007577Y002769D01*
X007614Y002820D01*
X007618Y002817D01*
X007581Y002766D01*
X007547Y002714D01*
X007516Y002660D01*
X007489Y002604D01*
X007465Y002546D01*
X007445Y002487D01*
X007428Y002427D01*
X007415Y002366D01*
X007406Y002304D01*
X007400Y002242D01*
X007398Y002180D01*
X007400Y002118D01*
X007406Y002056D01*
X007415Y001994D01*
X007428Y001933D01*
X007445Y001873D01*
X007465Y001814D01*
X007489Y001757D01*
X007516Y001701D01*
X007547Y001646D01*
X007581Y001594D01*
X007618Y001544D01*
X007657Y001496D01*
X007700Y001450D01*
X007746Y001408D01*
X007793Y001368D01*
X007844Y001331D01*
X007896Y001297D01*
X007950Y001266D01*
X008006Y001239D01*
X008064Y001215D01*
X008123Y001195D01*
X008124Y001200D01*
X008066Y001220D01*
X008008Y001244D01*
X007953Y001271D01*
X007899Y001301D01*
X007846Y001335D01*
X007797Y001372D01*
X007749Y001411D01*
X007704Y001454D01*
X007661Y001499D01*
X007621Y001547D01*
X007585Y001597D01*
X007551Y001649D01*
X007521Y001703D01*
X007493Y001759D01*
X007470Y001816D01*
X007449Y001875D01*
X007433Y001934D01*
X007420Y001995D01*
X007410Y002056D01*
X007405Y002118D01*
X007403Y002180D01*
X007405Y002242D01*
X007410Y002304D01*
X007420Y002365D01*
X007433Y002426D01*
X007450Y002486D01*
X007470Y002544D01*
X007494Y002602D01*
X007521Y002657D01*
X007551Y002711D01*
X007585Y002763D01*
X007622Y002813D01*
X006250Y001152D02*
X006234Y001204D01*
X006235Y001203D02*
X006293Y001224D01*
X006350Y001247D01*
X006406Y001274D01*
X006459Y001305D01*
X006511Y001338D01*
X006561Y001375D01*
X006608Y001414D01*
X006653Y001457D01*
X006696Y001502D01*
X006735Y001549D01*
X006772Y001599D01*
X006806Y001651D01*
X006836Y001705D01*
X006863Y001760D01*
X006887Y001817D01*
X006907Y001876D01*
X006923Y001935D01*
X006936Y001996D01*
X006946Y002057D01*
X006951Y002118D01*
X006953Y002180D01*
X006951Y002242D01*
X006946Y002303D01*
X006936Y002364D01*
X006923Y002425D01*
X006907Y002484D01*
X006886Y002543D01*
X006863Y002600D01*
X006836Y002655D01*
X006805Y002709D01*
X006772Y002761D01*
X006735Y002811D01*
X006777Y002844D01*
X006778Y002844D01*
X006815Y002794D01*
X006850Y002741D01*
X006881Y002686D01*
X006909Y002629D01*
X006933Y002571D01*
X006955Y002512D01*
X006972Y002451D01*
X006986Y002390D01*
X006997Y002328D01*
X007004Y002265D01*
X007007Y002202D01*
X007006Y002139D01*
X007002Y002076D01*
X006994Y002013D01*
X006982Y001951D01*
X006967Y001890D01*
X006948Y001830D01*
X006926Y001771D01*
X006901Y001713D01*
X006872Y001657D01*
X006839Y001603D01*
X006804Y001551D01*
X006766Y001500D01*
X006724Y001453D01*
X006680Y001407D01*
X006634Y001365D01*
X006585Y001325D01*
X006534Y001288D01*
X006480Y001254D01*
X006425Y001224D01*
X006368Y001196D01*
X006310Y001172D01*
X006250Y001152D01*
X006249Y001157D01*
X006310Y001178D01*
X006370Y001202D01*
X006428Y001231D01*
X006485Y001263D01*
X006539Y001298D01*
X006591Y001336D01*
X006641Y001378D01*
X006688Y001422D01*
X006732Y001469D01*
X006774Y001519D01*
X006812Y001571D01*
X006847Y001625D01*
X006879Y001682D01*
X006908Y001740D01*
X006932Y001800D01*
X006953Y001861D01*
X006971Y001924D01*
X006984Y001987D01*
X006994Y002051D01*
X007000Y002115D01*
X007002Y002180D01*
X007000Y002245D01*
X006994Y002309D01*
X006984Y002373D01*
X006971Y002437D01*
X006953Y002499D01*
X006932Y002560D01*
X006907Y002620D01*
X006879Y002678D01*
X006847Y002735D01*
X006812Y002789D01*
X006774Y002841D01*
X006770Y002838D01*
X006808Y002786D01*
X006843Y002732D01*
X006875Y002676D01*
X006903Y002618D01*
X006928Y002559D01*
X006949Y002498D01*
X006966Y002435D01*
X006979Y002372D01*
X006989Y002309D01*
X006995Y002245D01*
X006997Y002180D01*
X006995Y002116D01*
X006989Y002052D01*
X006980Y001988D01*
X006966Y001925D01*
X006949Y001863D01*
X006928Y001802D01*
X006903Y001742D01*
X006875Y001684D01*
X006843Y001628D01*
X006808Y001574D01*
X006770Y001522D01*
X006729Y001473D01*
X006685Y001426D01*
X006638Y001381D01*
X006588Y001340D01*
X006536Y001302D01*
X006482Y001267D01*
X006426Y001235D01*
X006368Y001207D01*
X006308Y001182D01*
X006247Y001161D01*
X006246Y001166D01*
X006307Y001187D01*
X006366Y001212D01*
X006424Y001240D01*
X006479Y001271D01*
X006533Y001306D01*
X006585Y001344D01*
X006634Y001385D01*
X006681Y001429D01*
X006725Y001476D01*
X006766Y001525D01*
X006804Y001577D01*
X006839Y001631D01*
X006870Y001687D01*
X006898Y001744D01*
X006923Y001804D01*
X006944Y001864D01*
X006961Y001926D01*
X006975Y001989D01*
X006984Y002052D01*
X006990Y002116D01*
X006992Y002180D01*
X006990Y002244D01*
X006984Y002308D01*
X006975Y002372D01*
X006961Y002434D01*
X006944Y002496D01*
X006923Y002557D01*
X006898Y002616D01*
X006870Y002674D01*
X006839Y002730D01*
X006804Y002783D01*
X006766Y002835D01*
X006762Y002832D01*
X006800Y002781D01*
X006834Y002727D01*
X006866Y002671D01*
X006894Y002614D01*
X006918Y002555D01*
X006939Y002495D01*
X006956Y002433D01*
X006970Y002371D01*
X006979Y002308D01*
X006985Y002244D01*
X006987Y002180D01*
X006985Y002116D01*
X006979Y002053D01*
X006970Y001990D01*
X006956Y001927D01*
X006939Y001866D01*
X006918Y001805D01*
X006894Y001746D01*
X006866Y001689D01*
X006835Y001633D01*
X006800Y001580D01*
X006762Y001528D01*
X006721Y001479D01*
X006677Y001433D01*
X006631Y001389D01*
X006582Y001348D01*
X006531Y001310D01*
X006477Y001275D01*
X006421Y001244D01*
X006364Y001216D01*
X006305Y001192D01*
X006245Y001171D01*
X006243Y001176D01*
X006303Y001196D01*
X006362Y001221D01*
X006419Y001249D01*
X006474Y001280D01*
X006528Y001314D01*
X006579Y001352D01*
X006628Y001393D01*
X006674Y001436D01*
X006718Y001482D01*
X006758Y001531D01*
X006796Y001582D01*
X006830Y001636D01*
X006862Y001691D01*
X006889Y001748D01*
X006914Y001807D01*
X006934Y001867D01*
X006951Y001928D01*
X006965Y001990D01*
X006974Y002053D01*
X006980Y002117D01*
X006982Y002180D01*
X006980Y002244D01*
X006974Y002307D01*
X006965Y002370D01*
X006951Y002432D01*
X006934Y002493D01*
X006914Y002553D01*
X006889Y002612D01*
X006861Y002669D01*
X006830Y002724D01*
X006796Y002778D01*
X006758Y002829D01*
X006754Y002826D01*
X006792Y002775D01*
X006826Y002722D01*
X006857Y002667D01*
X006885Y002610D01*
X006909Y002551D01*
X006930Y002492D01*
X006947Y002431D01*
X006960Y002369D01*
X006969Y002306D01*
X006975Y002243D01*
X006977Y002180D01*
X006975Y002117D01*
X006969Y002054D01*
X006960Y001991D01*
X006947Y001930D01*
X006930Y001869D01*
X006909Y001809D01*
X006885Y001750D01*
X006857Y001694D01*
X006826Y001638D01*
X006792Y001585D01*
X006754Y001534D01*
X006714Y001486D01*
X006670Y001440D01*
X006624Y001396D01*
X006576Y001356D01*
X006525Y001318D01*
X006472Y001284D01*
X006417Y001253D01*
X006360Y001225D01*
X006301Y001201D01*
X006242Y001180D01*
X006240Y001185D01*
X006300Y001206D01*
X006358Y001230D01*
X006414Y001257D01*
X006469Y001288D01*
X006522Y001323D01*
X006573Y001360D01*
X006621Y001400D01*
X006667Y001443D01*
X006710Y001489D01*
X006750Y001537D01*
X006788Y001588D01*
X006822Y001641D01*
X006853Y001696D01*
X006880Y001752D01*
X006904Y001811D01*
X006925Y001870D01*
X006942Y001931D01*
X006955Y001992D01*
X006964Y002055D01*
X006970Y002117D01*
X006972Y002180D01*
X006970Y002243D01*
X006964Y002306D01*
X006955Y002368D01*
X006942Y002429D01*
X006925Y002490D01*
X006904Y002550D01*
X006880Y002608D01*
X006853Y002664D01*
X006822Y002719D01*
X006787Y002772D01*
X006750Y002823D01*
X006746Y002820D01*
X006783Y002769D01*
X006817Y002717D01*
X006848Y002662D01*
X006876Y002606D01*
X006900Y002548D01*
X006920Y002489D01*
X006937Y002428D01*
X006950Y002367D01*
X006959Y002305D01*
X006965Y002243D01*
X006967Y002180D01*
X006965Y002117D01*
X006959Y002055D01*
X006950Y001993D01*
X006937Y001932D01*
X006920Y001872D01*
X006900Y001812D01*
X006876Y001755D01*
X006848Y001698D01*
X006818Y001644D01*
X006784Y001591D01*
X006746Y001541D01*
X006706Y001492D01*
X006663Y001447D01*
X006618Y001404D01*
X006570Y001364D01*
X006519Y001327D01*
X006467Y001293D01*
X006412Y001262D01*
X006356Y001234D01*
X006298Y001210D01*
X006239Y001190D01*
X006237Y001195D01*
X006296Y001215D01*
X006354Y001239D01*
X006410Y001266D01*
X006464Y001297D01*
X006516Y001331D01*
X006567Y001368D01*
X006614Y001408D01*
X006660Y001450D01*
X006703Y001496D01*
X006742Y001544D01*
X006779Y001594D01*
X006813Y001646D01*
X006844Y001701D01*
X006871Y001757D01*
X006895Y001814D01*
X006915Y001873D01*
X006932Y001933D01*
X006945Y001994D01*
X006954Y002056D01*
X006960Y002118D01*
X006962Y002180D01*
X006960Y002242D01*
X006954Y002304D01*
X006945Y002366D01*
X006932Y002427D01*
X006915Y002487D01*
X006895Y002546D01*
X006871Y002604D01*
X006844Y002660D01*
X006813Y002714D01*
X006779Y002766D01*
X006742Y002817D01*
X006738Y002813D01*
X006775Y002763D01*
X006809Y002711D01*
X006839Y002657D01*
X006866Y002602D01*
X006890Y002544D01*
X006910Y002486D01*
X006927Y002426D01*
X006940Y002365D01*
X006950Y002304D01*
X006955Y002242D01*
X006957Y002180D01*
X006955Y002118D01*
X006950Y002056D01*
X006940Y001995D01*
X006927Y001934D01*
X006911Y001875D01*
X006890Y001816D01*
X006867Y001759D01*
X006839Y001703D01*
X006809Y001649D01*
X006775Y001597D01*
X006739Y001547D01*
X006699Y001499D01*
X006656Y001454D01*
X006611Y001411D01*
X006563Y001372D01*
X006514Y001335D01*
X006461Y001301D01*
X006407Y001271D01*
X006352Y001244D01*
X006294Y001220D01*
X006236Y001200D01*
X005083Y002844D02*
X005125Y002810D01*
X005125Y002811D02*
X005088Y002761D01*
X005055Y002709D01*
X005024Y002655D01*
X004997Y002600D01*
X004974Y002543D01*
X004953Y002484D01*
X004937Y002425D01*
X004924Y002364D01*
X004914Y002303D01*
X004909Y002242D01*
X004907Y002180D01*
X004909Y002118D01*
X004914Y002057D01*
X004924Y001996D01*
X004937Y001935D01*
X004953Y001876D01*
X004973Y001817D01*
X004997Y001760D01*
X005024Y001705D01*
X005054Y001651D01*
X005088Y001599D01*
X005125Y001549D01*
X005164Y001502D01*
X005207Y001457D01*
X005252Y001414D01*
X005299Y001375D01*
X005349Y001338D01*
X005401Y001305D01*
X005454Y001274D01*
X005510Y001247D01*
X005567Y001224D01*
X005625Y001203D01*
X005610Y001152D01*
X005550Y001172D01*
X005492Y001196D01*
X005435Y001224D01*
X005380Y001254D01*
X005326Y001288D01*
X005275Y001325D01*
X005226Y001365D01*
X005180Y001407D01*
X005136Y001453D01*
X005094Y001500D01*
X005056Y001551D01*
X005021Y001603D01*
X004988Y001657D01*
X004959Y001713D01*
X004934Y001771D01*
X004912Y001830D01*
X004893Y001890D01*
X004878Y001951D01*
X004866Y002013D01*
X004858Y002076D01*
X004854Y002139D01*
X004853Y002202D01*
X004856Y002265D01*
X004863Y002328D01*
X004874Y002390D01*
X004888Y002451D01*
X004905Y002512D01*
X004927Y002571D01*
X004951Y002629D01*
X004979Y002686D01*
X005010Y002741D01*
X005045Y002794D01*
X005082Y002844D01*
X005086Y002841D01*
X005048Y002789D01*
X005013Y002735D01*
X004981Y002678D01*
X004953Y002620D01*
X004928Y002560D01*
X004907Y002499D01*
X004889Y002437D01*
X004876Y002373D01*
X004866Y002309D01*
X004860Y002245D01*
X004858Y002180D01*
X004860Y002115D01*
X004866Y002051D01*
X004876Y001987D01*
X004889Y001924D01*
X004907Y001861D01*
X004928Y001800D01*
X004952Y001740D01*
X004981Y001682D01*
X005013Y001625D01*
X005048Y001571D01*
X005086Y001519D01*
X005128Y001469D01*
X005172Y001422D01*
X005219Y001378D01*
X005269Y001336D01*
X005321Y001298D01*
X005375Y001263D01*
X005432Y001231D01*
X005490Y001202D01*
X005550Y001178D01*
X005611Y001157D01*
X005613Y001161D01*
X005552Y001182D01*
X005492Y001207D01*
X005434Y001235D01*
X005378Y001267D01*
X005324Y001302D01*
X005272Y001340D01*
X005222Y001381D01*
X005175Y001426D01*
X005131Y001473D01*
X005090Y001522D01*
X005052Y001574D01*
X005017Y001628D01*
X004985Y001684D01*
X004957Y001742D01*
X004932Y001802D01*
X004911Y001863D01*
X004894Y001925D01*
X004880Y001988D01*
X004871Y002052D01*
X004865Y002116D01*
X004863Y002180D01*
X004865Y002245D01*
X004871Y002309D01*
X004881Y002372D01*
X004894Y002435D01*
X004911Y002498D01*
X004932Y002559D01*
X004957Y002618D01*
X004985Y002676D01*
X005017Y002732D01*
X005052Y002786D01*
X005090Y002838D01*
X005094Y002835D01*
X005056Y002783D01*
X005021Y002730D01*
X004990Y002674D01*
X004962Y002616D01*
X004937Y002557D01*
X004916Y002496D01*
X004899Y002434D01*
X004885Y002372D01*
X004876Y002308D01*
X004870Y002244D01*
X004868Y002180D01*
X004870Y002116D01*
X004876Y002052D01*
X004885Y001989D01*
X004899Y001926D01*
X004916Y001864D01*
X004937Y001804D01*
X004962Y001744D01*
X004990Y001687D01*
X005021Y001631D01*
X005056Y001577D01*
X005094Y001525D01*
X005135Y001476D01*
X005179Y001429D01*
X005226Y001385D01*
X005275Y001344D01*
X005327Y001306D01*
X005381Y001271D01*
X005436Y001240D01*
X005494Y001212D01*
X005553Y001187D01*
X005614Y001166D01*
X005615Y001171D01*
X005555Y001192D01*
X005496Y001216D01*
X005439Y001244D01*
X005383Y001275D01*
X005329Y001310D01*
X005278Y001348D01*
X005229Y001389D01*
X005183Y001433D01*
X005139Y001479D01*
X005098Y001528D01*
X005060Y001580D01*
X005025Y001633D01*
X004994Y001689D01*
X004966Y001746D01*
X004942Y001805D01*
X004921Y001866D01*
X004904Y001927D01*
X004890Y001990D01*
X004881Y002053D01*
X004875Y002116D01*
X004873Y002180D01*
X004875Y002244D01*
X004881Y002308D01*
X004890Y002371D01*
X004904Y002433D01*
X004921Y002495D01*
X004942Y002555D01*
X004966Y002614D01*
X004994Y002671D01*
X005026Y002727D01*
X005060Y002781D01*
X005098Y002832D01*
X005102Y002829D01*
X005064Y002778D01*
X005030Y002724D01*
X004999Y002669D01*
X004971Y002612D01*
X004946Y002553D01*
X004926Y002493D01*
X004909Y002432D01*
X004895Y002370D01*
X004886Y002307D01*
X004880Y002244D01*
X004878Y002180D01*
X004880Y002117D01*
X004886Y002053D01*
X004895Y001990D01*
X004909Y001928D01*
X004926Y001867D01*
X004946Y001807D01*
X004971Y001748D01*
X004998Y001691D01*
X005030Y001636D01*
X005064Y001582D01*
X005102Y001531D01*
X005142Y001482D01*
X005186Y001436D01*
X005232Y001393D01*
X005281Y001352D01*
X005332Y001314D01*
X005386Y001280D01*
X005441Y001249D01*
X005498Y001221D01*
X005557Y001196D01*
X005617Y001176D01*
X005618Y001180D01*
X005559Y001201D01*
X005500Y001225D01*
X005443Y001253D01*
X005388Y001284D01*
X005335Y001318D01*
X005284Y001356D01*
X005236Y001396D01*
X005190Y001440D01*
X005146Y001486D01*
X005106Y001534D01*
X005068Y001585D01*
X005034Y001638D01*
X005003Y001694D01*
X004975Y001750D01*
X004951Y001809D01*
X004930Y001869D01*
X004913Y001930D01*
X004900Y001991D01*
X004891Y002054D01*
X004885Y002117D01*
X004883Y002180D01*
X004885Y002243D01*
X004891Y002306D01*
X004900Y002369D01*
X004913Y002431D01*
X004930Y002492D01*
X004951Y002551D01*
X004975Y002610D01*
X005003Y002667D01*
X005034Y002722D01*
X005068Y002775D01*
X005106Y002826D01*
X005110Y002823D01*
X005073Y002772D01*
X005038Y002719D01*
X005007Y002664D01*
X004980Y002608D01*
X004956Y002550D01*
X004935Y002490D01*
X004918Y002429D01*
X004905Y002368D01*
X004896Y002306D01*
X004890Y002243D01*
X004888Y002180D01*
X004890Y002117D01*
X004896Y002055D01*
X004905Y001992D01*
X004918Y001931D01*
X004935Y001870D01*
X004956Y001811D01*
X004980Y001752D01*
X005007Y001696D01*
X005038Y001641D01*
X005072Y001588D01*
X005110Y001537D01*
X005150Y001489D01*
X005193Y001443D01*
X005239Y001400D01*
X005287Y001360D01*
X005338Y001323D01*
X005391Y001288D01*
X005446Y001257D01*
X005502Y001230D01*
X005560Y001206D01*
X005620Y001185D01*
X005621Y001190D01*
X005562Y001210D01*
X005504Y001234D01*
X005448Y001262D01*
X005393Y001293D01*
X005341Y001327D01*
X005290Y001364D01*
X005242Y001404D01*
X005197Y001447D01*
X005154Y001492D01*
X005114Y001541D01*
X005076Y001591D01*
X005042Y001644D01*
X005012Y001698D01*
X004984Y001755D01*
X004960Y001812D01*
X004940Y001872D01*
X004923Y001932D01*
X004910Y001993D01*
X004901Y002055D01*
X004895Y002117D01*
X004893Y002180D01*
X004895Y002243D01*
X004901Y002305D01*
X004910Y002367D01*
X004923Y002428D01*
X004940Y002489D01*
X004960Y002548D01*
X004984Y002606D01*
X005012Y002662D01*
X005043Y002717D01*
X005077Y002769D01*
X005114Y002820D01*
X005118Y002817D01*
X005081Y002766D01*
X005047Y002714D01*
X005016Y002660D01*
X004989Y002604D01*
X004965Y002546D01*
X004945Y002487D01*
X004928Y002427D01*
X004915Y002366D01*
X004906Y002304D01*
X004900Y002242D01*
X004898Y002180D01*
X004900Y002118D01*
X004906Y002056D01*
X004915Y001994D01*
X004928Y001933D01*
X004945Y001873D01*
X004965Y001814D01*
X004989Y001757D01*
X005016Y001701D01*
X005047Y001646D01*
X005081Y001594D01*
X005118Y001544D01*
X005157Y001496D01*
X005200Y001450D01*
X005246Y001408D01*
X005293Y001368D01*
X005344Y001331D01*
X005396Y001297D01*
X005450Y001266D01*
X005506Y001239D01*
X005564Y001215D01*
X005623Y001195D01*
X005624Y001200D01*
X005566Y001220D01*
X005508Y001244D01*
X005453Y001271D01*
X005399Y001301D01*
X005346Y001335D01*
X005297Y001372D01*
X005249Y001411D01*
X005204Y001454D01*
X005161Y001499D01*
X005121Y001547D01*
X005085Y001597D01*
X005051Y001649D01*
X005021Y001703D01*
X004993Y001759D01*
X004970Y001816D01*
X004949Y001875D01*
X004933Y001934D01*
X004920Y001995D01*
X004910Y002056D01*
X004905Y002118D01*
X004903Y002180D01*
X004905Y002242D01*
X004910Y002304D01*
X004920Y002365D01*
X004933Y002426D01*
X004950Y002486D01*
X004970Y002544D01*
X004994Y002602D01*
X005021Y002657D01*
X005051Y002711D01*
X005085Y002763D01*
X005122Y002813D01*
M02*
