G75*
%MOIN*%
%OFA0B0*%
%FSLAX24Y24*%
%IPPOS*%
%LPD*%
%AMOC8*
5,1,8,0,0,1.08239X$1,22.5*
%
%ADD10C,0.0000*%
%ADD11C,0.0080*%
%ADD12C,0.0520*%
%ADD13C,0.0740*%
%ADD14OC8,0.0520*%
%ADD15C,0.0520*%
%ADD16R,0.0709X0.0630*%
%ADD17R,0.0630X0.0709*%
%ADD18OC8,0.0740*%
%ADD19R,0.0710X0.0630*%
%ADD20R,0.0740X0.0740*%
%ADD21OC8,0.0660*%
%ADD22R,0.0630X0.0710*%
%ADD23C,0.0120*%
%ADD24C,0.0240*%
%ADD25C,0.0320*%
%ADD26C,0.0356*%
%ADD27C,0.0160*%
D10*
X000430Y000887D02*
X000430Y018999D01*
X000432Y019055D01*
X000438Y019110D01*
X000448Y019165D01*
X000462Y019219D01*
X000479Y019272D01*
X000501Y019323D01*
X000526Y019373D01*
X000554Y019421D01*
X000586Y019467D01*
X000621Y019510D01*
X000659Y019551D01*
X000700Y019589D01*
X000743Y019624D01*
X000789Y019656D01*
X000837Y019684D01*
X000887Y019709D01*
X000938Y019731D01*
X000991Y019748D01*
X001045Y019762D01*
X001100Y019772D01*
X001155Y019778D01*
X001211Y019780D01*
X019181Y019780D01*
X019237Y019778D01*
X019292Y019773D01*
X019347Y019764D01*
X019401Y019751D01*
X019454Y019735D01*
X019506Y019715D01*
X019557Y019692D01*
X019606Y019666D01*
X019653Y019637D01*
X019698Y019605D01*
X019741Y019569D01*
X019781Y019531D01*
X019819Y019491D01*
X019855Y019448D01*
X019887Y019403D01*
X019916Y019356D01*
X019942Y019307D01*
X019965Y019256D01*
X019985Y019204D01*
X020001Y019151D01*
X020014Y019097D01*
X020023Y019042D01*
X020028Y018987D01*
X020030Y018931D01*
X020030Y000961D01*
X020028Y000905D01*
X020022Y000850D01*
X020012Y000795D01*
X019998Y000741D01*
X019981Y000688D01*
X019959Y000637D01*
X019934Y000587D01*
X019906Y000539D01*
X019874Y000493D01*
X019839Y000450D01*
X019801Y000409D01*
X019760Y000371D01*
X019717Y000336D01*
X019671Y000304D01*
X019623Y000276D01*
X019573Y000251D01*
X019522Y000229D01*
X019469Y000212D01*
X019415Y000198D01*
X019360Y000188D01*
X019305Y000182D01*
X019249Y000180D01*
X001137Y000180D01*
X001087Y000182D01*
X001036Y000187D01*
X000987Y000196D01*
X000938Y000209D01*
X000890Y000225D01*
X000843Y000244D01*
X000798Y000266D01*
X000755Y000292D01*
X000713Y000321D01*
X000674Y000353D01*
X000637Y000387D01*
X000603Y000424D01*
X000571Y000463D01*
X000542Y000505D01*
X000516Y000548D01*
X000494Y000593D01*
X000475Y000640D01*
X000459Y000688D01*
X000446Y000737D01*
X000437Y000786D01*
X000432Y000837D01*
X000430Y000887D01*
X000800Y001180D02*
X000802Y001230D01*
X000808Y001280D01*
X000818Y001329D01*
X000832Y001377D01*
X000849Y001424D01*
X000870Y001469D01*
X000895Y001513D01*
X000923Y001554D01*
X000955Y001593D01*
X000989Y001630D01*
X001026Y001664D01*
X001066Y001694D01*
X001108Y001721D01*
X001152Y001745D01*
X001198Y001766D01*
X001245Y001782D01*
X001293Y001795D01*
X001343Y001804D01*
X001392Y001809D01*
X001443Y001810D01*
X001493Y001807D01*
X001542Y001800D01*
X001591Y001789D01*
X001639Y001774D01*
X001685Y001756D01*
X001730Y001734D01*
X001773Y001708D01*
X001814Y001679D01*
X001853Y001647D01*
X001889Y001612D01*
X001921Y001574D01*
X001951Y001534D01*
X001978Y001491D01*
X002001Y001447D01*
X002020Y001401D01*
X002036Y001353D01*
X002048Y001304D01*
X002056Y001255D01*
X002060Y001205D01*
X002060Y001155D01*
X002056Y001105D01*
X002048Y001056D01*
X002036Y001007D01*
X002020Y000959D01*
X002001Y000913D01*
X001978Y000869D01*
X001951Y000826D01*
X001921Y000786D01*
X001889Y000748D01*
X001853Y000713D01*
X001814Y000681D01*
X001773Y000652D01*
X001730Y000626D01*
X001685Y000604D01*
X001639Y000586D01*
X001591Y000571D01*
X001542Y000560D01*
X001493Y000553D01*
X001443Y000550D01*
X001392Y000551D01*
X001343Y000556D01*
X001293Y000565D01*
X001245Y000578D01*
X001198Y000594D01*
X001152Y000615D01*
X001108Y000639D01*
X001066Y000666D01*
X001026Y000696D01*
X000989Y000730D01*
X000955Y000767D01*
X000923Y000806D01*
X000895Y000847D01*
X000870Y000891D01*
X000849Y000936D01*
X000832Y000983D01*
X000818Y001031D01*
X000808Y001080D01*
X000802Y001130D01*
X000800Y001180D01*
X000800Y018680D02*
X000802Y018730D01*
X000808Y018780D01*
X000818Y018829D01*
X000832Y018877D01*
X000849Y018924D01*
X000870Y018969D01*
X000895Y019013D01*
X000923Y019054D01*
X000955Y019093D01*
X000989Y019130D01*
X001026Y019164D01*
X001066Y019194D01*
X001108Y019221D01*
X001152Y019245D01*
X001198Y019266D01*
X001245Y019282D01*
X001293Y019295D01*
X001343Y019304D01*
X001392Y019309D01*
X001443Y019310D01*
X001493Y019307D01*
X001542Y019300D01*
X001591Y019289D01*
X001639Y019274D01*
X001685Y019256D01*
X001730Y019234D01*
X001773Y019208D01*
X001814Y019179D01*
X001853Y019147D01*
X001889Y019112D01*
X001921Y019074D01*
X001951Y019034D01*
X001978Y018991D01*
X002001Y018947D01*
X002020Y018901D01*
X002036Y018853D01*
X002048Y018804D01*
X002056Y018755D01*
X002060Y018705D01*
X002060Y018655D01*
X002056Y018605D01*
X002048Y018556D01*
X002036Y018507D01*
X002020Y018459D01*
X002001Y018413D01*
X001978Y018369D01*
X001951Y018326D01*
X001921Y018286D01*
X001889Y018248D01*
X001853Y018213D01*
X001814Y018181D01*
X001773Y018152D01*
X001730Y018126D01*
X001685Y018104D01*
X001639Y018086D01*
X001591Y018071D01*
X001542Y018060D01*
X001493Y018053D01*
X001443Y018050D01*
X001392Y018051D01*
X001343Y018056D01*
X001293Y018065D01*
X001245Y018078D01*
X001198Y018094D01*
X001152Y018115D01*
X001108Y018139D01*
X001066Y018166D01*
X001026Y018196D01*
X000989Y018230D01*
X000955Y018267D01*
X000923Y018306D01*
X000895Y018347D01*
X000870Y018391D01*
X000849Y018436D01*
X000832Y018483D01*
X000818Y018531D01*
X000808Y018580D01*
X000802Y018630D01*
X000800Y018680D01*
X018300Y018680D02*
X018302Y018730D01*
X018308Y018780D01*
X018318Y018829D01*
X018332Y018877D01*
X018349Y018924D01*
X018370Y018969D01*
X018395Y019013D01*
X018423Y019054D01*
X018455Y019093D01*
X018489Y019130D01*
X018526Y019164D01*
X018566Y019194D01*
X018608Y019221D01*
X018652Y019245D01*
X018698Y019266D01*
X018745Y019282D01*
X018793Y019295D01*
X018843Y019304D01*
X018892Y019309D01*
X018943Y019310D01*
X018993Y019307D01*
X019042Y019300D01*
X019091Y019289D01*
X019139Y019274D01*
X019185Y019256D01*
X019230Y019234D01*
X019273Y019208D01*
X019314Y019179D01*
X019353Y019147D01*
X019389Y019112D01*
X019421Y019074D01*
X019451Y019034D01*
X019478Y018991D01*
X019501Y018947D01*
X019520Y018901D01*
X019536Y018853D01*
X019548Y018804D01*
X019556Y018755D01*
X019560Y018705D01*
X019560Y018655D01*
X019556Y018605D01*
X019548Y018556D01*
X019536Y018507D01*
X019520Y018459D01*
X019501Y018413D01*
X019478Y018369D01*
X019451Y018326D01*
X019421Y018286D01*
X019389Y018248D01*
X019353Y018213D01*
X019314Y018181D01*
X019273Y018152D01*
X019230Y018126D01*
X019185Y018104D01*
X019139Y018086D01*
X019091Y018071D01*
X019042Y018060D01*
X018993Y018053D01*
X018943Y018050D01*
X018892Y018051D01*
X018843Y018056D01*
X018793Y018065D01*
X018745Y018078D01*
X018698Y018094D01*
X018652Y018115D01*
X018608Y018139D01*
X018566Y018166D01*
X018526Y018196D01*
X018489Y018230D01*
X018455Y018267D01*
X018423Y018306D01*
X018395Y018347D01*
X018370Y018391D01*
X018349Y018436D01*
X018332Y018483D01*
X018318Y018531D01*
X018308Y018580D01*
X018302Y018630D01*
X018300Y018680D01*
X018300Y001180D02*
X018302Y001230D01*
X018308Y001280D01*
X018318Y001329D01*
X018332Y001377D01*
X018349Y001424D01*
X018370Y001469D01*
X018395Y001513D01*
X018423Y001554D01*
X018455Y001593D01*
X018489Y001630D01*
X018526Y001664D01*
X018566Y001694D01*
X018608Y001721D01*
X018652Y001745D01*
X018698Y001766D01*
X018745Y001782D01*
X018793Y001795D01*
X018843Y001804D01*
X018892Y001809D01*
X018943Y001810D01*
X018993Y001807D01*
X019042Y001800D01*
X019091Y001789D01*
X019139Y001774D01*
X019185Y001756D01*
X019230Y001734D01*
X019273Y001708D01*
X019314Y001679D01*
X019353Y001647D01*
X019389Y001612D01*
X019421Y001574D01*
X019451Y001534D01*
X019478Y001491D01*
X019501Y001447D01*
X019520Y001401D01*
X019536Y001353D01*
X019548Y001304D01*
X019556Y001255D01*
X019560Y001205D01*
X019560Y001155D01*
X019556Y001105D01*
X019548Y001056D01*
X019536Y001007D01*
X019520Y000959D01*
X019501Y000913D01*
X019478Y000869D01*
X019451Y000826D01*
X019421Y000786D01*
X019389Y000748D01*
X019353Y000713D01*
X019314Y000681D01*
X019273Y000652D01*
X019230Y000626D01*
X019185Y000604D01*
X019139Y000586D01*
X019091Y000571D01*
X019042Y000560D01*
X018993Y000553D01*
X018943Y000550D01*
X018892Y000551D01*
X018843Y000556D01*
X018793Y000565D01*
X018745Y000578D01*
X018698Y000594D01*
X018652Y000615D01*
X018608Y000639D01*
X018566Y000666D01*
X018526Y000696D01*
X018489Y000730D01*
X018455Y000767D01*
X018423Y000806D01*
X018395Y000847D01*
X018370Y000891D01*
X018349Y000936D01*
X018332Y000983D01*
X018318Y001031D01*
X018308Y001080D01*
X018302Y001130D01*
X018300Y001180D01*
D11*
X015687Y017345D02*
X015687Y018266D01*
X016147Y018266D01*
X016300Y018112D01*
X016300Y017805D01*
X016147Y017652D01*
X015687Y017652D01*
X015380Y017498D02*
X015380Y018112D01*
X015226Y018266D01*
X014919Y018266D01*
X014766Y018112D01*
X014766Y017498D01*
X014919Y017345D01*
X015226Y017345D01*
X015380Y017498D01*
X014459Y018266D02*
X013845Y018266D01*
X014152Y018266D02*
X014152Y017345D01*
D12*
X014180Y010690D02*
X014180Y010170D01*
X013180Y010170D02*
X013180Y010690D01*
X012180Y010690D02*
X012180Y010170D01*
X011180Y010170D02*
X011180Y010690D01*
X010180Y010690D02*
X010180Y010170D01*
X009180Y010170D02*
X009180Y010690D01*
X008180Y010690D02*
X008180Y010170D01*
X007180Y010170D02*
X007180Y010690D01*
X006180Y010690D02*
X006180Y010170D01*
X005180Y010170D02*
X005180Y010690D01*
X004180Y010690D02*
X004180Y010170D01*
X003180Y010170D02*
X003180Y010690D01*
X003180Y007690D02*
X003180Y007170D01*
X004180Y007170D02*
X004180Y007690D01*
X005180Y007690D02*
X005180Y007170D01*
X006180Y007170D02*
X006180Y007690D01*
X007180Y007690D02*
X007180Y007170D01*
X008180Y007170D02*
X008180Y007690D01*
X009180Y007690D02*
X009180Y007170D01*
X010180Y007170D02*
X010180Y007690D01*
X011180Y007690D02*
X011180Y007170D01*
X012180Y007170D02*
X012180Y007690D01*
X013180Y007690D02*
X013180Y007170D01*
X014180Y007170D02*
X014180Y007690D01*
X015180Y007690D02*
X015180Y007170D01*
X016180Y007170D02*
X016180Y007690D01*
X016180Y010170D02*
X016180Y010690D01*
X015180Y010690D02*
X015180Y010170D01*
D13*
X015430Y014430D03*
X015430Y015430D03*
X014930Y016680D03*
X015930Y016680D03*
X016930Y016680D03*
X017930Y016680D03*
X018930Y016680D03*
X017180Y015430D03*
X017180Y014430D03*
X013680Y014430D03*
X013680Y015430D03*
X011930Y016680D03*
X010930Y016680D03*
X009930Y016680D03*
X007930Y016680D03*
X006930Y016680D03*
X005930Y016680D03*
X004930Y016680D03*
X003930Y016680D03*
X002930Y016680D03*
X001930Y016680D03*
X002930Y018680D03*
X003930Y018680D03*
X004930Y018680D03*
X005930Y018680D03*
X006930Y018680D03*
X007930Y018680D03*
X006070Y014585D03*
X004290Y014585D03*
X004290Y012025D03*
X006070Y012025D03*
X001430Y011180D03*
X001430Y010180D03*
X001430Y009180D03*
X001430Y008180D03*
X001430Y007180D03*
X001680Y005680D03*
X002180Y002930D03*
X003180Y002930D03*
X004180Y002930D03*
X018680Y002680D03*
X018680Y003680D03*
X018680Y004680D03*
D14*
X016430Y002180D03*
X015680Y001680D03*
X016430Y001180D03*
X006680Y004655D03*
X004805Y004655D03*
X003430Y004680D03*
X003430Y005680D03*
D15*
X004805Y005455D03*
X006680Y005455D03*
X011355Y003055D03*
X013255Y003055D03*
D16*
X008680Y004254D03*
X008680Y005356D03*
X011930Y011879D03*
X011930Y012981D03*
D17*
X009731Y012180D03*
X008629Y012180D03*
X010254Y005805D03*
X011356Y005805D03*
X011856Y004805D03*
X010754Y004805D03*
X006731Y003430D03*
X005629Y003430D03*
X018004Y006055D03*
X019106Y006055D03*
D18*
X019180Y007555D03*
X019180Y008555D03*
X019180Y009555D03*
X019180Y010555D03*
X018180Y010555D03*
X018180Y009555D03*
X018180Y008555D03*
X018180Y007555D03*
D19*
X016805Y011870D03*
X016805Y012990D03*
X015430Y012990D03*
X015430Y011870D03*
X013680Y011870D03*
X013680Y012990D03*
X002180Y013495D03*
X002180Y014615D03*
D20*
X001680Y004680D03*
X012930Y016680D03*
D21*
X008930Y002180D03*
X008430Y001430D03*
X007930Y002180D03*
X006430Y002180D03*
X005930Y001430D03*
X005430Y002180D03*
D22*
X015370Y004680D03*
X016490Y004680D03*
X009740Y013180D03*
X009740Y014180D03*
X008620Y014180D03*
X008620Y013180D03*
X011870Y017930D03*
X012990Y017930D03*
D23*
X012930Y017870D01*
X012930Y016680D01*
X011930Y016680D02*
X011930Y017870D01*
X011870Y017930D01*
X012930Y017990D02*
X012990Y017930D01*
X013680Y014430D02*
X013680Y012990D01*
X013680Y011870D02*
X013680Y009680D01*
X013680Y009430D01*
X013180Y008930D01*
X012180Y007430D02*
X012180Y005680D01*
X011930Y005430D01*
X011930Y004879D01*
X011856Y004805D01*
X011930Y004805D01*
X011930Y003680D01*
X012555Y003055D01*
X013255Y003055D01*
X014180Y003024D02*
X014680Y003024D01*
X014680Y002906D02*
X014180Y002906D01*
X014180Y002787D02*
X014680Y002787D01*
X014680Y002669D02*
X014180Y002669D01*
X014180Y002550D02*
X014680Y002550D01*
X014680Y002432D02*
X014180Y002432D01*
X014180Y002430D02*
X014180Y003680D01*
X014680Y003680D01*
X014680Y001180D01*
X009680Y001180D01*
X009680Y006180D01*
X010555Y006180D01*
X010555Y002430D01*
X014180Y002430D01*
X014680Y002313D02*
X009680Y002313D01*
X009680Y002195D02*
X014680Y002195D01*
X014680Y002076D02*
X009680Y002076D01*
X009680Y001958D02*
X014680Y001958D01*
X014680Y001839D02*
X009680Y001839D01*
X009680Y001721D02*
X014680Y001721D01*
X014680Y001602D02*
X009680Y001602D01*
X009680Y001484D02*
X014680Y001484D01*
X014680Y001365D02*
X009680Y001365D01*
X009680Y001247D02*
X014680Y001247D01*
X015305Y002055D02*
X015305Y004615D01*
X015370Y004680D02*
X014430Y004680D01*
X014180Y004930D01*
X014180Y007430D01*
X011430Y006555D02*
X011430Y005879D01*
X011356Y005805D01*
X011355Y005805D01*
X011355Y003055D01*
X010555Y003024D02*
X009680Y003024D01*
X009680Y002906D02*
X010555Y002906D01*
X010555Y002787D02*
X009680Y002787D01*
X009680Y002669D02*
X010555Y002669D01*
X010555Y002550D02*
X009680Y002550D01*
X009680Y002432D02*
X010555Y002432D01*
X010555Y003143D02*
X009680Y003143D01*
X009680Y003261D02*
X010555Y003261D01*
X010555Y003380D02*
X009680Y003380D01*
X009680Y003498D02*
X010555Y003498D01*
X010555Y003617D02*
X009680Y003617D01*
X009680Y003735D02*
X010555Y003735D01*
X010555Y003854D02*
X009680Y003854D01*
X009680Y003972D02*
X010555Y003972D01*
X010555Y004091D02*
X009680Y004091D01*
X009680Y004209D02*
X010555Y004209D01*
X010555Y004328D02*
X009680Y004328D01*
X009680Y004446D02*
X010555Y004446D01*
X010555Y004565D02*
X009680Y004565D01*
X009680Y004683D02*
X010555Y004683D01*
X010555Y004802D02*
X009680Y004802D01*
X009680Y004920D02*
X010555Y004920D01*
X010555Y005039D02*
X009680Y005039D01*
X009680Y005157D02*
X010555Y005157D01*
X010555Y005276D02*
X009680Y005276D01*
X009680Y005394D02*
X010555Y005394D01*
X010555Y005513D02*
X009680Y005513D01*
X009680Y005631D02*
X010555Y005631D01*
X010555Y005750D02*
X009680Y005750D01*
X009680Y005868D02*
X010555Y005868D01*
X010555Y005987D02*
X009680Y005987D01*
X009680Y006105D02*
X010555Y006105D01*
X010254Y005805D02*
X010305Y005754D01*
X011180Y006805D02*
X011430Y006555D01*
X011180Y006805D02*
X011180Y007430D01*
X008680Y004254D02*
X008754Y004180D01*
X005180Y007430D02*
X002430Y010180D01*
X001430Y010180D01*
X001430Y009180D02*
X002430Y009180D01*
X004180Y007430D01*
X003180Y007430D02*
X002430Y008180D01*
X001430Y008180D01*
X004930Y010680D02*
X005180Y010430D01*
X004930Y010680D02*
X004930Y015680D01*
X003930Y016680D01*
X004930Y016680D02*
X005430Y016180D01*
X005430Y015930D01*
X005430Y015680D01*
X005430Y011180D01*
X006180Y010430D01*
X007180Y010430D02*
X007180Y015430D01*
X005930Y016680D01*
X006070Y014585D02*
X006070Y012025D01*
X004290Y012025D02*
X004290Y014585D01*
X004275Y014585D01*
X004180Y014680D01*
X002245Y014680D01*
X002180Y014615D01*
X014180Y003617D02*
X014680Y003617D01*
X014680Y003498D02*
X014180Y003498D01*
X014180Y003380D02*
X014680Y003380D01*
X014680Y003261D02*
X014180Y003261D01*
X014180Y003143D02*
X014680Y003143D01*
X015305Y002055D02*
X015680Y001680D01*
X016430Y002180D02*
X016430Y004620D01*
X017930Y006129D02*
X018004Y006055D01*
X019106Y006055D02*
X019180Y006129D01*
X019430Y003430D02*
X019356Y003356D01*
X018180Y009555D02*
X017430Y010305D01*
X017430Y011305D01*
X018180Y012055D01*
X018180Y015430D01*
X016930Y016680D01*
X017930Y016680D02*
X019180Y015430D01*
X019180Y010555D01*
X016805Y011430D02*
X016805Y011870D01*
X016805Y011430D02*
X016180Y010805D01*
X016180Y010430D01*
X015180Y010430D02*
X015180Y011055D01*
X015430Y011305D01*
X015430Y011870D01*
X015430Y012990D02*
X015430Y014430D01*
X016805Y013555D02*
X016805Y012990D01*
X016805Y013555D02*
X017180Y013930D01*
X017180Y014430D01*
D24*
X017180Y015430D02*
X015430Y015430D01*
X014930Y015930D01*
X014930Y016680D01*
X015430Y015430D02*
X013680Y015430D01*
X012430Y015430D01*
X011930Y014930D01*
X010930Y014180D02*
X009740Y014180D01*
X009740Y015120D01*
X008930Y015930D01*
X008930Y018180D01*
X008430Y018680D01*
X007930Y018680D01*
X006930Y018680D01*
X005930Y018680D01*
X005055Y017805D01*
X001805Y017805D01*
X001180Y017180D01*
X001180Y013930D01*
X001615Y013495D01*
X002180Y013495D01*
X002180Y011930D01*
X001430Y011180D01*
X001680Y005680D02*
X003430Y005680D01*
X003680Y004680D02*
X004430Y005430D01*
X004780Y005430D01*
X005629Y004404D02*
X006680Y005455D01*
X008581Y005455D01*
X008680Y005356D02*
X008680Y006930D01*
X009180Y007430D01*
X010180Y008430D01*
X011180Y008430D01*
X011180Y010430D01*
X009180Y010430D02*
X009180Y010930D01*
X011180Y008430D02*
X015430Y008430D01*
X015680Y008180D01*
X015680Y006430D01*
X016430Y005680D01*
X016430Y004740D01*
X016490Y004680D02*
X018680Y004680D01*
X019430Y005180D02*
X019430Y003430D01*
X019356Y003356D02*
X018680Y002680D01*
X019430Y005180D02*
X019106Y005504D01*
X019106Y006055D01*
X019180Y006129D02*
X019180Y007555D01*
X018180Y007555D02*
X018180Y006930D01*
X017930Y006680D01*
X017930Y006129D01*
X018004Y006055D02*
X017305Y006055D01*
X016930Y005680D01*
X010754Y004805D02*
X010305Y004805D01*
X008606Y004180D02*
X007180Y004180D01*
X006705Y004655D01*
X006731Y004604D02*
X006731Y003430D01*
X006731Y002879D01*
X007180Y002430D01*
X007180Y001930D01*
X006680Y001430D01*
X005930Y001430D01*
X005430Y002180D02*
X004430Y002180D01*
X004180Y002430D01*
X004180Y002930D01*
X004930Y003430D02*
X005629Y003430D01*
X005629Y002981D01*
X006430Y002180D01*
X005629Y003430D02*
X005629Y004404D01*
X004930Y003430D02*
X004555Y003805D01*
X002555Y003805D01*
X002180Y003430D01*
X002180Y002930D01*
X010180Y007430D02*
X010254Y007356D01*
X018930Y016680D02*
X018930Y017180D01*
X017430Y018680D01*
X012930Y018680D01*
X012930Y017990D01*
X012930Y018680D02*
X009430Y018680D01*
X008930Y018180D01*
D25*
X009930Y016680D02*
X009930Y015930D01*
X010930Y014930D01*
X011930Y014930D01*
X011930Y013180D01*
X009740Y013180D01*
X009731Y013171D02*
X009731Y012180D01*
X009731Y011481D01*
X009180Y010930D01*
X010254Y007356D02*
X010254Y005805D01*
X010305Y005754D02*
X010305Y004805D01*
X009680Y004180D01*
X008754Y004180D01*
D26*
X009930Y001180D03*
X016930Y005680D03*
X013180Y008930D03*
X010930Y014180D03*
D27*
X011930Y013180D02*
X011930Y012981D01*
X011930Y011879D02*
X011129Y011879D01*
X010180Y010930D01*
X010180Y010430D01*
X008629Y011629D02*
X008180Y011180D01*
X008180Y010430D01*
X008629Y011629D02*
X008629Y012180D01*
X008629Y013171D01*
X008620Y013180D01*
X008620Y014180D01*
X009731Y013171D02*
X009740Y013180D01*
X008581Y005455D02*
X008680Y005356D01*
X008680Y004254D02*
X008606Y004180D01*
X006731Y004604D02*
X006680Y004655D01*
X006705Y004655D01*
X004805Y005455D02*
X004780Y005430D01*
X003680Y004680D02*
X003430Y004680D01*
X015305Y004615D02*
X015370Y004680D01*
X016430Y004620D02*
X016490Y004680D01*
X016430Y004740D01*
M02*
